<?xml version="1.0" encoding="utf-8"?>
<!-- Generator: Adobe Illustrator 27.4.1, SVG Export Plug-In . SVG Version: 6.00 Build 0)  -->
<svg version="1.1" id="Layer_1" xmlns="http://www.w3.org/2000/svg" xmlns:xlink="http://www.w3.org/1999/xlink" x="0px" y="0px"
	 viewBox="0 0 709.7 238.2" style="enable-background:new 0 0 709.7 238.2;" xml:space="preserve">
<style type="text/css">
	.st0{fill:#231F20;}
	.st1{fill:#FFFFFF;stroke:#231F20;stroke-width:6;stroke-miterlimit:10;}
	.st2{fill:#FFFFFF;}
	.st3{clip-path:url(#SVGID_00000088131469915654235280000006333733146334633128_);}
	.st4{fill:#09385D;}
	.st5{clip-path:url(#SVGID_00000096739708201563699810000013483601722847817912_);}
	.st6{fill:#0076B7;}
	.st7{fill:#9A9DA0;}
</style>
<path class="st0" d="M254.4,104.5c0,0-4.4-30.8-15.2-30.8s-20.6,30.1-20.6,49.2s6.2,38.7,20.8,38.7s17.5-13.9,17.5-39.6h-16.1v13
	h5.3c0,0-0.5,17.9-5.1,17.9s-8.4-2.9-8.4-29.2S250.1,100.7,254.4,104.5L254.4,104.5z"/>
<path class="st0" d="M350.8,105.4c0-15.1-10.5-27.6-24.4-30.1c-1.7-0.3-3.5-0.5-5.3-0.5c-2.6,0-5.1,0.3-7.5,1v83.1h12.7v-24.4
	l0.7,0.8l12,23.5h11.6l-13.6-27.8C345.3,125.6,350.8,116.1,350.8,105.4L350.8,105.4z M326.4,121.5V99.9c5.8,1.6,10,5.8,10,10.8
	S332.2,119.9,326.4,121.5L326.4,121.5z"/>
<polygon class="st0" points="386.3,77.8 386.3,101.8 377.2,101.8 377.2,158.9 364.2,158.9 364.2,101.8 355.1,101.8 355.1,77.8 "/>
<path class="st0" d="M603.8,103.7c-4.2,9.2-19.4,32.7-20.7,34.6h19.2v20.6h-30.2v-20.6h0.1l12.6-23l5.4-9.9l5.2-9.2
	c-5.4-0.2-12,2.5-13.4,13.4h-13c1.3-15.8,9.8-37.2,19.1-36.9C597,73,608.2,93.8,603.8,103.7L603.8,103.7z"/>
<polygon class="st0" points="548.8,158.9 536.9,158.9 523.6,141 523.6,158.9 511.4,158.9 511.4,77.1 523.6,77.1 523.6,114.6 
	536.6,77.1 548.5,77.1 528.5,128.3 "/>
<path class="st0" d="M291.1,78h-15.7l-17.6,80.9h15.7l2.4-13.6h14.8l2.4,13.6h15.7L291.1,78L291.1,78z M277.3,137.5l6-34.8l6,34.8
	H277.3z"/>
<polygon class="st0" points="440,77.6 440,158.9 424.3,158.9 424.3,134.4 409.3,134.4 409.3,158.9 393.7,158.9 393.7,77.6 
	409.3,77.6 409.3,122.3 424.3,122.3 424.3,77.6 "/>
<path class="st0" d="M475.8,74.2c-15.2,2.7-32.5,37.8-27.6,62.4c5,24.6,23.9,23.9,27.6,23.9s22.6,0.7,27.6-23.9
	C508.3,112.1,491,76.9,475.8,74.2z M475.7,152.7c-2.6,0-12,0.3-12-26.6s11.8-25.1,11.8-25.1l0.2-0.1l0.2,0.1c0,0,11.8-1.8,11.8,25.1
	S478.3,152.7,475.7,152.7L475.7,152.7z"/>
<path class="st0" d="M662.7,74.2c-15.2,2.7-32.5,37.8-27.6,62.4c5,24.6,23.9,23.9,27.6,23.9s22.6,0.7,27.6-23.9
	C695.2,112.1,677.9,76.9,662.7,74.2z M662.6,152.7c-2.6,0-12,0.3-12-26.6s11.8-25.1,11.8-25.1l0.2-0.1l0.2,0.1
	c0,0,11.8-1.8,11.8,25.1S665.2,152.7,662.6,152.7L662.6,152.7z"/>
<path class="st0" d="M630.1,153.2c-1.6,5.9-7.9,5.8-9.1,5.8s-7.5,0.2-9.1-5.8c-1.6-5.9,4.1-14.4,9.1-15
	C626,138.8,631.7,147.3,630.1,153.2z"/>
<path class="st1" d="M37.1,70.1h152.6c6.7,0,12.1,5.4,12.1,12.1v116.3c0,6.7-5.4,12.1-12.1,12.1H37.1c-6.7,0-12.1-5.4-12.1-12.1
	V82.2C25,75.6,30.4,70.1,37.1,70.1z"/>
<rect x="46.8" y="199" class="st2" width="134.2" height="23.8"/>
<polygon class="st2" points="53.4,51.6 48.9,83.6 173.1,83.6 173.1,35.2 "/>
<path d="M191.4,109.8c-0.4-2.2-1.5-4.2-2.2-6.3c0-0.1-0.1-0.1-0.1-0.2c-1.9-0.9-2.2-0.9-4.1,0.2c-1.3,2.6-2.5,5.3-3.8,7.8
	c-3,5.8-6.1,11.6-8.7,17.6c-1.6,3.6-3.5,7-4.5,10.8c0,0-0.7,1.7-1.6,3.5c-0.4,1.9-1.4,3.8-2.4,5.2c-0.9,1.2-3.3,0.8-3.3-0.9
	c0-0.6,0-1.2,0.1-1.8c1.4-3.3,1.6-7,1.6-10.7c0.1-0.6,0.2-1.2,0.3-1.8c0-0.1,0-0.1,0-0.2c-0.5-5.7-1.9-11.3-6.1-12.8
	c-0.6-2.3-2.3-3.8-2.4-6.1c-0.1-1.2,0.4-2,1.5-2.6c0.4-0.2,0.7-0.4,1.1-0.5c1.8-0.8,3.1-2.2,4.2-3.8c0.6-0.9,1-2,1.1-3.1
	c0.1-1.1-0.1-2-1-2.6c-0.2-0.2-0.4-0.3-0.7-0.6c1-0.5,1.8-1.2,2.9-1.4c1.9-0.3,3.1-1.5,3.9-3c1.2-2.3,2-4.7,1.6-7.4
	c-0.2-1.1-0.5-2.1-1.1-2.9c-0.4-0.5-0.8-1.1-1.3-1.5c-1.5-1.3-2.2-3.1-3-4.8c-0.3-0.6-0.3-1.2,0-1.9c0.8-2.1,1.8-3.9,3.2-5.7
	c0.8-1,1.5-2,2.1-3.1c0.3-0.5,0.5-1.1,0.6-1.7c0.1-0.6-0.2-1-0.7-1.3c-0.6-0.3-1.1-0.2-1.7-0.2c-2.1,0.2-4.1,1-6,1.8
	c-2.1,0.9-4.1,1.8-6.1,2.8c-1.2,0.6-2.3,1.3-3.2,2.3c-1.5,1.8-2.6,3.8-3.2,6.1c-0.4,1.6-1,3.2-1.4,4.8c-0.3,0.9-0.7,1.8-1.4,2.3
	c-0.9,0.7-1.9,1.4-3.2,1.7c-0.8-1-1.4-2-1.9-3.2c-0.3-0.8-0.7-1.4-1.1-2.1c-1.1-1.6-2.2-3.1-3.3-4.7c-1-1.4-1.8-2.9-1.9-4.7
	c-0.1-0.9-0.3-1.7-0.8-2.4c-2.4-3.6-4.5-7.5-7.1-11c-2.1-2.8-3.8-5.9-5.4-9c-1.2-2.1-2.3-4.3-2.9-6.7c-0.1-0.2-0.2-0.5-0.3-0.7
	c-2.2-5.3-4.5-10.6-6.7-15.9c-1.2-2.8-2.8-5.4-4.2-8c-2.5-3.1-4-6.6-5.6-10.2c-0.8-0.5-1.6-0.5-2.4-0.3c-0.8,0.2-1.6,0.7-2.1,1.4
	c-0.7,1-1.4,1.9-2.1,2.9c-3.5,4.9-6.2,10.3-8.1,16c-0.7,2.1-1.5,4.2-2.4,6.3c-1,2.5-2,4.9-2.9,7.3c-1.4,3.7-2.3,7.4-3.3,11.2
	c-0.3,1-0.5,2.1-0.6,3.1c-0.8,6.2-1.7,12.3-2.4,18.5c-0.4,4.5-0.9,8.9-1,13.4c0,0.4,0,0.8-0.1,1.2c-0.1,0.3,0.2,0.8-0.2,1
	c-1.9-1.9-4.1-3.2-6.5-3.8c-1.1-0.9-1.8-2.1-2.3-3.4c-0.9-2-1.5-4.1-0.7-6.3c0-0.1,0-0.1,0-0.2c-0.7-0.7-0.8-0.8-1.4-0.8
	c-1,0-1.9,0.3-2.8,0.9c-1.6,1.1-3.1,2.3-4.4,3.6c-0.5,0.6-1.1,1.2-1.4,1.9c-1.3,2.6-1.8,5.4-0.8,8.2c0.7,1.9,1.5,3.8,3.4,4.9
	c0.5,0.3,0.6,0.9,0.3,1.4c-0.4,0.7-0.8,1.2-1.7,1c-0.3-0.1-0.7,0.1-0.7,0.5c0.3,0.2,0.5,0.3,0.8,0.4c-0.2,0.6-0.4,1.2-0.5,1.7
	c-0.4,1.8-0.4,3.7,0.4,5.4c1.1,2.3,3,3.8,5.4,4.6c0.3,0.1,0.6,0.2,1,0.2c0.6,0.1,1.1,0.4,1.4,0.9c0.7,0.9,1.4,1.9,2.2,2.8
	c2,2.4,2,2.4,2.4,5.4c0.1,0.5,0.1,0.9,0.1,1.4c0.2,2.6-1.1,4.7-2.7,6.6c-1.9,2.1-3.8,4.3-4.5,7.2c0,0,0,0.1,0,0.1
	c-0.8,3.1-0.6,6.7-0.2,9.9c0.3,2.8,0.9,5.6,1.8,8.2c0.6,1.9,1.6,4.5-0.6,5.8c-2.9,1.8-5.2-2.7-6.3-4.6c-0.2-0.3-0.3-0.6-0.5-0.8
	c-0.2-0.4-0.4-0.7-0.6-1.1c-1.9-3.4-4.2-6.9-5.4-10.6s-2.6-7.4-4.4-11c-0.5-1-0.8-2.1-1.1-3.2c-0.5-1.7-1.1-3.4-1.6-5
	c-0.6-0.2-1.1-0.3-1.6-0.4c-1.7-0.3-2.7,0.4-3.2,1.7c-0.3,0.9-0.7,1.9-0.9,2.8c-0.8,3-1.2,6.1-1.6,9.2c-0.1,0.5-0.2,1.1-0.1,1.6
	c0.2,2.2,0.3,4.5,0.5,6.7c0.1,1,0.2,2,0.3,3c0.3,2.9,0.6,5.9,0.9,8.8c0.3,2.6,1,5.2,2,7.6c0.8,2,1.8,4,2.5,6
	c1.1,2.8,2.1,5.7,3.2,8.5c0.9,2.4,1.8,4.8,3.2,7c2.2,3.8,4.6,7.5,7.5,10.9c0.5,0.6,0.8,1.2,1.3,1.8c0.4,0.6,0.8,1.1,1.2,1.7
	c-0.4,0.7-0.7,1.4-1.1,2c-0.6,1.1-0.9,2.2-1.1,3.4c-0.2,1.4-0.1,2.6,0.7,3.8c1.3,2.1,2.9,3.9,5.2,5c0.3,0.2,0.7,0.4,0.8,0.5
	c0.4,1,0.7,1.9,1.2,2.7c1.5,2.2,3.7,3.2,6.2,3.8c1.5,0.3,3.1,0.8,4.6,0.3c0.1,0,0.1,0,0.2,0c2.4,0.2,4.5-0.5,6.6-1.6
	c0.3-0.2,0.7-0.4,1.1-0.4c2.1-0.4,4.2-0.5,6.2,0.1c0.6,0.2,1.3,0.3,1.8,0.4c0.5-0.2,0.8-0.4,1.2-0.6c1.3,0.8,2.6,1.1,4,1.2
	c3.1,0.2,6,1.3,8.7,2.9c1.7,1,3.6,1.7,5.5,2.1c1.2,0.3,2.4,0.5,3.7,0.7c1.6,0.2,3.1,0.3,4.7,0.4c1,0,2.1-0.2,3.1-0.3
	c1.9-0.2,3.7-0.4,5.6-0.6c1.5-0.2,3-0.3,4.5-0.5c1.6-0.2,3-1,4.1-2.2c1-1.2,2.1-2.2,3.1-3.3c1.8-2.1,3.1-4.4,2.9-7.3
	c0-0.1,0.1-0.2,0.1-0.4c1.5-1.1,3.2-1.8,4.9-2.4c1.1-0.4,2.3-0.5,3.5-0.1c2.1,0.7,4.2,0.9,6.4,1.2c2.3,0.2,4.6,0.6,6.8,0.8
	c1.2,0.1,2.3-0.1,3.5-0.5c1.5-0.6,3.1-1.1,4.6-1.6c0.4-0.1,0.9-0.3,1.2-0.6c1-0.7,2.1-1.4,3.1-2.1c0.6-0.5,1.2-1.1,1.6-1.7
	c1.7-3,2.6-6.2,2-9.7c-0.2-1.4-0.6-2.7-0.9-4.1c-0.2-0.8-0.3-1.6-0.4-2.4c-0.1-1,0.1-2-0.2-3c-0.2-0.9-0.7-1.8-1.2-2.8
	c0.6-1.2,1.2-2.4,1.8-3.7c0.5-1.1,1.1-2.1,1.6-3.2c1.1-2.5,2.1-5,3.1-7.5c1.9-4.8,3.7-9.6,5.1-14.6c1.4-4.6,2.6-9.1,3.2-13.9
	c0.3-2.6,0.9-5.2,1.3-7.8c0.6-4,1.1-8,1.1-12c-0.1-2.2-0.2-4.3-0.2-6.5C192,113,191.7,111.4,191.4,109.8L191.4,109.8z M94.9,21.9
	c0.3-0.6,0.7-1.3,1.1-1.9c0.4-0.7,0.8-1.4,1.2-2c0.4-0.6,0.7-1.3,1.4-1.9c0.6,2.1,1.5,3.8,2.1,5.6c-2.1,1.1-4.2,1.8-6.6,2.5
	C94.1,23.2,94.6,22.6,94.9,21.9L94.9,21.9z M93.3,25.3c2.5-0.9,5-1.8,7.7-2.7c1.1,1.9,2,3.8,2.9,5.9c-0.7,0.5-1.4,0.8-2.1,1
	c-2.3,0.6-4.7,0.7-7,0.9c-1,0.1-2.1-0.1-3.2-0.5C92.1,28.2,92.5,26.6,93.3,25.3L93.3,25.3z M85.2,52.4c1-0.4,2.1-0.4,3.1-0.5
	c0.7,0,1.4,0,2.1-0.1c3.5-0.7,7-1.7,10.3-3.1c2.3-1,4.5-2.1,6.7-3.4c0.4-0.2,0.8-0.5,1.2-0.8c-0.3-0.4-0.6-0.2-0.8,0
	c-4.5,2.5-9.3,4.4-14.3,5.9c-2.1,0.6-4.2,0.9-6.4,1.2c-0.5,0.1-1.1,0.1-1.5-0.5c1.7-6.8,3.9-13.4,5.8-20.3c4.4,0.6,8.8,0.5,12.9-1.4
	c1.1,1.4,2,2.8,3,4.2c0.1,0.1,0,0.4,0.1,0.6c-1.5,0.8-3,1.3-4.6,1.7c-0.5,0.1-1,0.2-1.5,0.4c-1.4,0.5-2.8,0.7-4.2,0.6
	c-1.1-0.1-2.1,0.1-3,0.4c3.1,0.3,6.1,0,9.1-0.9c1.2-0.4,2.5-0.7,3.7-1.3c0.3-0.2,0.8-0.1,1.1-0.2c0.9,1.1,2.2,3.5,3,5.6
	c-2.1,1-5.8,1.9-11,2.6c-3.7,0.5-7.4,0.7-11.1,0.4c0.1,0.5,0.5,0.5,0.8,0.5c2.7,0.2,5.3,0.5,8,0c0.4-0.1,0.9-0.2,1.4-0.1
	c2,0.1,3.9-0.3,5.8-0.8c2-0.4,3.9-1,5.8-1.7c0.2-0.1,0.5,0,0.8-0.1c1.2,1.8,2.1,3.8,2.9,5.8c0.9,2.1,1.7,4.2,2.5,6.2
	c0.1,0.1,0,0.3,0,0.5c-1.6,1.1-3.5,1.8-5.3,2.5c-3.1,1.2-6.3,2.3-9.5,3.1c-1.8,0.4-3.6,0.8-5.4,1c-4.2,0.5-8.3,0.2-12.4-1.1
	c-0.2-0.1-0.3-0.2-0.6-0.3C84.1,56.6,84.5,54.5,85.2,52.4L85.2,52.4z M82.2,64.1c0.3-1.5,0.6-3,1.2-4.5c0.3,0,0.7,0,0.9,0.1
	c4.3,1.4,8.7,1.5,13.2,0.9c0.9-0.1,1.8-0.3,2.7-0.4c4.4-0.7,8.6-2.1,12.7-4c1.1-0.5,2.2-1.1,3.3-1.7c0.2-0.1,0.5-0.2,0.8-0.3
	c1.2,2.9,2,5.9,3.1,8.8c-1.3,0.9-2.7,1.2-4.1,1.6c-3.8,1.1-7.6,2-11.5,2.4c-2.8,0.3-5.5,0.3-8.2-0.2c-1.1-0.2-2.2-0.4-3.3-0.6
	c-2.4-0.6-4.8-0.4-7.2-0.4c-1.3,0-2.6,0.1-3.9,0.1C82.1,65.3,82.1,64.7,82.2,64.1L82.2,64.1z M79.4,81.4c0.2-1.8,0.4-3.5,0.6-5.1
	c0.2-0.2,0.3-0.3,0.4-0.4c2-0.5,4.1-0.8,6.2-1c1.1-0.1,2.1,0.2,2.9,1c0.8,0.8,1.8,1.1,2.8,1.3c1.2,0.3,2.4,0.5,3.7,0.8
	c1.7,0.4,3.4,0.4,5.1,0.5c2,0.1,3.9,0.1,5.9-0.2c5.2-0.6,9.7-2.6,13.1-6.8c0.6-0.7,1.2-1.3,1.6-2.2c-0.4-0.2-0.6,0-0.7,0.2
	c-1.2,1.1-2.3,2.2-3.5,3.2c-2.8,2.4-6.1,3.8-9.8,4.3c-2.8,0.4-5.6,0.5-8.4,0.3c-1-0.1-2.1-0.2-3.1-0.4c-1.2-0.2-2.3-0.5-3.5-0.7
	c-0.8-0.1-1.5-0.4-2.2-0.9c-1.5-1.2-3.3-1.6-5.2-1.3c-1.1,0.2-2.2,0.5-3.2,0.7c-0.6,0.1-1.1,0.2-1.8,0.3c0-0.6,0-1,0.1-1.4
	c0.4-2.3,0.8-4.6,1.2-6.8c0.1-0.4,0.3-0.7,0.5-1.1c0.6,0.5,1.4,0.3,2,0.4c1,0.1,2,0.2,2.9,0.1c2.2-0.2,4.3,0.2,6.4,0.6
	c2.1,0.3,4.1,1,6.2,1.1c0.3,0,0.5,0.1,0.8,0.1c2.9-0.2,5.9-0.2,8.8-0.8c3.7-0.8,7.3-1.6,10.7-3.2c0.2-0.1,0.4-0.1,0.6-0.2
	c1.8,3.5,3.6,7,5.4,10.7c-0.8,0.8-1.6,1.7-2.5,2.6c-2.4,2.5-4.9,4.7-7.8,6.7c-1,0.7-2.1,1.4-3.1,2.2c-1.3,1-2.8,1.6-4.5,1.8
	c-2.8,0.4-5.6,0.6-8.4,0.7c-0.6,0-1.3-0.1-1.9-0.3c-1.2-0.4-2.5-0.8-3.7-1.3c-0.7-0.3-1.5-0.6-2.1-1.2c-1.1-1-2.3-1.7-3.5-2.5
	c-1.8-1.2-3.7-1.9-5.9-1.7c-0.4,0-0.9,0.1-1.3,0.2c-0.5,0.1-1,0.2-1.6,0.3C79.5,81.9,79.4,81.6,79.4,81.4z M78,91.7
	c0.3-1.5,0.5-3,0.6-4.5c0.1-1.2,0.3-2.5,0.5-3.7c2.7-1.6,5.1-1.5,7.5-0.2c1.3,0.7,2.5,1.5,3.6,2.4c1.6,1.3,3.3,2.3,5.3,2.8
	c1.4,0.4,2.8,1.1,4.4,1c0.3,0,0.7,0.1,1,0c2.8-0.3,5.6-0.7,8.4-1c1.4-0.2,2.6-0.8,3.8-1.6c1.3-0.9,2.6-1.9,3.9-2.8
	c3-2,5.7-4.4,8-7.2c0.4-0.6,1-1.1,1.5-1.6c1.1,1.6,2.1,3.1,3.3,4.6c1.1,1.4,2.3,2.8,3.6,4.4c-0.6,0.1-0.9,0.2-1.3,0.2
	c-1.6-0.1-3,0.4-4.3,1.2c-3.7,2.3-7.3,4.6-10.4,7.8c-0.6,0.6-1.2,1.2-1.7,1.9c-1.3,1.6-2.9,2.7-4.7,3.5c-0.2,0.1-0.5,0.2-0.7,0.3
	c-3.8,0.9-7.5,1.1-11.2-0.3c-1.2-0.4-2.3-1-3.2-1.9c-1.7-1.7-3.8-2.8-5.9-4c-1.2-0.7-2.6-1.1-3.9-1.2c-1.1-0.1-2.2-0.2-3.3-0.2
	C81,91.5,79.5,92,78,92.6C77.6,92.3,77.9,92,78,91.7L78,91.7z M63.5,141.4c0.2-0.6,0.4-1.3,0.7-1.8c1.2-2.3,2.5-4.7,4.3-6.6
	c0.1-0.1,0.2-0.2,0.2-0.3c3-3.6,4.2-7.7,3.3-12.4c-0.1-0.7-0.2-1.3-0.3-2c-0.5-2.1-1.6-3.8-3.6-4.7c-0.3-0.1-0.6-0.3-0.9-0.4
	c-0.1-0.6,0.5-0.6,0.7-0.9c0.2-0.3,0.4-0.5,0.6-0.8c0.2-0.3,0.3-0.7,0.5-1.1c-0.6-0.1-1.4,0.2-2.6,0.7c-0.4,0-0.5-0.4-0.6-0.7
	c-0.3-0.8-1-1.2-1.6-1.8c-0.5-0.4-1-0.6-1.6-0.6c-0.3,0-0.7,0-1,0c-2.3-0.3-3-2.1-2.4-3.9c0.4-1.1,1.1-2.1,1.7-3.1
	c0.3-0.6,0.8-1.2,1-1.9c0.4-1.1,0.2-2.1-0.8-2.8c-0.3-0.2-0.6-0.4-0.7-0.6c-0.5-1.2-1.4-1.9-2.3-2.6c-1.1-0.9-1.5-2-1.4-3.5
	c0.1-2.2,0.8-4,2.2-5.6c0.2-0.2,0.5-0.4,0.8-0.7c0.2,0.4,0.5,0.8,0.5,1.1c0.3,2,1.3,3.6,2.4,5.2c1,1.4,2.5,2.2,4.1,2.5
	c0.4,0.1,0.9,0.1,1.4,0.2c2,0.2,3.7,1.7,4.1,3.7c0.2,0.8,0.2,1.7,0.3,2.6c0.1,0.8,0,1.5,0.6,2.2c0.3,0.3,0.1,1,0.1,1.5
	c0,0.7,0.2,1.3,0.7,1.8c-0.8,2.3-2.1,3.7-4.5,4.6c-0.1,0.5,0.2,0.6,0.5,0.6c0.5-0.1,1.1-0.2,1.5-0.5c0.7-0.4,1.3-0.9,1.8-1.5
	c0.4-0.4,0.8-0.3,1.3-0.4c0.5-0.8,1-1.6,1.5-2.5c0.9-1.4,2.2-2.4,3.7-3.2c1.2-0.6,2.6-1,3.9-1.3c2.1-0.4,3.9,0.1,5.4,1.6
	c1.7,1.6,3.3,3.2,5,4.8c0.5,0.5,1,0.9,1.4,1.4c1.2,1.6,2.7,2.9,4.3,4c0.8,0.6,1.7,1.1,2.4,1.7c1.3,1,2.7,1.6,4.3,1.8
	c0.3,0,0.7,0.1,1.1,0.2c0.8-0.4,1.6-0.8,2.5-1.2c0.4-0.2,0.8-0.5,1.2-0.7c1.9-0.8,3.4-2.2,4.7-3.8c1.9-2.3,3.9-4.6,5.9-6.9
	c0.5-0.6,1.1-1.1,1.8-1.6c1.5-1,3.1-1.7,4.8-2.2c1.9-0.6,3.8-0.4,5.5,0.6c1.1,0.7,2.2,1.3,3.4,2c1,0.5,2,1,3,1.5
	c0.3,0.1,0.6,0.2,0.9,0.3c-0.1-0.2,0-0.4-0.1-0.5c-2-1.2-4-2.5-6.1-3.7c-0.7-0.4-1.5-0.8-2.3-1.1c-1.8-0.6-3.5-0.4-5.2,0.2
	c-0.9,0.3-1.8,0.7-2.7,1.2c-1.8,0.8-3.2,2.1-4.4,3.6c-2,2.4-4,4.9-6.1,7.3c-0.5,0.5-1,1.1-1.6,1.4c-1.7,1-3.4,1.9-5.1,2.8
	c-2.1-0.2-3.8-0.8-5.3-2.1c-1.3-1.1-2.7-2.1-4.1-3.1c-0.5-0.4-0.9-0.7-1.3-1.2c-1.3-1.7-2.9-3-4.4-4.6c-0.9-0.9-1.7-1.8-2.7-2.6
	c-0.6-0.6-1.3-1.2-2-1.6c-0.7-0.4-1.5-0.6-2.2-0.6c-2.1,0-4.2,0.3-6.1,1.3c-1.5,0.8-2.8,1.6-3.8,3.1c-0.1,0.2-0.3,0.3-0.5,0.5
	c-0.3-0.6,0.1-1,0.2-1.5c0.1-0.6,0.2-1.2,0.4-1.7c0.1-0.5,0.2-1,0.4-1.5s0.3-1,0.4-1.5c0.2-0.6,0.3-1.2,0.4-1.7
	c0.1-0.5,0.3-1,0.4-1.6c1.1-0.8,2.3-1.3,3.6-1.3c1.8-0.1,3.5-0.1,5.3,0.3c0.7,0.2,1.4,0.3,2.1,0.6c2.1,1,4.3,2.1,6,3.7
	c2.6,2.4,5.6,3.2,9,3.5c1.9,0.2,3.8-0.1,5.7-0.4c2.6-0.5,4.9-1.7,6.5-3.8c2.8-3.4,6.2-6,9.9-8.3c1.2-0.8,2.5-1.4,3.8-2.1
	c1.1-0.6,2.4-0.7,3.6-0.7c0.8,0,1.5,0.4,2,1.1c1.4,2.1,2.8,4.2,4.2,6.2c0.3,0.4,0.5,0.8,0.8,1.1c0.4,0.6,0.9,1.2,1,1.9
	c0.1,0.4,0.3,0.7,0.8,0.6c0.3-0.2,0.1-0.5,0-0.7c-0.1-0.5,0-1,0.4-1.2c0.6-0.4,0.9-1.1,1.2-1.7c0.5-1.1,1.3-1.9,2.5-2.4
	c0.1,0,0.2-0.1,0.4-0.1c2.8-1,4-3.2,4.8-5.9c0.1-0.4,0.1-0.9,0.1-1.4c0-3.2,1.1-5.9,3.4-8.1c0.5-0.4,1-0.8,1.6-1.1
	c2.1-1,4.2-1.9,6.3-2.9c0.2-0.1,0.4-0.1,0.6-0.1c-0.1,0.7-0.6,1.1-0.9,1.5c-1.8,2.1-3,4.6-3.9,7.3c-0.1,0.4-0.2,0.8-0.3,1.1
	c-0.5,1.8,0.2,3.1,1.5,4.2c0.5,0.4,1,0.7,1.4,1c0.7,0.5,1.2,1.2,1.5,2c0.4,1.3,0.9,2.5,1.2,3.8c0.3,1.1-0.1,1.9-1,2.6
	c-0.8,0.6-1.8,0.9-2.7,1.2s-1.9,0.7-2.7,1.1c-1.2,0.5-1.8,1.5-1.9,2.8c-0.1,1,0.1,2,0.4,2.9c0.1,0.4,0.3,0.7,0.4,1
	c-0.2,0.6-0.5,0.8-1,0.9c-0.1,0.4-0.4,0.6-0.7,0.8c-2.7,1.5-4.2,4-5.1,6.8c-0.7,2-0.4,4.1,0.3,6c1,2.9,2.6,5.5,5.1,7.3
	c0.1,0.1,0.2,0.2,0.3,0.2c1.5,0.8,2.1,2.1,1.9,3.8c0,0.4,0,0.8,0,1.2c-0.1,1.5-0.9,2.7-2.2,3.6c-0.5,0.3-1,0.6-1.5,0.9
	c-1.4,0.9-2.8,1.4-4.5,1.4c-0.5-0.4-1-0.8-1.5-1.1c-0.5-0.3-1-0.6-1.6-0.8c-0.2-0.1-0.6-0.2-0.8-0.1c-1.3,0.8-2.4,0-3.6-0.2
	c-1-0.2-2-0.6-3.1-0.5c-0.1,0-0.2,0.1-0.3,0.2c0.7,0.9,2.8,2.8,3.9,3.5c-0.1-0.8-0.1-0.9-0.9-1.5c-0.4-0.4-0.9-0.8-1.3-1.1
	c0.1-0.1,0.1-0.2,0.1-0.2c0,0,0.1,0,0.2,0c2.4,0.7,4.8,1.3,7.2,2c0.2,0.7,0.1,1.1-0.4,1.2c-0.6,0.1-1.4,0.1-1.9,0.4
	c-1.5,0.7-3.1,1.5-4.5,2.4c-0.8,0.5-1.1,1.8-0.4,2.6c0.3,0.4,0.6,0.8,0.9,1.1c-0.1,0.7-0.6,0.9-1,0.9c-0.5,0-1-0.1-1.5-0.2
	c-1-0.3-1.9-0.2-2.9,0.1c-0.9,0.3-1.8,0.5-2.7,0.6c-1.9,0.2-2.9,1.4-3.6,3c-0.3,0.7-0.5,1.4-0.7,1.9c-0.7,0.4-1.3,0.3-1.9,0.2
	c-0.9-0.2-1.8,0.2-2.7-0.3c-0.8-0.4-1.7-0.6-2.6-0.9c-0.6-0.2-1.2-0.4-1.9-0.6c-1.4-0.3-2.7-0.1-3.9,0.8c-1,0.7-1.8,1.5-2.4,2.6
	c-0.2,0.4-0.6,0.7-0.8,1c-1-0.4-1.8-0.7-2.7-1c-1.9-0.5-3.9-0.3-5.8,0.1c-0.7,0.1-1.4,0.2-2.1,0.3c-2.2-2.4-4.8-3.3-7.8-3.3
	c-1.2,0-2.5,0.1-3.7,0.1c-1.2,0.1-2.3,0.6-3.1,1.6c-0.5,0.6-1,1.2-1.5,1.8c-0.4-0.1-0.3-0.4-0.2-0.6c0.5-1.8,0.1-3.4-1-4.8
	c-0.8-1.2-1.8-2.1-3.1-2.7c-1.3-0.7-2.7-0.8-4.2-0.4c-0.4,0.1-0.7,0.2-1.2,0.3c0-0.5,0-0.9-0.1-1.2c-0.7,0.1-0.4,0.7-0.8,1
	c-0.1-0.1-0.2-0.2-0.2-0.3c-0.1-1.5-0.9-2.6-2.1-3.4c-1.4-0.8-2.9-1.3-4.5-0.9s-3,1.2-4,2.6C63.6,142.1,63.3,141.8,63.5,141.4
	L63.5,141.4z M160.8,82.8c0,0.1,0,0.2,0,0.5c-0.6-0.5-1.1-0.9-0.7-1.9C160.4,81.9,160.6,82.4,160.8,82.8L160.8,82.8z M145.6,140.1
	c0.5,0.1,1,0.2,1.7,0.4c-1.2,0.4-2.1,0.3-3-0.2c0.1-0.6,0.6-0.4,0.9-0.5C145.3,139.8,145.5,140,145.6,140.1L145.6,140.1z
	 M145.3,139.7c0.7-0.7,1.6-0.7,2.6-0.3c-0.5,0.4-0.9,0.1-1.3,0.1C146.1,139.6,145.7,139.6,145.3,139.7L145.3,139.7z M154,176.8
	c-0.3,1.4-0.6,2-2,3.3C152,179.1,152.4,178.4,154,176.8z M156.9,175.2c0.4,0.1,0.2,0.4,0.1,0.6c-0.2,0.5-0.5,0.9-0.8,1.4
	c-1.2,1.6-2.3,3.2-3.1,5c-0.1,0.1-0.2,0.2-0.4,0.4c-0.2-0.4-0.3-0.7-0.5-1C152.9,180.3,154.9,177.5,156.9,175.2z M154,183.7
	c0.1-0.2,0.3-0.4,0.4-0.6c0.9-1.8,1.7-3.6,2.6-5.3c0.6-1.2,1.4-2.5,2.4-3.5c-0.2,0.5-0.3,1.1-0.5,1.6c-0.4,0.9-0.9,1.7-0.9,2.8
	c0,0.4-0.3,0.7-0.4,1.1c-0.9,1.7-1.8,3.4-2.7,5c-0.1,0.2-0.3,0.3-0.4,0.4c-0.8-0.5-0.8-0.5-1.1-1.7
	C153.5,183.5,153.7,183.6,154,183.7z M153,143c-0.6-0.1-1.1-0.2-1.8-0.4c0-0.3,0-0.5,0.1-0.9c0.6,0.2,1.1,0.4,1.5,0.7
	c0.5,0.3,0.9-0.1,1.4-0.2c0.6,0.5,1.1,1,1.7,1.4c0.1,0.1,0.1,0.2,0.1,0.5c-0.6,0-1.1-0.4-1.6-0.6C154,143.3,153.5,143.1,153,143
	L153,143z M149.7,138.6c1.7-0.1,2.9,0.6,4.1,1.6c-0.1,0.1-0.1,0.2-0.1,0.2c0,0-0.1,0.1-0.2,0C152.3,139.8,151,139.2,149.7,138.6z
	 M115.5,152.2c1.1-1.5,2.4-1.8,4-1.4c1.3,0.4,2.6,0.8,4,1.2c0.5,1,1,2.1,1.5,3.2c-0.5,1.6-1.1,3.2-1.6,4.9c-0.4,1.6-0.7,3.3-1.1,5.2
	c-0.3-0.2-0.6-0.3-0.7-0.5c-1.6-2-3.3-3.9-4.9-5.9c-1-1.2-1.6-2.7-2.1-4.2c-0.1-0.4-0.4-0.9,0.1-1.4c0.8,0.6,0.9,1.7,1.5,2.4
	c0.5,0.7,1,1.5,2,2.2C117.6,155.6,116,154.2,115.5,152.2L115.5,152.2z M123.1,193.6c0.9-1.7,1.8-3.5,2.7-5.3
	c0.4,0.1,0.3,0.5,0.3,0.8c0.1,2.6,0,5.3-0.6,7.8c-0.1,0.4-0.3,0.9-0.4,1.3c-0.3,1.1-1.1,1.6-2.1,1.7c-0.4,0.1-0.9,0-1.3-0.1
	c-0.6-0.1-1.1-0.4-1.4-0.9C121.1,197.2,122.1,195.4,123.1,193.6L123.1,193.6z M128.7,197c0.6-1.7,1.2-3.4,1.8-5
	c0.2-0.7,0.5-1.4,0.7-2.1c1.1-3.4,2.2-6.8,3.3-10.1c0-0.1,0.2-0.2,0.3-0.4c0.1,0.2,0.2,0.3,0.2,0.5c0,1.9,0.1,3.8,0,5.7
	c-0.1,2.2-0.4,4.3-0.8,6.5c-0.4,2.1-1,4.1-1.5,6.1c-0.2,0.7-0.4,1.4-1,1.9c-0.9,0.8-1.9,1.1-3.1,0.6c-0.4-0.2-0.8-0.3-1.3-0.5
	C127.9,199.1,128.3,198,128.7,197L128.7,197z M138.5,192.3c1.2-2.9,2.4-5.8,3.6-8.7c0.1,0,0.2,0,0.4,0.1c0,0.4,0,0.9-0.1,1.3
	c-0.6,3.4-1.3,6.9-2.4,10.2c-0.4,1.4-1,2.7-1.6,4c-0.2,0.5-0.6,1-0.9,1.5c-0.3,0.5-0.8,0.7-1.3,0.7c-0.6,0.1-1.2,0-1.6-0.6
	C135.6,197.9,137.3,195.3,138.5,192.3L138.5,192.3z M134.9,152.3c-1.1-0.8-2.3-1.5-3.5-2.3c-0.3-0.2-0.5-0.4-0.8-0.6
	c0.1-0.9,0.6-1.5,1.3-1.9c0.7,0.1,1.1,0.5,1.3,1.1c-0.6,0.5-1-0.4-1.6-0.3c0,0.1-0.1,0.3-0.1,0.3c0.3,0.3,0.7,0.6,1.1,0.9
	c2.2,1.2,4.3,2.8,6.1,4.6c0.1,0.1,0.2,0.1,0.3,0.1c-0.2-1.1-0.3-1.2-5.7-6.9c0.6-0.8,1.5-0.6,2.3-0.8c0.2,0,0.6,0.2,1.2,0.4
	l-1.6,0.2c0,0.2-0.1,0.4,0,0.5c1.5,1.8,2.7,3.7,4.3,5.4c0.2-0.2,0.4-0.3,0.5-0.4c0.2,0.3,0.4,0.6,0.7,1c0.4-0.3,0.7-0.5,1.1-0.7
	c-0.2-0.9-1.8-3.1-4.7-6.5c0.9-0.1,1.5,0.1,2,0.6c0.8,0.7,1.5,1.5,1.9,2.5c0.4,0.8,0.8,1.7,1.2,2.5c0.2,0.3,0.4,0.8,0.9,0.6
	c0.1-1.6-0.5-2.7-3-5.7c0.2-0.1,0.3-0.2,0.5-0.3c0.2-0.1,0.4-0.1,0.6-0.2c0.3,0.4,0.6,0.8,0.9,1.3c0.7,1.4,1.4,2.8,2,4.3
	c0.2,0.5,0.4,1.1,0.4,1.7c-0.1,1.4-0.3,2.8-0.9,4c-0.3-0.1-0.5-0.1-0.8-0.2c-0.7,0.9-1.4,1.8-2.2,2.8
	C139.7,156.8,137.6,154.3,134.9,152.3L134.9,152.3z M96.7,155.6c-0.4,0.5-0.8,1.2-1.3,1.8c-2.3,2.8-4.1,5.8-5.1,9.3
	c0,0.1-0.1,0.2-0.2,0.4c-0.4,0-0.5-0.4-0.6-0.6c-0.4-1.2-0.8-2.5-1.1-3.8c-0.2-0.9-0.4-1.8-0.6-2.7c-0.4-1.9-0.1-3.8-0.4-5.7
	c0.5-0.9,1.1-1.4,1.8-2c0.2,1.2,0,2.2-0.1,3.2c-0.1,1,0.2,1.9-0.1,3c0.7-0.3,0.7-0.7,0.7-1.1c0.2-1.7,0.3-3.4,0.5-5.1
	c0-0.2,0.2-0.5,0.3-0.8c1.2-0.1,2.5-0.1,3.8-0.2c-0.5,1.4-1,2.7-1.4,4c-0.4,1.2-0.7,2.5-0.6,4c0.6-0.4,0.6-0.9,0.7-1.2
	c0.1-0.4,0.2-0.9,0.3-1.4c0.1-0.4,0.3-0.9,0.4-1.3c0.1-0.4,0.2-0.9,0.4-1.3s0.3-0.9,0.5-1.3s0.4-0.8,0.6-1.2
	c1.8-0.3,3.5,0.3,4.9,1.5c0,0.6-0.5,0.7-0.8,1c-0.4,0.3-0.8,0.7-1.2,1C97.6,155.2,97.2,155.3,96.7,155.6L96.7,155.6z M103.9,201.5
	c-0.7,0.8-1.4,1.1-2.4,0.9c-0.7-0.1-1.4-0.4-2.1-0.5c-2.2-5.2-2.4-10.4-0.1-15.9c0.4,1.5,0.5,2.8,0.8,4.1c0.3,1.4,0.6,2.7,1,4
	c0.4,1.3,0.8,2.5,1.2,3.8C102.7,199.1,103.3,200.3,103.9,201.5L103.9,201.5z M105.3,198.7c0.2-1,0.7-2.2,1.3-2.9
	c0,0.1,0.1,0.1,0.1,0.1c0.3,1.5,0.6,3,0.9,4.5c-0.5,0.7-1.2,0.6-1.9,0.5C105.3,200.2,105.2,199.5,105.3,198.7L105.3,198.7z
	 M101.5,156c0.3-0.6,0.8-1.1,1.6-1.4c0.4,1.8,0.2,3.6,1,5.5c0.2-2.1-0.7-3.9-0.1-5.6c0.9-0.5,2-0.7,3.5-0.6c0.2,1.2-0.8,2.4-0.3,3.9
	c0.8-1.4,0.6-2.9,1.3-4c0.8-0.2,1.5,0.1,2.5,0.2c-1.6,2-2.7,4-3.6,6.2c-0.8,2.1-1.2,4.3-1.8,6.9C103.4,163.3,101.7,160,101.5,156
	L101.5,156z M116.3,193.3c0.5,1.8,1,3.6,1.4,5.4c0.1,0.5-0.1,1-0.6,1.3c-0.3,0.2-0.6,0.3-0.9,0.4c-0.2,0.1-0.5,0.1-0.8,0.1
	c-0.4-0.4-0.8-0.8-1.3-1.3C115.4,197.4,115.6,195.4,116.3,193.3L116.3,193.3z M78.1,156.3c1-3,1.3-6.2,3.4-8.7
	c1.6,1.1,2.7,2.3,2.3,4.3c-0.1,0.5,0,1,0,1.5c-0.7,0.6-1.4,1.2-2.1,1.9s-1.3,1.3-1.9,2c-0.6,0.7-1.1,1.5-1.7,2.2
	c-0.5,0.7-1,1.5-1.7,2.4c-0.1-0.5-0.2-0.7-0.2-0.9c-0.2-2.3-0.4-4.6-0.5-6.9c0-1.9,0.5-3.8,1-5.6c0.3-1,1-1.6,1.8-2
	c0.8-0.4,1.5,0,2.4,0.5c-1.5,2.1-2.6,4.4-2.9,6.8C78,154.6,77.6,155.4,78.1,156.3L78.1,156.3z M65.1,146.7c0-0.7,0.1-1.5,0.6-2.1
	c0.2-0.2,0.4-0.2,0.7,0c-0.1,0.5-0.3,1.1-0.4,1.6c0.7-0.4,0.9-1.1,1.3-1.7c0.3-0.4,0.5-0.9,0.9-1.5c0.2,0.8-0.3,1.2-0.4,1.7
	c-0.2,0.5-0.4,1-0.5,1.5c-0.2,0.4-0.3,0.9-0.4,1.3c-0.1,0.5-0.4,0.9-0.3,1.6c0.6-0.7,0.7-1.4,1-2.1c0.3-0.8,0.7-1.6,1-2.4
	c0.3-0.7,0.5-1.5,1.1-2.1c0.9-0.2,1.7,0.3,2.5,0.6c0.1,1.9-1.2,3.7-0.6,6c0.9-2,0.6-3.9,1.5-5.6c0.7,1,1,1.9,0.2,2.9
	c-0.2,0.2-0.3,0.6-0.4,0.9c0.3,0.6,0.5,1.1,0.8,1.7c-0.2,0.2-0.3,0.5-0.6,0.7c-2.6,2.6-4.5,5.6-5.7,9.1c-0.1,0.2-0.2,0.4-0.3,0.6
	c-0.2-0.2-0.4-0.4-0.5-0.6c-0.7-1.4-1.1-3-1.4-4.5c-0.2-1.1-0.3-2.2-0.5-3.3C64.3,149.6,64.5,148.1,65.1,146.7L65.1,146.7z
	 M75.8,182.3c-0.2,0-0.3,0.1-0.4,0c-0.7-0.4-1.3-1-1.8-1.6c0.8,0.2,1.5,0.5,2.1,1.1C75.8,181.8,75.8,182.1,75.8,182.3L75.8,182.3z
	 M40,151.1c-0.3-2.4-0.5-4.7-0.6-7.1c-0.1-2.7,0.1-5.4,0.2-8.1c0-1.1,0.2-2.3,0.3-3.6c0.8,1,0.8,2.2,1.2,3.2
	c1.5,4.2,3.2,8.2,5.1,12.2c2.2,4.6,4.8,9,7.8,13.1c2.5,3.3,5.2,6.5,7.9,9.6c1.8,2.1,3.8,4,6,5.7c0.6,0.4,1,0.9,1.4,1.6
	c0.5,0.8,1.3,1.5,2,2.1c1.7,1.6,3.4,3.1,5.1,4.6c0.1,0.1,0.1,0.2,0.1,0.5c-0.2-0.1-0.4,0-0.5-0.1c-1.8-1.5-3.7-3-5.5-4.4
	c-1.5-1.2-3-2.4-4.4-3.6c-0.2-0.1-0.4-0.2-0.9-0.4c0.5,1,1.2,1.4,1.8,1.9c0.5,0.5,1.1,1,1.6,1.5c0.6,0.5,1.2,1,1.8,1.5
	c0.5,0.5,1.1,1,1.6,1.5c0.6,0.5,1.2,1,1.8,1.5c0.6,0.5,1.1,0.9,1.7,1.4c0.6,0.5,1.2,1,1.7,1.5c0.5,1.1,0.2,2-0.1,2.9
	c-0.4,0.3-0.6,0.1-0.8-0.1c-1.4-1.3-2.8-2.6-4.2-3.9c-0.3-0.2-0.4-0.6-0.6-0.9c-1-0.4-1.7-1.2-2.4-1.9c-1.3-1.1-2.7-2.3-4-3.5
	c-0.1,0-0.1-0.1-0.2-0.1c-1.4,0-1.9-1.3-2.7-2c-0.1-0.1-0.3-0.2-0.6-0.3c0,0.2-0.1,0.5,0,0.6c0.3,0.4,0.7,0.8,1,1.2
	c0.2,0.3,0.5,0.5,0.5,1c0,0.2,0.3,0.6,0.5,0.8c2,2,4,4,5.9,6c1.9,2,3.8,4,5.8,5.9c0.3,0.3,0.4,0.6,0.7,1c-0.9,1.5-1.6,3-2.7,4.4
	c-0.6-0.1-1-0.6-1-1c0-0.8-0.5-1.2-0.9-1.7c-0.8-0.9-1.6-1.8-2.4-2.6c-1.9-2-3.7-4.1-5.3-6.3c-0.4-0.5-0.7-0.9-1.1-1.4
	c-0.1-0.2-0.4-0.2-0.9-0.6c0.3,0.6,0.3,0.8,0.5,1c0.4,0.7,1.1,1.3,1.2,2.2c0,0.3,0.4,0.7,0.7,1c2.8,3.3,5.3,6.7,8.3,9.7
	c0.1,0.1,0.2,0.3,0.3,0.5c-0.3,0.6-0.8,0.9-1.3,1.2c-0.4-0.6-0.8-1.3-1.2-1.9c-1.2-1.6-2.5-3.2-3.8-4.8c-2-2.5-4-5.1-6-7.6
	c-0.1-0.1-0.1-0.2-0.2-0.3c-2.5-2.3-4-5.4-5.7-8.2c-1.6-2.6-2.9-5.4-4.4-8.2c-0.3-0.5-0.5-1.1-1.2-1.3c0.4,1.5,1.2,2.6,1.7,3.9
	c0.6,1.2,1.3,2.5,1.9,3.7c0.7,1.2,1.4,2.4,2.1,3.6c-0.8,0.1-0.7-0.8-1.3-1c0,0.2-0.1,0.4-0.1,0.5c0.3,0.6,0.6,1.3,1,1.9
	c2.7,3.8,4.9,7.8,7.2,11.8c0.3,0.6,0.7,1.1,1,1.7c0,0-0.1,0.1-0.1,0.3c-0.3-0.4-0.6-0.7-0.8-1.1c-1.9-2.6-3.6-5.3-5.2-8.1
	c-0.4-0.7-0.8-1.4-1.3-2c-0.2-0.2-0.5-0.2-0.9-0.4c-0.8-1.2-1.1-2.8-2.3-4.3c0,0.7,0.1,1.1,0.1,1.4c-0.1,0-0.2,0-0.2-0.1
	c-1.8-3.6-3.7-7.1-5.4-10.8c-1.2-2.6-2.3-5.3-3.4-8c-0.1-0.3-0.3-0.6-0.4-0.9c-0.6-0.1-0.5,0.3-0.6,0.6c-0.5-0.3-0.4-0.8-0.5-1.2
	C40.8,156.7,40.4,153.9,40,151.1L40,151.1z M76.8,191.2c-0.2,0.6-0.3,1-0.4,1.4c-0.2,0-0.4,0-0.4,0c-0.4-0.6-0.8-1-1.2-1.5
	c-2.5-2.6-4.9-5.3-7.3-8c-0.2-0.2-0.3-0.4-0.5-0.6c0.1-0.1,0.1-0.2,0.2-0.1c0.1,0,0.1,0,0.2,0.1C70.4,185.4,73.6,188.3,76.8,191.2
	L76.8,191.2z M65.2,201.5c-1.2-1.2-2.3-2.4-3.1-3.8c-0.9-1.6-1.8-3.2-2.8-4.8c-0.2-0.3-0.2-0.6-0.4-0.9c2.9,3.6,5.5,7.3,8.8,10.4
	c-1.2,1.1-1.7,1.2-3.9,1c-0.6-0.8-1.3-1.7-1.9-2.6c-0.2-0.2,0-0.5,0.3-0.7c1,0.9,1.9,2.1,3,2.9c0.3-0.2,0.6-0.4,1-0.6
	C65.9,202.1,65.5,201.8,65.2,201.5L65.2,201.5z M61.1,198.4c-0.6-0.4-1-0.9-1.2-1.6c0.3,0.3,0.5,0.4,0.6,0.6
	C60.6,197.7,60.8,198,61.1,198.4z M65.1,197.9c0.3-0.1,0.4-0.2,0.7-0.4c0.8,0.8,1.5,1.5,2.2,2.3c0.4-0.3,0.2-0.5,0.1-0.7
	c-0.6-0.9-1.2-1.7-1.5-2.7c0.3,0.3,0.6,0.6,0.8,0.9c0.8,0.9,1.6,1.8,2.4,2.6c0.4,0.4,0.8,0.6,1.3,0.5c-0.5,0.9-1.3,1.4-2.2,1.9
	C67.4,201.1,66.3,199.4,65.1,197.9L65.1,197.9z M47.5,179.6c-0.9-2.1-1.8-4.2-2.5-6.4c-0.3-0.9-0.7-1.7-1-2.6
	c-0.6-1.9-1.1-3.9-1.7-5.9c-0.3-0.9-0.5-1.9-0.7-2.9c-0.1-0.3,0-0.6,0.1-0.9c0.1,0.1,0.3,0.3,0.3,0.4c2,5.3,4.3,10.5,6.8,15.6
	c0.2,0.4,0.3,0.7,0.5,1.1c-0.2,0.4-0.4,0.6-0.2,1.1c0.5,1.1,0.9,2.3,1.4,3.5c0.9,2.1,1.6,4.2,2.7,6.1c2.8,4.9,5.5,9.8,9.2,14
	c0.1,0.1,0.1,0.2,0.2,0.3c-0.5,0.3-0.9,0.1-1.2-0.3c-0.9-1.1-1.8-2.2-2.7-3.4C54.3,193.1,50.5,186.6,47.5,179.6L47.5,179.6z
	 M172,198.3c0.4,2.1-0.5,3.7-1.9,5.2c-0.6,0.6-1.1,1.1-1.7,1.7c-0.7,0.7-1.5,1.2-2.5,1.4c-1.1,0.3-2.2,0.9-3.4,1
	c-1.3,0.1-2.6-0.1-3.9-0.4c-2.8-0.5-5.5-1-8.3-1.6c-0.4-0.1-0.7-0.3-1.2-0.5c1.8-0.8,3.6-0.2,5.4-0.8c-0.7-0.9-1.4-1.1-2.3-1.1
	c-2-0.1-3.9,0.3-5.8,0.9c-2.6,0.9-5.1,1.9-7.7,2.9c-0.2,0.1-0.4,0.2-0.5,0.2c-1-0.1-1.5,0.6-2,1.2c-0.7,0.9-1.5,1.9-2.1,2.9
	c-0.5,0.8-1,1.6-1.3,2.4c-0.6,2.1-2.1,3.5-3.7,4.7c-0.7,0.5-1.4,0.9-2.2,1.4c-0.9-0.6-1.8-0.5-2.8-0.3c-3.4,0.6-6.8,1.3-10.2,1.9
	c-2.3,0.4-4.6,0.4-6.9-0.5c-2.2-0.8-4.3-1.8-6.7-2.4c-0.9-0.2-1.8-0.5-2.7-0.3c-0.6,0.1-1.2-0.1-1.7-0.4c-1.5-0.9-3.1-1.7-4.6-2.7
	c-0.7-0.4-1.2-1.1-1.7-1.6c-0.2-0.2-0.4-0.5-0.6-0.7c-0.7,0-0.8,0.4-0.6,0.8c0.3,0.6,0.8,1.2,1.2,1.8c-0.3,0.2-0.7,0.1-1-0.4
	c-0.9,0-2-0.1-3,0c-3,0.2-6,0.7-8.9,1.6c-0.3,0.1-0.6,0.2-0.9,0.4c-1.9,1-4,1.3-6.1,1.3c-2.2,0-4.1-0.8-5.1-3c0.1-0.4,0.2-0.7,0.3-1
	c-0.3-0.8-0.8-1.5-1.4-2.1c-0.9-0.9-1.9-1.7-3-2.1c-0.4-0.2-0.8-0.4-1.2-0.7c-1-0.9-1.6-2.1-1.3-3.5c0.2-1,0.3-1.9,1.1-2.8
	c0.5,0.4,1,0.7,1.5,1.1c2.4,2.2,5.2,2.1,8.1,1.2c3.5-1.2,5.8-3.7,7.7-6.8c1.8-2.9,2.6-6,2.9-9.4c0-0.4,0.2-0.8,0.3-1.3
	c-0.6-0.7-0.9-1.6-0.7-2.5c-0.4-0.8-1.2-1.2-1.2-2.1c0.4-0.3,0.6,0.1,0.8,0.2c0.8,0.5,1.5,1.1,2.2,1.7c0.7,0.5,1.3,1,1.3,2
	c0,0.1,0.2,0.3,0.3,0.5c0.1-0.1,0.2-0.2,0.3-0.2c0.1,0.1,0.2,0.1,0.2,0.2c0.5,0.5,1,1,1.3,1.6c0.3,0.6,0.4,1.3,0.6,1.9
	c1.3,3.9,3,7.6,5.1,11.1c0.3,0.6,0.6,1.2,0.8,1.8c0.2,0.6,0.5,1.1,0.9,1.5c1.5,1.3,3.8,1.5,5.3,0.4c0.5-0.4,0.9-0.9,1.2-1.5
	c0.3-0.5,0.2-1.1-0.2-1.8c-0.2,0.2-0.4,0.3-0.6,0.4c-0.2,0.2-0.3,0.4-0.5,0.6c-1,1.5-2.3,2.1-4.1,1.4c-2.2-4.3-4.5-8.6-5.9-13.3
	c-0.6-2.1-1.3-4.1-1.1-6.4c0.1-1-0.1-2-0.2-2.9c0.4-0.2,0.5,0.1,0.6,0.3c0.6,1.7,1.3,3.5,1.8,5.2c0.5,1.6,1.3,3.2,2.1,4.7
	c0.5,0.9,1,1.7,1.5,2.6c1.2,1.9,2.8,3.6,4.4,5.3c1.4,1.5,3.3,2.2,5.1,2.8c1.9,0.6,2.4,0.4,3.7-1.2c0.7-0.3,1.3,0,1.9,0.1
	c1,0.1,1.8-0.1,2.6-0.7c1.3-0.9,2.6-1.1,4-0.5c0.9,0.4,1.8,0.7,2.8,0.8c1.1,0.1,1.9-0.3,2.8-0.8c0.4-0.2,0.6-0.8,0.8-1.3
	c0.9,0.4,1.8,0.9,2.7,1.2c1.1,0.4,2-0.3,3-0.7c0.6,0.4,1.1,0.8,1.7,1.1c0.3,0.2,0.7,0.4,1,0.5c1.9,0.9,3.6,1.1,5.3-0.6
	c0.6,0.3,1.1,0.6,1.7,0.9c0.8,0.4,1.5,0.4,2.2-0.1c1.1-0.7,1.9-1.6,2.5-2.7c1.4-2.4,2.4-5,3.1-7.7c0.5-1.6,0.8-3.2,1.2-4.8
	c0.6-2.2,0.7-4.6,0.8-7c0.9,0.9,1.3,2.3,2.7,2.8c0.6-2-0.9-3.2-1.4-4.7c0-0.7,0.3-1.3,0.9-1.6c0.4,1,0.8,2,1.2,2.9
	c0.8,1.7,1.5,3.4,2.3,5c0.2,0.5,0.6,1.1,0.9,1.6c0.2,0.3,0.3,0.6,0.2,0.9c-0.2,0.8,0.2,1.4,0.8,1.9c1.1,0.9,2.3,1.5,3.6,2
	c2.9,1.1,6,1.9,9.1,2.6c0.3,0.1,0.6,0.2,1.1,0.3c-0.7,0.5-1.4,0.7-2,0.9c-2.1,0.4-4.1,0.9-6.2,0.8c-3.7-0.1-7.1-1.1-9.8-3.9
	c-1.2-1.2-1.8-2.7-2.2-4.4c-0.1-0.4-0.1-0.8-0.2-1.2c-0.2-1.6-0.2-1.7,0.5-3.1c-0.6-0.2-1-0.1-1.1,0.3c-0.2,0.7-0.4,1.4-0.4,2.1
	c0.1,3.3,1,6.3,3.6,8.5c0.8,0.7,1.7,1.3,2.6,1.7c3.3,1.6,6.7,2.3,10.3,1.7c2.2-0.4,4.1-1.3,5.6-3.1c1.1,0,2.4,0.5,3.5-0.4
	c-0.6-0.9-1.5-1.4-2.4-1.6c-1-0.2-2.1-0.5-3.1-0.6c-2.6-0.3-5.2-0.9-7.7-1.5c-1.2-0.3-2.3-0.8-3.4-1.4c0.2-0.4,0.4-0.3,0.7-0.3
	c2.1,0.5,4.2,0.9,6.3,1.4c2.6,0.6,5.3,0.7,8.1,0.4c0.3,0.2,0.6,0.6,1,0.8c0.3,0.2,0.7,0.3,1.1,0.4c0.3,1.5,0.7,2.9,0.8,4.3
	C172.2,196.5,171.8,197.5,172,198.3L172,198.3z M160.1,187.3c-0.6,0-1.2-0.2-1.8-0.6c0.4-0.3,0.7-0.6,1.1-0.8c0.3-0.3,0.7-0.6,1.2-1
	C160.3,185.9,160.2,186.6,160.1,187.3L160.1,187.3z M161.4,185.5c1-1.8,1.9-3.6,2.9-5.3c0.3-0.5,0.6-1,1-1.5
	c0.1,0.2,0.2,0.4,0.1,0.4c-0.8,1.7-1.6,3.4-2.6,5.1c-0.6,1.1-1.3,2.1-2,3.1c-0.2,0.3-0.6,0.3-0.8,0C160.8,187,161,186.2,161.4,185.5
	L161.4,185.5z M188,118.7c-0.1,2.6-0.1,5.3-0.5,7.9c-0.3,2.3-0.5,4.6-0.8,6.9c-0.8,4.9-1.6,9.8-3,14.5c-1,3.4-2,6.9-3.1,10.2
	c-1.6,4.6-3.2,9.1-5,13.6c-1.7,4.3-3.8,8.4-6.2,12.4c-0.3,0.4-0.7,0.8-1,1.2c-0.4,0.4-0.7,0.9-1.1,1.3c0.4,0.6,0.7,0.8,1,0.4
	c0.6-0.7,1.2-1.4,1.8-2.1c0.1-0.2,0.3-0.3,0.7-0.7c-0.2,1.6-0.9,2.8-1.4,4c-1.4,0.5-2.7,0.8-4.2,0.2c1.2-2.7,2.6-5.3,4.3-7.7
	c1.1-1.6,2-3.4,2.8-5.2c0.3-0.7,0.7-1.4,1-2.1c0.2-0.5,0.4-1,0.1-1.5c-0.2-0.4,0.1-0.8,0.2-1.1c1.2-2.7,2.4-5.5,3.5-8.2
	c0.3-0.6,0.4-1.2,0.6-1.9c0-0.1-0.2-0.3-0.4-0.6c-0.3,0.7-0.6,1.3-0.9,1.9c-1.7,3.8-3.4,7.6-5.1,11.4c-0.8,1.9-1.7,3.7-2.6,5.6
	c-0.8,1.7-1.7,3.4-2.8,5c-0.9,1.4-2,2.6-3.1,3.9c-0.3,0.4-0.7,0.3-1.1-0.1c6.1-9.6,10.5-19.9,14.7-30.6c-0.5,0-0.7,0-0.9,0
	c0-0.4,0-0.7,0-1.1c-0.4-0.1-0.6,0.1-0.7,0.3c-0.8,1.5-1.5,3.1-2.3,4.6c-1.4,2.7-2.7,5.4-4,8.2c-0.1,0.2-0.2,0.3-0.5,0.5
	c-0.2-1,0.6-1.7,0.5-2.5c-0.4-0.2-0.4,0.1-0.6,0.3c-0.9,2-1.9,4.1-2.8,6.1c-1.5,3.2-2.9,6.4-4.8,9.3c-1.2,1.9-1.2,1.9-3.2,3.5
	c-0.5-0.2-1.1-0.3-1.6-0.5c-0.2-0.1-0.3-0.2-0.6-0.4l1.5-0.2c1.5-1.8,2.4-4,4-6.1c0,0.7-0.1,1-0.1,1.4c0.7-0.5,0.7-0.5,0.9-0.9
	c0.8-1.8,1.6-3.6,2.4-5.4c3.2-7.4,6.4-14.9,9.7-22.4c0.2-0.4,0.3-0.7,0.4-1.1c0-0.1-0.1-0.3-0.2-0.7c-0.3,0.5-0.6,0.8-0.8,1.2
	c-1,2.1-1.9,4.2-2.9,6.3c-1.1,2.5-2.2,5.1-3.4,7.6c-0.6,1.4-1.4,2.7-2.1,4c-0.4-0.2-0.2-0.5-0.1-0.7c0.8-1.7,1.5-3.4,2.3-5.1
	c0.2-0.5,0.5-1,0.3-1.7c-0.1-0.2,0.1-0.6,0.2-0.9c1.6-3.3,3.2-6.7,4.8-10c0.7-1.5,1.4-3,2.1-4.5c0.2-0.5,0.4-1,0.5-1.4
	c-0.4-0.2-0.6,0-0.7,0.2c-0.5,1.1-1.1,2.1-1.6,3.2c-2.8,5.6-5.5,11.1-8.3,16.6c-0.2,0.3-0.5,0.6-0.7,0.9c0,0.8-0.5,1.5-0.8,2.2
	c-0.9,2-1.9,3.9-2.9,5.9c0-0.6-0.1-1.2,0.2-1.8c0.9-1.8,1.8-3.6,2.7-5.4c0.2-0.3,0.5-0.6,0.7-0.9c0.1-0.4,0.1-0.9,0.2-1.4
	c-0.8,0.4-1.3,0.8-1.7,1.4c-0.7,1.1-1.4,2.2-2.1,3.4c-0.3,0.5-0.6,1-1,1.5c-0.4-0.4-0.1-0.6,0-0.8c3.8-7.5,7.6-15,11.3-22.4
	c0.6-1.2,1.3-2.4,2-3.6c0.3-0.6,0.9-1.2,0.6-2c0.3-0.6,0.6-1.2,0.9-1.8c1-1.8,2-3.6,3.1-5.3c1.5-2.4,2.6-5.1,3.7-7.7
	c1.1-2.6,2.2-5.1,3.2-7.7c1.1-2.8,2.1-5.5,3.2-8.3c0.1-0.2,0.1-0.4,0.3-1c0.4,1.8,0.6,3,0.8,4.2C187.8,116,188.1,117.4,188,118.7
	L188,118.7z M169.7,169.5c1.3-3.1,2.8-6.1,4.2-9.1c0.4,0.3,0.1,0.6,0.1,0.8c-1,2.4-2.1,4.8-3.2,7.2
	C170.7,168.8,170.5,169.4,169.7,169.5z"/>
<path d="M175.2,95.3c-0.2-0.1-0.3-0.4-0.2-0.5c0.2-0.3,0.5-0.5,0.8-0.7c2.3-1.6,4.6-3.1,6.9-4.7c3.1-2.1,6.1-4.2,9.2-6.3
	c1.1-0.8,2.2-1.5,3.3-2.3c0.2-0.1,0.4-0.2,0.6-0.3c0.3,0.4,0,0.5-0.1,0.7c-0.8,0.7-1.6,1.4-2.4,2.1c-3.4,2.9-7,5.3-10.6,7.6
	C180.2,92.5,177.7,93.9,175.2,95.3L175.2,95.3z"/>
<path d="M31.6,105.1c0.1-0.2,0.2-0.3,0.2-0.3c0.5,0.1,1,0.1,1.4,0.2c2.5,0.7,5,1.4,7.6,2.2c2.2,0.7,4.3,1.7,6.4,2.8
	c0.1,0.1,0.3,0.2,0.4,0.3c0,0.5-0.2,0.4-0.3,0.4c-1.4-0.4-2.7-0.7-4.1-1.2c-2.8-0.9-5.7-2-8.5-2.9c-0.7-0.2-1.3-0.4-2-0.6
	c-0.3-0.1-0.6-0.3-0.9-0.5C31.8,105.6,31.8,105.3,31.6,105.1L31.6,105.1z"/>
<path d="M146.5,52.2c0.3,2.2-0.3,4-1.8,5.4c-1.4,1.4-3,2.5-5.1,2.7c-1.6,0.2-2.9-0.7-3.8-1.9c-0.1-0.1,0-0.5,0.2-0.7
	c0.1-0.1,0.4-0.2,0.5-0.1c0.4,0.2,0.7,0.6,1.1,0.8c0.8,0.5,1.6,0.4,2.4,0c1.4-0.8,2.4-1.8,3.2-3.2c0.4-0.8,0.7-1.7,0.2-2.6
	c-0.3-0.6-0.6-1.2-0.9-1.8c-0.4-0.8-0.2-1.3,0.6-1.5c1.3-0.4,2.2,0,2.8,1.2c0.1,0.2,0.2,0.5,0.3,0.7C146.4,51.6,146.5,52,146.5,52.2
	L146.5,52.2z"/>
<path d="M32.9,116.1c0.8-0.3,1.6,0.2,2.3,0.2c0.7,0,1.5,0.1,2.2,0.1c0.8,0,1.5,0.1,2.3,0.1c0.7,0,1.5,0,2.2,0c0.8,0,1.5-0.1,2.3-0.1
	c0.7,0,1.5,0.1,2.2,0.1c0.8,0,1.5,0,2.2-0.1c0.1,0.4,0,0.6-0.1,0.6c-0.5,0.1-0.9,0.3-1.4,0.3c-1-0.1-1.9,0.3-2.8,0.4
	c-1.3,0.1-2.5,0.2-3.8,0.2c-0.8,0-1.6,0-2.4-0.1c-0.2,0-0.4,0-0.6,0c-1.2-0.2-2.3-0.4-3.5-0.7c-0.3-0.1-0.6-0.2-0.8-0.3
	C33.1,116.7,33,116.5,32.9,116.1L32.9,116.1z"/>
<path d="M48.9,103.3c-0.2,0.3-0.4,0.1-0.6-0.1c-1.3-0.8-2.5-1.8-3.7-3.1c-1.8-1.9-3.5-4.2-5.2-6.5c-0.2-0.3-0.5-0.7-0.7-1.1
	c-0.1-0.2-0.1-0.4-0.2-0.6c0.1-0.4,0.3-0.4,0.4-0.3c0.3,0.3,0.6,0.6,0.9,0.9c2.8,3.7,5.8,6.9,8.7,9.9c0.1,0.1,0.2,0.3,0.3,0.4
	C48.9,103.1,48.9,103.2,48.9,103.3L48.9,103.3z"/>
<path d="M178.2,99.8c0.6-0.8,1.2-0.8,1.7-1c2.1-0.5,4.2-0.9,6.3-1.4c1.2-0.2,2.4-0.5,3.6-0.7c1-0.2,2-0.4,3-0.5c0.3-0.1,0.7,0,1.1,0
	c-0.1,0.5-0.3,0.5-0.6,0.6c-1.8,0.6-3.5,1.1-5.3,1.6c-2.1,0.6-4.2,0.9-6.3,1.1c-0.8,0.1-1.6,0.3-2.4,0.4
	C179,100,178.7,99.9,178.2,99.8z"/>
<path d="M173.4,90.8c-0.4-0.1-0.5-0.3-0.4-0.6c0.3-0.5,0.5-1,0.9-1.4c2.1-2.7,4.3-5.4,6.4-8.2c0.8-0.9,1.5-1.9,2.2-2.8
	c0.1-0.2,0.3-0.3,0.5-0.2c-0.7,1.8-4.2,6.7-6.3,9.3C175.6,88.3,174.7,89.9,173.4,90.8L173.4,90.8z"/>
<path d="M150.9,58.5c-0.6,0-1.1,0-1.5,0.1c-1.1,0.2-1.9,1.1-2.1,2.3c-0.1,0.8,0.3,1.4,1,1.7c0.6,0.3,1.3,0.3,1.9,0.2
	c0.9-0.2,1.8-0.2,2.6,0.1c0.2,0.5-0.1,0.8-0.4,1.1c-0.5,0.4-1.1,0.8-1.7,0.9c-1.2,0.1-2.3-0.1-3.4-0.8c-1.7-1.2-2-2.6-1-4.4
	c0.9-1.5,2.5-2.1,4.2-1.6C150.7,58.1,150.7,58.3,150.9,58.5L150.9,58.5z"/>
<path d="M56,62.2c0.3-0.1,0.7-0.2,1-0.2c0.9-0.1,1.6-0.6,2-1.5c0.2-0.3,0.4-0.7,0.5-1.1c0.5-1.1,0.4-1.4-0.5-2.2
	c-0.3-0.3-0.6-0.5-0.8-0.8c-0.1-0.2-0.2-0.5-0.1-0.7c0.1-0.2,0.4-0.4,0.6-0.4c1.7-0.1,3.2,1.5,3,3.1c-0.2,1.7-1,3-2.1,4.1
	c-0.8,0.8-2,1-3.1,0.7C56,63.2,55.7,62.9,56,62.2L56,62.2z"/>
<path d="M138.5,65.7c0.2-1.1,0.5-1.5,1.8-1.9c2.1-0.6,4-0.6,5.5,1.2c0,1.3-0.3,2.4-0.8,3.3c-1,0-1.4-0.7-1.7-1.5
	c-0.1-0.4-0.1-0.9-0.2-1.3C141.5,64.5,140.1,65.1,138.5,65.7L138.5,65.7z"/>
<path d="M67.9,59.5c-0.8-0.1-1.3-0.2-1.8-0.2c-1.4,0-2,1.2-1.5,2.5c0.4,0.9,1.1,1.4,2.2,1.7c0.6-0.3,1.4-0.5,2.1-0.8
	c0.3,0.2,0.3,0.4,0.2,0.7c-0.7,2-2.4,2-3.6,1.4c-1.2-0.6-1.9-1.6-2.3-2.8c-0.4-1.6,0.8-3.2,2.4-3.4C66.4,58.3,67.2,58.3,67.9,59.5
	L67.9,59.5z"/>
<path d="M62.3,66.4c-1.9-0.5-3.2,0.7-4.7,1.2c-0.4-0.3-0.2-0.6-0.1-0.7c1.2-1.2,2.5-1.8,4.2-1.9c1.8-0.1,3,1.6,2.4,3.4
	c-0.1,0.2-0.2,0.4-0.4,0.4c-0.2,0-0.5-0.1-0.7-0.2c-0.2-0.2-0.3-0.4-0.4-0.7s-0.1-0.5-0.1-0.8C62.6,66.9,62.5,66.7,62.3,66.4
	L62.3,66.4z"/>
<path d="M110.7,122.6c0.2-0.9,0.7-1.7,1.2-2.5c1.9-2.7,3.8-5.4,5.8-8c0.4-0.5,0.9-1,1.3-1.5c0.5-0.7,1.2-1.2,2.1-1.3
	c0.4-0.1,0.8-0.4,1.2-0.6c1.1-0.5,2.2-0.8,3.4,0.1c0.5,1.5-0.5,2.6-1,3.9c0.1,0.3,0.1,0.6,0.2,1c0.8-0.1,1.5-0.2,2.2-0.3
	c1.7-0.2,3.3,0,4.8,0.6c2.8,1,3.4,3.4,3.3,5.3c-0.1,1.5-0.6,3-1.3,4.3c-0.4,0.8-1,1.4-1.7,1.9c-2.3,1.7-4.8,2.4-7.6,2.2
	c-2.8-0.2-4.3-0.3-7.8-3.5c-0.3,0.2-0.7,0.3-1,0.5c-0.4,0.3-0.7,0.6-1.1,0.8c-0.5,0.3-1.1,0.4-1.7,0.1
	C112,124.8,111.2,123.9,110.7,122.6L110.7,122.6z M124.2,115.7c-1.9,2.7-4.3,4.7-6.3,7.2c0.2,0.2,0.2,0.4,0.4,0.6
	c1.5,1.3,3.2,1.9,5.2,2c2.2,0.1,4.3-0.4,6.1-1.6c2-1.3,2.9-3.2,2.6-5.6c-0.1-0.9-0.6-1.5-1.4-1.7c-0.6-0.2-1.3-0.3-1.9-0.4
	c-1.3-0.2-2.6-0.3-3.9-0.5C124.8,115.7,124.6,115.7,124.2,115.7L124.2,115.7z"/>
<path d="M89.7,113.4c0.2-0.7,0.7-0.8,0.9-1.4c0.2-0.8,1.6-1,2.4-0.4c0.4,0.2,0.7,0.6,1,0.9c0.9,1.1,1.8,2.2,2.7,3.4
	c2.2,2.9,4.4,5.9,6.6,8.9c0.3,0.5,0.7,1,1,1.5c0.4,0.6,0.5,1.2,0.5,1.9c0,0.4,0.1,0.8-0.3,1.1c-0.5,0.3-0.9,0-1.2-0.3
	c-0.6-0.5-1.1-1.1-1.6-1.7c-0.4-0.6-0.9-1.1-1.4-1.8c-0.3,0.3-0.5,0.4-0.6,0.7c-1.3,2.9-3.9,4-6.8,4.4c-2.2,0.3-4.4-0.1-6.4-1.3
	c-2.7-1.6-3.5-4.2-2.3-6.7c1.2-2.7,3.2-4.6,6.2-5.3c0.4-0.1,0.8-0.2,1.4-0.4C91.3,115.4,90,114.7,89.7,113.4L89.7,113.4z
	 M98.1,124.5c-1.7-2.4-3-4.9-5.3-6.7c-0.2,0-0.6,0-0.9,0.1c-0.6,0.2-1.3,0.4-1.8,0.7c-2.2,1.1-3.9,2.6-4.6,5.1
	c-0.4,1.3,0,2.3,0.9,3.2c0.3,0.3,0.7,0.6,1.1,0.8c1.8,0.8,3.6,1,5.5,0.6C95.1,127.7,96.7,126.5,98.1,124.5z"/>
<path d="M112.5,139.3c0.5,1,0.6,2.1,0,3.2c-0.7,1.2-1.6,2.4-2.9,2.8c-2.3,0.8-4.6,1-6.9,0c-0.8-0.3-1.5-0.8-2.1-1.4
	c-1.2-1.2-1.5-2.6-1.1-4.2c0.1-0.4,0.2-0.8,0.3-1.1c-0.2-0.5-0.7-0.3-1-0.4c-1.2-0.3-1.7-1.2-1.4-2.4c0.1-0.5,0.4-1,0.7-1.4
	c1-1,2.2-1.9,3.6-2.3c0.5-0.1,0.9-0.1,1.3,0.4c-0.6,0.9-1.7,0.8-2.4,1.6c-0.6,0.7-1.5,1.1-1.8,2.2c0.4,0,0.6,0.1,0.8,0.1
	c0.8-0.1,1.5-0.4,2.3-0.5c0.4-0.1,0.8-0.1,1.2-0.1c0.6,0,1.1,0.3,1.4,0.9c0.1,0.2,0.2,0.3,0.3,0.5c0.3,0.5,0.8,0.7,1.3,0.7
	c0.7-0.1,1.4-0.1,2.1-0.3c1.4-0.3,2.7-0.5,3.9,0.1c1.1-0.3,1.9-0.8,2.1-2c-0.3,0-0.6-0.1-0.8-0.1c-1.6,0-2.3-1.1-2.8-2.3
	c-0.3-0.6-0.2-1.3,0.4-1.8c1.2,0.3,1.2,1.6,2.2,2.3c0.5,0,1.1-0.1,1.7-0.1c0.7,0,1.1,0.4,1.2,1.1c0.2,1.4-0.3,2.5-1.4,3.3
	C114,138.5,113.2,138.9,112.5,139.3z M103.9,138.7c-0.4,0.5-0.8,1-1.1,1.5c-0.5,0.8-0.3,2,0.5,2.4c1.5,0.7,3.1,1.1,4.7,0.2
	c1.8-1,2-2.2,0.8-3.5c-0.1-0.1-0.3-0.3-0.5-0.4C106.9,139,105.4,139.4,103.9,138.7L103.9,138.7z M103.5,137.9
	c-0.9-0.4-1.3-0.4-1.8,0.1c-0.8,1-1.3,2.1-1,3.4c0.1,0.3,0.2,0.7,0.8,0.8C101,140.2,102.2,139,103.5,137.9L103.5,137.9z
	 M110.8,139.9c0,0.4-0.1,0.8-0.1,1.2c0,0.4-0.3,0.8-0.1,1.5c0.3-0.6,0.5-0.9,0.7-1.3C111.6,140.6,111.3,140.2,110.8,139.9
	L110.8,139.9z"/>
<path d="M123.5,133.1c-1.2-0.9-2.3-1.5-3.1-2.4c0.1-0.4,0.4-0.3,0.6-0.2c0.5,0.3,1,0.6,1.5,0.9c1.8,1.1,3.7,1.9,5.9,2.3
	c-0.4,0.4-0.9,0.5-1.3,0.4c-1.7-0.1-3.4-0.3-5.1-0.5c-1.5-0.2-3.6-1-5.1-1.9c0.2-0.4,0.5-0.2,0.8-0.1c1.6,0.5,3.1,0.9,4.7,1.4
	C122.8,133.1,123.1,133,123.5,133.1L123.5,133.1z"/>
<path d="M74.8,110.3c0,0.5-0.1,0.7-0.1,1.1c1.5-0.1,2.1-1.2,2.5-2.4c0.6,0.2,0.8,0.6,0.8,1.1c-0.1,1.1-0.8,1.8-1.8,2.2
	c-1,0.4-1.9,0.4-2.6-0.6C73.9,111.2,74.3,110.8,74.8,110.3z"/>
<path d="M82.1,112.8c-0.4,1.1-1,1.8-2,2c-1.3,0.2-2.1-0.5-2.1-1.9c0-0.9,0.9-1.7,1.9-1.8c0,0,0.1,0.1,0.2,0.2
	c-0.3,0.3-0.7,0.6-0.9,1c-0.2,0.2-0.3,0.6-0.2,0.9c0.1,0.4,0.7,0.6,1.2,0.4c0.4-0.2,0.8-0.4,1.2-0.5
	C81.6,112.9,81.9,112.8,82.1,112.8L82.1,112.8z"/>
<path d="M145.5,100.3c2.7,1.7,5.6,2.9,8.7,3.3c0.5,0.1,0.7,0.4,0.9,0.7l0,0c-1.3-0.2-2.6-0.3-3.9-0.6c-1.8-0.4-3.5-1.1-5-2.2
	c-0.4-0.3-0.8-0.5-0.9-1L145.5,100.3L145.5,100.3z"/>
<path d="M131.1,107.7c1.3-0.3,2.2-1.2,2.8-2.7c0.5,0,0.6,0.5,0.6,0.8c0.1,1.7-1.5,2.9-3.1,2.3C131.3,108.1,131.2,108,131.1,107.7
	L131.1,107.7z"/>
<path d="M137.5,106.2c0,0.5,0,1-0.1,1.5c0.4,0.8,1.1,0.8,1.7,1c-0.1,0.5-0.4,0.7-0.7,0.7c-0.6,0-1.2-0.1-1.6-0.6
	c-0.2-0.2-0.4-0.4-0.4-0.7c0-0.5,0.1-1,0.2-1.5c0.1-0.2,0.3-0.4,0.4-0.6C137.3,106.1,137.4,106.1,137.5,106.2L137.5,106.2z"/>
<path d="M145.6,93.8c0.7,0.5,0.9,1.4,1.4,2.1c0.5,0.6,0.9,1.3,1.4,1.9c-0.2,0.3-0.4,0.2-0.6,0.1c-1.4-0.8-1.9-2.2-2.4-3.7
	C145.4,94,145.5,93.9,145.6,93.8L145.6,93.8z"/>
<path d="M76.1,117.3c-0.5-0.5,0.1-1.8-1.4-1.7c0.3-0.5,0.4-0.8,0.6-1c0.4-0.3,0.7-0.1,1.1,0.1c0.6,0.4,0.7,1,0.6,1.6
	C76.8,116.9,76.7,117.4,76.1,117.3L76.1,117.3z"/>
<path d="M151.9,91.7c0.3,0.2,0.5,0.2,0.5,0.3c0.6,1.1,1.2,2.2,1.9,3.5c-0.9-0.3-1.1-0.4-1.5-0.9C152.3,93.7,151.8,92.9,151.9,91.7
	L151.9,91.7z"/>
<path d="M133.3,109.2c0.5-0.5,1-0.6,1.4-0.4c0.3,0.1,0.6,0.3,0.8,0.5c0.2,0.3,0.2,0.7,0.2,1.1c0,0.2-0.2,0.4-0.4,0.7
	c-0.3-0.5-0.6-0.8-0.9-1.2C134.1,109.6,133.7,109.4,133.3,109.2L133.3,109.2z"/>
<path d="M62.8,105.1c-0.2-0.6-0.3-0.8-0.3-1c0.1-1.1,0.6-2.1,1.7-3.6c0.1,0.2,0.3,0.3,0.2,0.4c-0.3,0.7-0.6,1.3-0.9,2
	C63.4,103.5,63.2,104.1,62.8,105.1z"/>
<path d="M95.9,135.4c-1,0.9-2.1,1.8-3.2,2.3c-0.5-0.1-0.4-0.4-0.2-0.6C93.5,136.4,94.6,135.8,95.9,135.4L95.9,135.4z"/>
<path d="M148.6,92.9c0.8,0.7,1.4,1.9,1.7,3.3C149.3,95.7,148.7,94.5,148.6,92.9z"/>
<path d="M65.2,105.2c-0.2-1.3,0.2-2.5,1.3-3.8C66.7,102.2,66.5,102.8,65.2,105.2z"/>
<path d="M68.7,102.6c-0.3,1.2-0.5,2.4-1.1,3.5c-0.5-0.1-0.3-0.4-0.2-0.6c0.2-1,0.4-1.9,0.6-2.9C68,102.4,68.3,102.2,68.7,102.6z"/>
<path d="M126,131.8c-0.7-0.3-1.3-0.7-1.7-1.4C125.6,130.2,126.2,130.7,126,131.8z"/>
<path d="M145.4,100.5c-0.8-0.6-1.5-1.4-2-2.4c0.8,0.4,0.8,0.4,2.1,2.3L145.4,100.5L145.4,100.5z"/>
<path d="M90.1,138.6c-0.5,0.9-1.2,0.9-2.1,0.9C88.6,138.8,89.2,138.5,90.1,138.6z"/>
<path d="M93.6,135c0,0.2,0.1,0.3,0,0.3c-0.2,0.5-0.6,0.8-1.2,0.7c0,0-0.1-0.1-0.1-0.1C92.5,135.2,93,135.1,93.6,135z"/>
<path d="M75,211.4c0.6-0.4,0.8-0.6,1.1-0.8c2.7-1.4,4.4-3.6,5.5-6.4c0.5-1.2,0.7-2.5,1-3.8c0.1-0.4,0.2-0.9,0.4-1.3
	c0-0.1,0.1-0.1,0.2-0.1c0.4,1.6,0.6,3.2,0,4.9c-1.1,3.2-3.2,5.5-6,7.2C76.7,211.4,76.1,211.6,75,211.4z"/>
<path d="M81.2,214.2c1.8-1.9,3.8-4.4,5.9-7.6c3.1-4.7,0.1-0.1,0.2-0.1c0.1,0.1,0.3,0.3,0.2,0.4c-0.8,3-2.2,5.5-4.8,7.2
	c-0.3,0.2-0.7,0.4-1.1,0.5C81.5,214.7,81.3,214.5,81.2,214.2L81.2,214.2z"/>
<path d="M157.2,201.6c-0.4,0.2-0.6,0.3-0.7,0.3c-3.1-0.1-6.1-0.7-8.8-2.3c-1.1-0.6-2.1-1.4-2.8-2.5c-0.2-0.4-0.5-0.8-0.2-1.3
	c0.2,0.1,0.4,0.1,0.4,0.3c1.1,1.9,2.9,2.8,4.8,3.5c1.6,0.6,3.2,1.1,4.9,1.4C155.5,201.1,156.3,201.4,157.2,201.6L157.2,201.6z"/>
<path d="M161.3,200.5c1-0.4,2-0.2,2.9-0.5c0.9-0.2,1.9-0.5,3-0.9c-0.2,0.4-0.2,0.7-0.4,0.9c-0.9,1-2.1,1.4-3.4,1.2
	C162.7,201.1,161.9,201.3,161.3,200.5L161.3,200.5z"/>
<path d="M73.9,195.6c-0.7-0.6-1.3-1.1-1.8-1.7c-1.6-1.7-3.1-3.4-4.8-5c-2.9-2.8-5.3-6-7.7-9.2c-1.5-2-2.9-4-4.4-6.1
	c-0.2-0.3-0.3-0.7-0.5-1c0.4-0.3,0.6,0,0.7,0.2c1,1.4,2.1,2.7,3.1,4.1c0.9,1.1,1.7,2.3,2.6,3.5c0.2,0.2,0.3,0.4,0.5,0.6
	c2.2,1.7,3.7,4.1,5.7,6c1.2,1.2,2.4,2.6,3.6,3.9c0.8,0.9,1.7,1.8,2.5,2.7c0.4,0.4,0.4,1.1,0.8,1.4C74.3,195.1,74.1,195.3,73.9,195.6
	L73.9,195.6z"/>
<path d="M71.6,185.1c-0.3-0.4-0.5-0.7-0.8-1.1c-2.8-2.8-5.6-5.5-8.4-8.3c-0.2-0.2-0.3-0.4-0.4-0.6c0.1-0.1,0.2-0.2,0.2-0.2
	c0.1,0,0.3,0.1,0.4,0.1c0.2,0.2,0.5,0.4,0.7,0.7c0.8,0.7,1.5,1.5,2.2,2.2c0.5,0.5,1,0.9,1.4,1.3c0.2,0.2,0.5,0.5,0.7,0.7
	c2.9,2.6,5.7,5.2,8.6,7.8c0,0,0,0.1,0,0.2c-0.3,0.2-0.5,0-0.7-0.1c-1-0.8-2-1.5-3-2.3C72.2,185.5,71.9,185.3,71.6,185.1L71.6,185.1
	L71.6,185.1z"/>
<path d="M121.2,157.4c-1-1.9-1.7-3.8-2.5-5.8c0.3,0.1,0.5,0.1,0.6,0.2c0.6,1.3,1.3,2.6,1.9,3.9C121.4,156.1,121.6,156.7,121.2,157.4
	L121.2,157.4z"/>
<path d="M68.6,150.2c-0.1-0.4-0.2-0.6-0.2-0.7c0.3-2,0.9-3.8,1.8-5.6c0.1-0.3,0.4-0.5,0.7-0.9c0.3,0.9-0.2,1.3-0.3,1.8
	c-0.2,0.6-0.5,1.2-0.7,1.9c-0.2,0.6-0.4,1.1-0.6,1.7C69.1,149,68.9,149.5,68.6,150.2z"/>
<path d="M129.1,119.5c-0.4,0.5-0.9,0.6-1.3,0.3c-0.3-0.2-0.6-0.5-0.8-0.8c-0.3-0.3-0.4-0.7-0.2-1.1c0.2-0.5,0.8-0.8,1.3-0.7
	c0.4,0.1,0.9,0.4,1,0.8C129.1,118.6,129.1,119,129.1,119.5L129.1,119.5z"/>
<path d="M89.2,122.1c0,0.3,0,0.4,0,0.4c-0.1,0.4-0.3,0.9-0.8,1c-0.5,0.1-1.1-0.4-1.2-1.1c-0.1-0.2,0-0.6,0.2-0.7
	c0.2-0.2,0.5-0.3,0.7-0.2C88.4,121.6,88.8,121.8,89.2,122.1L89.2,122.1z"/>
<path class="st2" d="M141.3,155.7l2.1-1.9l0.5-1.8l-2.3-4.5c0,0-1.3-2.7-9.7,0.1l-0.7,1.2c0,0,0.1,0.4,0.2,0.6s8.4,6.4,8.4,6.4
	L141.3,155.7L141.3,155.7z"/>
<path class="st2" d="M119.2,151.1c0,0-1.7,0.2-1.8,0.2s-2.1,0.1-2.6,2.4l3,5c0,0,1.6-0.1,1.8-0.1s2.7-1.3,2.8-1.5s0.1-1.9,0-2.2
	S119.2,151.1,119.2,151.1L119.2,151.1z"/>
<path class="st2" d="M109.2,154.4l-0.5-0.6c0,0-4.8-1.4-6.8,1.9l2.2,6.7l1.8-1.2l1.4-2.1L109.2,154.4L109.2,154.4z"/>
<path class="st2" d="M99.5,153.2c0,0-6.8-4.7-10.5-0.7l-0.5,6.7c0,0,0.3,1,0.4,1.1s3.1-0.2,3.3-0.3s1.6-1.5,1.7-1.6s1-2,1.5-2.6
	S99.5,153.2,99.5,153.2L99.5,153.2z"/>
<path class="st2" d="M82.9,151c0,0-0.1-4-2.8-4.2c-2.8-0.2-2.4,4.8-2.4,4.9s-0.7,2.5-0.8,2.9s0.2,1.3,0.3,1.6s1.3,0.7,1.4,0.7
	s0.6-0.2,1-0.6s1-1.5,1.3-2S82.9,151,82.9,151L82.9,151z"/>
<path class="st2" d="M71.8,149.1l1.8-0.1c0,0,1.8-3.3-0.6-5.5c-2.4-2.2-7-1.3-7.7,1.7c-0.7,3,1,8,1,8s2.1-0.5,2.2-0.5
	S71.8,149.1,71.8,149.1L71.8,149.1z"/>
<path class="st2" d="M137.4,138.9l9.2-1.4c0,0,5.2-0.8,6.7-3.4s-9.4-4.7-9.4-4.7l-9.2,2.1c0,0-0.4,2.7-0.3,3.2
	S137.4,138.9,137.4,138.9L137.4,138.9z"/>
<path d="M153.8,137.6l-4.3,0.6c0,0-3.2,0.3-3.3,0.3s-3.2,1.1-3.2,1.2s0.4,2,0.8,2.5s5.6,2.1,6.1,2.2s2.2,0.3,2.6,0.6s3,0.2,3.6-0.1
	s1.3-0.7,1.5-1.9S153.8,137.6,153.8,137.6L153.8,137.6z"/>
<path class="st2" d="M150.8,139c-0.2-0.3-5-0.3-6.9,3.7c0,0,0.9,2.5,2.5,3.4s4.5,3.6,7.5,6.2C153.9,152.3,155,146.2,150.8,139
	L150.8,139z"/>
<g id="Berwick_Logo_BIG">
	<g>
		<defs>
			<rect id="SVGID_1_" x="216.4" y="175" width="123.4" height="39.6"/>
		</defs>
		<clipPath id="SVGID_00000013157895267124178750000012959502510997254297_">
			<use xlink:href="#SVGID_1_"  style="overflow:visible;"/>
		</clipPath>
		<g style="clip-path:url(#SVGID_00000013157895267124178750000012959502510997254297_);">
			<rect x="307.2" y="175.3" class="st4" width="3.5" height="17.6"/>
			<g>
				<defs>
					<rect id="SVGID_00000134968854060920643750000002730996755376831152_" x="216.4" y="175" width="123.4" height="39.6"/>
				</defs>
				<clipPath id="SVGID_00000127006731380388622390000006439000016039162769_">
					<use xlink:href="#SVGID_00000134968854060920643750000002730996755376831152_"  style="overflow:visible;"/>
				</clipPath>
				<g style="clip-path:url(#SVGID_00000127006731380388622390000006439000016039162769_);">
					<path class="st4" d="M321,181.2c0-2.6-0.5-3.7-2.1-3.7c-1.8,0-2.2,1.8-2.2,6.8c0,5.3,0.7,6.3,2.2,6.3c1.3,0,2.2-0.7,2.2-4.5
						h3.5c0,3.8-0.9,7.1-5.6,7.1c-5.3,0-6-3.8-6-9.2s0.7-9.1,6.1-9.1s5.5,3.7,5.5,6.3L321,181.2L321,181.2z"/>
					<path class="st4" d="M321,181.2c0-2.6-0.5-3.7-2.1-3.7c-1.8,0-2.2,1.8-2.2,6.8c0,5.3,0.7,6.3,2.2,6.3c1.3,0,2.2-0.7,2.2-4.5
						h3.5c0,3.8-0.9,7.1-5.6,7.1c-5.3,0-6-3.8-6-9.2s0.7-9.1,6.1-9.1s5.5,3.7,5.5,6.3L321,181.2L321,181.2z"/>
					<polygon class="st4" points="330.3,175.3 330.3,182.3 330.3,182.3 334.8,175.3 338.6,175.3 333.9,182.8 339.2,192.9 
						335.2,192.9 331.6,185.7 330.3,187.7 330.3,192.9 326.7,192.9 326.7,175.3 					"/>
					<rect x="249.2" y="195.6" class="st6" width="1.7" height="8.4"/>
					<polygon class="st6" points="254.3,195.6 256.3,201.3 256.4,201.3 256.4,195.6 257.9,195.6 257.9,204 256,204 253.9,198.1 
						253.9,198.1 253.9,204 252.3,204 252.3,195.6 					"/>
					<path class="st6" d="M260.7,201.4v0.2c0,0.8,0.2,1.3,1.1,1.3c0.5,0,1-0.3,1-1.1c0-0.8-0.4-1.1-1.5-1.4
						c-1.5-0.5-2.2-1.1-2.2-2.5c0-1.6,1-2.5,2.6-2.5c1.5,0,2.6,0.6,2.6,2.2v0.3h-1.6c0-0.8-0.3-1.2-0.9-1.2c-0.8,0-1,0.5-1,1
						s0.1,0.8,0.9,1.1l1.3,0.6c1.3,0.6,1.6,1.2,1.6,2.2c0,1.8-1.1,2.6-2.9,2.6c-1.9,0-2.7-0.9-2.7-2.4v-0.3H260.7z"/>
					<path class="st6" d="M267.3,195.6v5.8c0,0.8,0.2,1.5,1,1.5s1-0.6,1-1.5v-5.8h1.7v5.8c0,2.2-1.3,2.7-2.7,2.7s-2.7-0.5-2.7-2.7
						v-5.8H267.3z"/>
					<path class="st6" d="M272.2,195.6h3.1c1.4,0,2.2,0.7,2.2,2.2c0,1.1-0.5,1.9-1.4,2.1v0.1c1.1,0.1,1.3,0.8,1.3,2.6
						c0,0.9,0,1.3,0.4,1.5v0.1h-1.8c-0.2-0.2-0.2-0.6-0.2-0.9l0-1.6c0-0.6-0.3-1.1-1-1.1h-0.9v3.5h-1.7L272.2,195.6L272.2,195.6
						L272.2,195.6z M273.9,199.2h0.7c0.8,0,1.3-0.4,1.3-1.2c0-0.8-0.4-1.1-1.2-1.1h-0.8L273.9,199.2L273.9,199.2z"/>
					<path class="st6" d="M280.6,195.6h2.1l2.2,8.4h-1.8l-0.4-1.8h-2.2l-0.4,1.8h-1.8L280.6,195.6L280.6,195.6z M280.8,200.8h1.6
						l-0.8-3.8L280.8,200.8L280.8,200.8z"/>
					<polygon class="st6" points="287.7,195.6 289.7,201.3 289.8,201.3 289.8,195.6 291.3,195.6 291.3,204 289.4,204 287.3,198.1 
						287.3,204 285.7,204 285.7,195.6 					"/>
					<path class="st6" d="M296.3,198.4c0-1.2-0.2-1.8-1-1.8c-0.9,0-1.1,0.9-1.1,3.2c0,2.5,0.4,3,1.1,3c0.6,0,1.1-0.3,1.1-2.1h1.7
						c0,1.8-0.5,3.4-2.7,3.4c-2.5,0-2.9-1.8-2.9-4.4s0.3-4.4,2.9-4.4s2.6,1.8,2.6,3L296.3,198.4L296.3,198.4L296.3,198.4z"/>
					<polygon class="st6" points="303.9,195.6 303.9,196.9 300.9,196.9 300.9,198.9 303.8,198.9 303.8,200.3 300.9,200.3 
						300.9,202.6 304,202.6 304,204 299.2,204 299.2,195.6 					"/>
					<path class="st6" d="M311.4,198c0-0.6-0.3-1.4-1-1.4c-0.8,0-1.1,0.8-1.1,2.9s0.2,3.3,1.1,3.3c0.4,0,1.1-0.4,1.1-1.3v-0.9h-1.1
						v-1.2h2.8v4.5H312v-0.8h0c-0.4,0.6-1,0.9-1.8,0.9c-2.1,0-2.5-1.6-2.5-4.5s0.6-4.3,2.8-4.3c1.8,0,2.6,1,2.6,2.7L311.4,198
						L311.4,198L311.4,198z"/>
					<path class="st6" d="M314.5,195.6h3.1c1.4,0,2.2,0.7,2.2,2.2c0,1.1-0.5,1.9-1.4,2.1v0.1c1.1,0.1,1.3,0.8,1.3,2.6
						c0,0.9,0,1.3,0.4,1.5v0.1h-1.8c-0.2-0.2-0.2-0.6-0.2-0.9l0-1.6c0-0.6-0.3-1.1-1-1.1h-0.9v3.5h-1.7L314.5,195.6L314.5,195.6
						L314.5,195.6z M316.2,199.2h0.7c0.8,0,1.3-0.4,1.3-1.2c0-0.8-0.4-1.1-1.2-1.1h-0.8L316.2,199.2L316.2,199.2z"/>
					<path class="st6" d="M323.9,195.4c2.5,0,2.9,1.8,2.9,4.4s-0.3,4.4-2.9,4.4s-2.9-1.8-2.9-4.4S321.4,195.4,323.9,195.4
						 M323.9,202.9c1,0,1.1-0.9,1.1-3.1s-0.2-3.1-1.1-3.1s-1.1,0.9-1.1,3.1S322.9,202.9,323.9,202.9"/>
					<path class="st6" d="M329.6,195.6v5.8c0,0.8,0.2,1.5,1,1.5s1-0.6,1-1.5v-5.8h1.7v5.8c0,2.2-1.3,2.7-2.7,2.7s-2.7-0.5-2.7-2.7
						v-5.8H329.6z"/>
					<path class="st6" d="M334.5,195.6h2.9c1.7,0,2.3,1.2,2.3,2.5c0,1.8-1.1,2.5-2.7,2.5h-0.9v3.4h-1.7L334.5,195.6L334.5,195.6
						L334.5,195.6z M336.2,199.4h0.7c0.7,0,1.1-0.4,1.1-1.2s-0.3-1.3-1.2-1.3h-0.7V199.4z"/>
					<path class="st4" d="M249.3,175.3h6c2.9,0,5,1.1,5,4.5c0,1.9-0.9,3.4-2.7,3.9v0.1c1.9,0.3,3.2,1.8,3.2,4.1
						c0,2.8-1.4,5.1-5.5,5.1h-6L249.3,175.3L249.3,175.3z M252.9,182.5h1c1.9,0,2.9-0.7,2.9-2.3s-0.8-2.3-2.6-2.3h-1.3V182.5
						 M252.9,190.3h1.4c1.7,0,2.8-0.6,2.8-2.7s-1.1-2.7-2.7-2.7h-1.5L252.9,190.3"/>
					<path class="st4" d="M249.3,175.3h6c2.9,0,5,1.1,5,4.5c0,1.9-0.9,3.4-2.7,3.9v0.1c1.9,0.3,3.2,1.8,3.2,4.1
						c0,2.8-1.4,5.1-5.5,5.1h-6L249.3,175.3L249.3,175.3z M252.9,182.5h1c1.9,0,2.9-0.7,2.9-2.3s-0.8-2.3-2.6-2.3h-1.3V182.5
						 M252.9,190.3h1.4c1.7,0,2.8-0.6,2.8-2.7s-1.1-2.7-2.7-2.7h-1.5L252.9,190.3"/>
					<polygon class="st4" points="272.6,175.3 272.6,178.2 266.3,178.2 266.3,182.3 272.3,182.3 272.3,185.3 266.3,185.3 266.3,190 
						272.9,190 272.9,192.9 262.8,192.9 262.8,175.3 					"/>
					<path class="st4" d="M274.6,175.3h6.6c2.9,0,4.7,1.5,4.7,4.6c0,2.3-0.9,3.9-2.9,4.4v0.1c2.4,0.3,2.8,1.6,2.9,5.4
						c0,1.8,0.1,2.8,0.8,3.2v0.1h-3.9c-0.4-0.5-0.4-1.1-0.5-1.8l-0.1-3.4c0-1.4-0.7-2.2-2.1-2.2h-1.9v7.4h-3.5L274.6,175.3
						L274.6,175.3z M278.2,183h1.5c1.7,0,2.7-0.7,2.7-2.7c0-1.6-0.9-2.4-2.5-2.4h-1.7L278.2,183L278.2,183L278.2,183z"/>
					<polygon class="st4" points="287.2,175.3 290.7,175.3 292.6,188.3 292.7,188.3 294.7,175.3 298.2,175.3 300.2,188.3 
						300.3,188.3 302.2,175.3 305.6,175.3 302.4,192.9 298.4,192.9 296.5,180.1 296.4,180.1 294.5,192.9 290.5,192.9 					"/>
					<rect x="307.2" y="175.3" class="st4" width="3.5" height="17.6"/>
					<rect x="307.2" y="175.3" class="st4" width="3.5" height="17.6"/>
					<path class="st4" d="M228.3,193c-0.7-0.5-2.1-0.8-4-0.8h-2.8v6.4h2.8c1.8,0,3.1-0.2,3.9-0.7s1.1-1.3,1.1-2.5
						C229.3,194.4,229,193.5,228.3,193"/>
					<path class="st4" d="M227.9,185.5c0.6-0.6,0.8-1.2,0.8-2.2c0-0.8-0.3-1.4-0.8-2.1c-0.5-0.6-1.9-0.9-4.2-0.9h-2.3v5.9h2.8
						C226.1,186.3,227.3,186,227.9,185.5"/>
					<path class="st4" d="M244.3,175.3h-6.1c0.6,0.4,1.2,0.9,1.7,1.5c1.2,1.4,1.8,3,1.8,4.9s-0.6,3.3-1.7,4.4
						c-1.1,1.1-2.6,1.9-4.2,2.3c2.3,0.7,4,1.8,5.3,3.2c1.2,1.5,1.9,3.1,1.9,4.9c0,2.2-0.7,4-2.1,5.6c-0.6,0.7-1.3,1.2-2.2,1.7h5.7
						L244.3,175.3L244.3,175.3L244.3,175.3z"/>
					<path class="st7" d="M272.5,211.5h-1l-0.2,0.6v0.1c0,0,0,0.1,0,0.1c0,0,0.1,0.1,0.2,0.1c0,0,0,0.1,0,0.1v0.1h-1v-0.1
						c0,0,0-0.1,0-0.1c0.1,0,0.2-0.1,0.2-0.1c0,0,0.1-0.1,0.1-0.1l1.1-2.6c0,0,0-0.1,0.1-0.1h0.1l1.1,2.7c0,0,0,0.1,0.1,0.1
						c0,0.1,0.1,0.1,0.2,0.1c0,0,0,0.1,0,0.1v0.1h-1.2v-0.1l0-0.1c0.1,0,0.1-0.1,0.2-0.1s0-0.1,0-0.1v-0.1L272.5,211.5L272.5,211.5z
						 M272.4,211.3l-0.4-1l-0.4,1H272.4z"/>
					<path class="st7" d="M276.7,211.5v-1.6c0,0,0-0.1,0-0.1s-0.1-0.1-0.2-0.1c0,0,0-0.1,0-0.1v-0.1h1v0.1c0,0,0,0.1,0,0.1
						c-0.1,0-0.2,0.1-0.2,0.1s0,0.1,0,0.1v2.7h-0.1c0,0,0-0.1-0.1-0.1l-1.8-2.2v2c0,0,0,0.1,0,0.1c0,0,0,0.1,0.1,0.1s0.1,0,0.1,0.1
						h0v0.1h-0.9v-0.1h0c0.1,0,0.2-0.1,0.2-0.1c0-0.1,0-0.1,0-0.1v-2.3c0,0,0-0.1,0-0.1c0-0.1-0.1-0.1-0.2-0.1c0,0,0-0.1,0-0.1v-0.1
						h0.8c0,0,0,0,0.1,0.1L276.7,211.5L276.7,211.5z"/>
					<path class="st7" d="M280.4,212.1L280.4,212.1c0,0.1,0,0.1,0,0.1c0,0,0,0.1,0.1,0.1s0.1,0,0.1,0.1c0,0,0,0.1,0,0.1v0.1h-1.2
						v-0.1c0,0,0-0.1,0-0.1s0.1,0,0.1-0.1c0,0,0-0.1,0.1-0.1l0-0.1v-2.5c0,0,0-0.1,0-0.1c0,0,0-0.1-0.1-0.1s-0.1,0-0.1-0.1
						c0,0,0-0.1,0-0.1v-0.1h1.2v0.1c0,0,0,0.1,0,0.1s-0.1,0-0.1,0.1c0,0,0,0.1-0.1,0.1l0,0.1V212.1z"/>
					<path class="st7" d="M283.9,211.5v-1.6c0,0,0-0.1-0.1-0.1c0-0.1-0.1-0.1-0.2-0.1c0,0,0-0.1,0-0.1v-0.1h1v0.1c0,0,0,0.1,0,0.1
						c-0.1,0-0.2,0.1-0.2,0.1c0,0.1,0,0.1,0,0.1v2.7h-0.1c0,0,0-0.1-0.1-0.1l-1.8-2.2v2c0,0,0,0.1,0,0.1c0,0,0,0.1,0.1,0.1
						s0.1,0,0.1,0.1h0v0.1h-0.9v-0.1h0c0.1,0,0.2-0.1,0.2-0.1c0-0.1,0-0.1,0-0.1v-2.3c0,0,0-0.1,0-0.1c0-0.1-0.1-0.1-0.2-0.1
						c0,0,0-0.1,0-0.1v-0.1h0.8c0,0,0,0,0.1,0.1L283.9,211.5L283.9,211.5z"/>
					<path class="st7" d="M286.9,209.8v2.5c0,0,0,0.1,0,0.1c0,0,0,0.1,0.1,0.1s0.1,0,0.1,0.1c0,0,0,0.1,0,0.1v0.1H286v-0.1l0-0.1
						c0.1,0,0.2-0.1,0.2-0.1c0-0.1,0-0.1,0-0.1v-2.4H286c-0.1,0-0.1,0-0.2,0.1c0,0-0.1,0.1-0.1,0.1c0,0.1-0.1,0.1-0.1,0.1
						c0,0.1-0.1,0.1-0.1,0.2s0,0.1,0,0.1h-0.1c0-0.1,0-0.1,0-0.2s0-0.1,0-0.2s0-0.1,0-0.2v-0.1c0,0,0-0.1,0.1-0.1h2.5
						c0,0,0,0,0.1,0.1v0.1c0,0,0,0.1,0,0.2c0,0.1,0,0.1,0,0.2c0,0.1,0,0.1,0,0.2h-0.1c0,0,0,0-0.1-0.1c0-0.1-0.1-0.1-0.1-0.2
						c0-0.1-0.1-0.1-0.1-0.1c0-0.1-0.1-0.1-0.1-0.1c0,0-0.1-0.1-0.2-0.1L286.9,209.8L286.9,209.8L286.9,209.8z"/>
					<path class="st7" d="M289.7,209.8v1.1h0.6c0,0,0.1-0.1,0.1-0.1c0-0.1,0-0.1,0-0.2c0-0.1,0-0.1,0-0.1h0.1v0.9h-0.1
						c0,0-0.1,0-0.1-0.1c0-0.1,0-0.2,0-0.2c0,0,0-0.1-0.1-0.1h-0.6v1c0,0,0,0.1,0.1,0.1c0.1,0,0.2,0.1,0.4,0.1h0.2
						c0.1,0,0.2,0,0.2-0.1c0-0.1,0.1-0.1,0.2-0.1c0-0.1,0.1-0.1,0.1-0.1c0-0.1,0.1-0.1,0.1-0.2l0-0.1h0c0,0,0,0,0,0.1v0.1l0,0.1
						c0,0.1,0,0.1,0,0.1v0.2c0,0,0,0.1,0,0.1v0.1c0,0,0,0.1-0.1,0.1h-2.2v-0.1c0,0,0-0.1,0-0.1c0.1,0,0.2-0.1,0.2-0.1
						c0-0.1,0.1-0.1,0.1-0.1v-2.3l0-0.1c0,0,0-0.1-0.1-0.1s-0.1,0-0.1-0.1c0,0,0-0.1,0-0.1v-0.1h2.1c0,0,0,0,0.1,0.1
						c0,0.1,0,0.1,0,0.1c0,0.1,0,0.1,0,0.2c0,0.1,0,0.1,0,0.1c0,0.1,0,0.1,0,0.2h-0.1c0,0,0,0-0.1-0.1c0-0.1-0.1-0.1-0.1-0.2
						c0-0.1-0.1-0.1-0.1-0.1c0-0.1-0.1-0.1-0.1-0.1h-1L289.7,209.8L289.7,209.8z"/>
					<path class="st7" d="M294.5,212.5c-0.1,0-0.1,0.1-0.2,0.1s-0.1,0-0.2,0.1h-0.5c-0.3,0-0.5-0.1-0.7-0.1
						c-0.2-0.1-0.4-0.2-0.5-0.3s-0.2-0.3-0.3-0.5c0-0.2-0.1-0.4-0.1-0.6c0-0.2,0-0.4,0.1-0.6c0-0.2,0.1-0.4,0.3-0.5
						c0.1-0.1,0.3-0.3,0.5-0.4s0.4-0.1,0.6-0.1c0.2,0,0.4,0,0.5,0.1s0.4,0.1,0.5,0.1c0,0.1,0,0.2,0,0.3c0,0.1,0,0.2,0.1,0.4h-0.1
						c0,0,0,0,0-0.1c0-0.2-0.2-0.4-0.3-0.4c-0.1-0.1-0.3-0.1-0.5-0.1c-0.2,0-0.3,0.1-0.4,0.1c-0.1,0.1-0.2,0.1-0.3,0.2
						s-0.1,0.2-0.2,0.4c0,0.1,0,0.3,0,0.5s0,0.4,0.1,0.6c0,0.2,0.1,0.3,0.2,0.5s0.2,0.2,0.4,0.3c0.1,0.1,0.3,0.1,0.5,0.1h0.2
						c0,0,0.1,0,0.1-0.1v-0.6c0-0.1,0-0.1,0-0.2c0-0.1-0.1-0.1-0.2-0.1c-0.1,0-0.1,0,0-0.1v-0.1h1.3v0.1l0,0.1
						c-0.1,0-0.2,0.1-0.2,0.1c0,0.1,0,0.1,0,0.1v0.8c0,0,0,0.1,0,0.1C294.6,212.5,294.5,212.5,294.5,212.5"/>
					<path class="st7" d="M296.8,211.2h-0.2v1c0,0.1,0,0.1,0.1,0.1c0,0.1,0.1,0.1,0.3,0.1c0,0,0,0.1,0,0.1v0.1h-1.3v-0.1
						c0,0,0-0.1,0-0.1s0.1,0,0.1-0.1c0,0,0.1,0,0.1-0.1l0-0.1v-2.3c0,0,0-0.1,0-0.1s-0.1-0.1-0.3-0.1c0,0,0,0,0-0.1v-0.1h1.2
						c0.1,0,0.3,0,0.4,0.1c0.1,0.1,0.2,0.1,0.3,0.2s0.1,0.1,0.2,0.3c0,0.1,0.1,0.2,0.1,0.3c0,0.1,0,0.3-0.1,0.5
						c-0.1,0.1-0.2,0.2-0.4,0.3l0.7,1.1c0,0.1,0.1,0.1,0.2,0.2c0.1,0.1,0.1,0.1,0.2,0.1h0v0.1h-0.6c0,0-0.1-0.1-0.2-0.1
						c0-0.1-0.1-0.1-0.2-0.2L296.8,211.2L296.8,211.2z M296.7,210.9c0.1,0,0.2,0,0.3-0.1c0.1,0,0.1-0.1,0.2-0.1
						c0-0.1,0.1-0.1,0.1-0.2c0-0.1,0-0.2,0-0.3c0-0.2,0-0.3-0.1-0.5c-0.1-0.1-0.2-0.2-0.5-0.2h-0.1L296.7,210.9L296.7,210.9
						L296.7,210.9L296.7,210.9z"/>
					<path class="st7" d="M300.1,212.1L300.1,212.1c0,0.1,0,0.1,0,0.1c0,0,0,0.1,0.1,0.1s0.1,0,0.1,0.1c0,0,0,0.1,0,0.1v0.1h-1.2
						v-0.1c0,0,0-0.1,0-0.1s0.1,0,0.1-0.1c0,0,0-0.1,0.1-0.1l0-0.1v-2.5c0,0,0-0.1,0-0.1c0,0,0-0.1-0.1-0.1s-0.1,0-0.1-0.1
						c0,0,0-0.1,0-0.1v-0.1h1.2v0.1c0,0,0,0.1,0,0.1s-0.1,0-0.1,0.1c0,0,0,0.1-0.1,0.1l0,0.1V212.1z"/>
					<path class="st7" d="M302.9,209.8v2.5c0,0,0,0.1,0,0.1c0,0,0,0.1,0.1,0.1s0.1,0,0.1,0.1c0,0,0,0.1,0,0.1v0.1H302v-0.1l0-0.1
						c0.1,0,0.2-0.1,0.2-0.1c0-0.1,0-0.1,0-0.1v-2.4H302c-0.1,0-0.1,0-0.2,0.1c0,0-0.1,0.1-0.1,0.1c0,0.1-0.1,0.1-0.1,0.1
						c0,0.1-0.1,0.1-0.1,0.2s0,0.1,0,0.1h-0.1c0-0.1,0-0.1,0-0.2s0-0.1,0-0.2s0-0.1,0-0.2c0-0.1,0-0.1,0-0.1c0-0.1,0-0.1,0.1-0.1
						h2.5c0,0,0,0,0.1,0.1v0.1c0,0,0,0.1,0,0.2c0,0.1,0,0.1,0,0.2c0,0.1,0,0.1,0,0.2h-0.1c0,0,0,0-0.1-0.1c0-0.1-0.1-0.1-0.1-0.2
						c0-0.1-0.1-0.1-0.1-0.1c0-0.1-0.1-0.1-0.1-0.1c0,0-0.1-0.1-0.2-0.1L302.9,209.8L302.9,209.8L302.9,209.8z"/>
					<path class="st7" d="M305.7,211.3l-0.7-1.4c0,0-0.1-0.1-0.1-0.1c0-0.1-0.1-0.1-0.2-0.1c0,0,0-0.1,0-0.1v-0.1h1.2v0.1
						c0,0,0,0.1,0,0.1c-0.1,0-0.1,0-0.2,0.1c0,0,0,0.1,0,0.1s0,0,0,0.1l0.5,1.1l0.5-1c0,0,0-0.1,0-0.1s0-0.1,0-0.1
						c0,0-0.1-0.1-0.2-0.1c0,0,0-0.1,0-0.1v-0.1h0.9v0.1c0,0,0,0.1,0,0.1c-0.1,0-0.2,0.1-0.2,0.1c0,0.1-0.1,0.1-0.1,0.1l-0.7,1.4v1
						l0,0.1c0,0,0,0.1,0.1,0.1s0.1,0,0.2,0.1h0v0.1h-1.3v-0.1h0c0,0,0.1,0,0.1-0.1c0,0,0.1-0.1,0.1-0.1c0,0,0-0.1,0-0.1L305.7,211.3
						L305.7,211.3L305.7,211.3z"/>
					<path class="st7" d="M316.6,212.6c-0.3,0-0.5-0.1-0.7-0.1c-0.2-0.1-0.4-0.2-0.5-0.3c-0.1-0.1-0.2-0.3-0.3-0.5
						c0-0.2-0.1-0.4-0.1-0.6c0-0.2,0-0.4,0.1-0.6c0-0.2,0.1-0.4,0.3-0.5c0.1-0.1,0.3-0.3,0.5-0.4c0.2-0.1,0.5-0.1,0.7-0.1
						c0.1,0,0.3,0,0.4,0.1c0.1,0,0.3,0.1,0.5,0.1c0,0.1,0,0.2,0,0.3c0,0.1,0,0.2,0.1,0.4h-0.1l0-0.1c0-0.1-0.1-0.2-0.1-0.2
						c0-0.1-0.1-0.1-0.1-0.2c0-0.1-0.1-0.1-0.2-0.1s-0.2-0.1-0.3-0.1c-0.2,0-0.3,0.1-0.4,0.1c-0.1,0.1-0.2,0.1-0.3,0.2
						s-0.1,0.2-0.2,0.4c0,0.1,0,0.3,0,0.5s0,0.4,0.1,0.6c0,0.2,0.1,0.3,0.2,0.5s0.2,0.2,0.3,0.3c0.1,0.1,0.3,0.1,0.4,0.1
						s0.2,0,0.3-0.1c0.1,0,0.1-0.1,0.2-0.1c0-0.1,0.1-0.1,0.1-0.2c0-0.1,0.1-0.1,0.1-0.3c0-0.1,0-0.1,0-0.1h0.1c0,0,0,0.1,0,0.2
						c0,0.1,0,0.1,0,0.2s0,0.1,0,0.2c0,0.1,0,0.1,0,0.2c-0.1,0.1-0.3,0.1-0.5,0.1C316.9,212.5,316.7,212.5,316.6,212.6"/>
					<path class="st7" d="M318.5,211c0-0.2,0-0.4,0.1-0.6c0.1-0.2,0.2-0.4,0.3-0.5s0.3-0.2,0.5-0.3c0.2-0.1,0.4-0.1,0.6-0.1
						s0.4,0.1,0.6,0.1c0.2,0.1,0.4,0.2,0.5,0.3c0.1,0.1,0.2,0.3,0.3,0.5c0.1,0.2,0.1,0.4,0.1,0.6c0,0.2,0,0.4-0.1,0.6
						c-0.1,0.2-0.2,0.4-0.3,0.5s-0.3,0.2-0.5,0.3c-0.2,0.1-0.4,0.1-0.6,0.1s-0.4-0.1-0.6-0.1c-0.2-0.1-0.4-0.2-0.5-0.3
						c-0.1-0.1-0.2-0.3-0.3-0.5C318.5,211.5,318.5,211.3,318.5,211 M320,212.3c0.1,0,0.2-0.1,0.4-0.1c0.1-0.1,0.2-0.1,0.3-0.2
						c0.1-0.1,0.1-0.2,0.2-0.3c0-0.1,0-0.3,0-0.4c0-0.2,0-0.4,0-0.6c0-0.2-0.1-0.3-0.2-0.5s-0.2-0.2-0.3-0.3
						c-0.1-0.1-0.3-0.1-0.5-0.1c-0.1,0-0.2,0.1-0.3,0.1c-0.1,0.1-0.2,0.1-0.3,0.2c-0.1,0.1-0.1,0.2-0.2,0.3c0,0.1,0,0.3,0,0.4
						c0,0.2,0,0.4,0,0.6c0,0.2,0.1,0.4,0.2,0.5s0.2,0.2,0.3,0.3C319.8,212.3,319.9,212.3,320,212.3"/>
					<path class="st7" d="M325.1,209.6L325.1,209.6l0.8-0.1v0.1c0,0,0,0.1,0,0.1s-0.1,0-0.1,0.1c0,0-0.1,0.1-0.1,0.1l0,0.1v0.6
						c0,0.2,0,0.3,0,0.5c0,0.2,0,0.4,0,0.6v0.8c0,0,0,0.1,0,0.1c0,0,0,0.1,0.1,0.1s0.1,0,0.1,0.1c0,0,0,0.1,0,0.1v0.1h-1.1v-0.1h0
						c0.1,0,0.2-0.1,0.2-0.1c0-0.1,0-0.1,0-0.1v-0.9c0-0.1,0-0.3,0-0.4v-0.6l-0.9,2.2l0,0.1H324l-1.1-2.5v2.2c0,0,0,0.1,0,0.1
						c0,0,0,0.1,0.1,0.1s0.1,0,0.1,0.1c0,0,0,0.1,0,0.1v0.1h-0.9v-0.1h0c0.1,0,0.2-0.1,0.2-0.1c0,0,0-0.1,0.1-0.1v-0.2
						c0-0.1,0-0.3,0-0.4c0-0.2,0-0.4,0-0.6c0-0.2,0-0.4,0-0.5V210c0,0,0-0.1,0-0.1c0-0.1-0.1-0.1-0.2-0.1c0,0,0-0.1,0-0.1v-0.1h1
						c0,0,0,0,0,0.1v0.1l0.8,2L325.1,209.6L325.1,209.6z"/>
					<path class="st7" d="M327.8,211.3v0.9c0,0.1,0,0.1,0.1,0.1c0,0.1,0.1,0.1,0.3,0.1c0,0,0,0.1,0,0.1v0.1H327v-0.1
						c0,0,0-0.1,0-0.1s0.1-0.1,0.1-0.1s0.1,0,0.1-0.1l0-0.1v-2.3c0,0,0-0.1,0-0.1s-0.1-0.1-0.2-0.1c0,0,0,0,0-0.1v-0.1h1.2
						c0.3,0,0.6,0.1,0.8,0.2s0.3,0.4,0.3,0.6c0,0.1,0,0.2,0,0.3c0,0.1-0.1,0.2-0.2,0.3c-0.1,0.1-0.2,0.1-0.3,0.2
						c-0.1,0.1-0.3,0.1-0.4,0.1L327.8,211.3L327.8,211.3L327.8,211.3z M328,211c0.2,0,0.3-0.1,0.5-0.1c0.1-0.1,0.2-0.3,0.2-0.5
						s0-0.4-0.1-0.5c-0.1-0.1-0.2-0.2-0.5-0.2h-0.1v1.2H328"/>
					<path class="st7" d="M331.2,211.5h-1l-0.2,0.6v0.1c0,0,0,0.1,0,0.1c0,0,0.1,0.1,0.2,0.1c0,0,0,0.1,0,0.1v0.1h-1v-0.1
						c0,0,0-0.1,0-0.1c0.1,0,0.1-0.1,0.2-0.1s0.1-0.1,0.1-0.1l1.1-2.6c0,0,0-0.1,0.1-0.1h0.1l1.1,2.7c0,0,0,0.1,0.1,0.1
						c0,0.1,0.1,0.1,0.2,0.1c0,0,0,0.1,0,0.1v0.1h-1.2v-0.1l0-0.1c0.1,0,0.1-0.1,0.2-0.1s0-0.1,0-0.1v-0.1L331.2,211.5L331.2,211.5z
						 M331.1,211.3l-0.4-1l-0.4,1H331.1z"/>
					<path class="st7" d="M335.5,211.5v-1.6c0,0,0-0.1,0-0.1s-0.1-0.1-0.2-0.1c0,0,0-0.1,0-0.1v-0.1h1v0.1c0,0,0,0.1,0,0.1
						c-0.1,0-0.2,0.1-0.2,0.1s0,0.1,0,0.1v2.7h-0.1c0,0,0-0.1-0.1-0.1l-1.8-2.2v2c0,0,0,0.1,0,0.1c0,0,0,0.1,0.1,0.1s0.1,0,0.1,0.1
						h0v0.1h-1v-0.1h0c0.1,0,0.2-0.1,0.2-0.1c0-0.1,0-0.1,0-0.1v-2.3c0,0,0-0.1,0-0.1c0-0.1-0.1-0.1-0.2-0.1c0,0,0-0.1,0-0.1v-0.1
						h0.8c0,0,0,0,0.1,0.1L335.5,211.5L335.5,211.5z"/>
					<path class="st7" d="M337.8,211.3l-0.7-1.4c0,0-0.1-0.1-0.1-0.1c0-0.1-0.1-0.1-0.2-0.1c0,0,0-0.1,0-0.1v-0.1h1.2v0.1
						c0,0,0,0.1,0,0.1c-0.1,0-0.1,0-0.2,0.1c0,0,0,0.1,0,0.1s0,0,0,0.1l0.5,1.1l0.5-1c0,0,0-0.1,0-0.1s0-0.1,0-0.1
						c0,0-0.1-0.1-0.2-0.1c0,0,0-0.1,0-0.1v-0.1h0.9v0.1c0,0,0,0.1,0,0.1c-0.1,0-0.2,0.1-0.2,0.1c0,0.1-0.1,0.1-0.1,0.1l-0.7,1.4v1
						l0,0.1c0,0,0,0.1,0.1,0.1s0.1,0,0.1,0.1h0v0.1h-1.4v-0.1h0c0,0,0.1,0,0.1-0.1c0,0,0.1-0.1,0.1-0.1c0,0,0-0.1,0-0.1v-1
						L337.8,211.3L337.8,211.3z"/>
					<path class="st7" d="M311.2,207.3v7.2c-0.5,0-1.4,0.1-2.6,0.1v-0.1c0.6-0.1,1-0.3,1.3-0.6c0.2-0.3,0.4-0.8,0.4-1.6v-3.1
						c0-0.6-0.1-1-0.4-1.3c-0.2-0.3-0.6-0.5-1.2-0.6v-0.1C309.6,207.2,310.4,207.3,311.2,207.3 M311.7,214.5v-7.2
						c1,0,1.8-0.1,2.6-0.1v0.1c-0.5,0.1-0.9,0.2-1.1,0.5c-0.3,0.2-0.5,0.8-0.5,1.6v3.3c0,0.7,0.2,1.2,0.5,1.4
						c0.3,0.2,0.7,0.4,1.1,0.5v0.1C313.5,214.5,312.7,214.5,311.7,214.5"/>
					<rect x="221" y="211.4" class="st7" width="47.9" height="0.2"/>
				</g>
			</g>
		</g>
	</g>
</g>
</svg>
