<?xml version="1.0" encoding="UTF-8"?><svg id="Layer_1" xmlns="http://www.w3.org/2000/svg" xmlns:xlink="http://www.w3.org/1999/xlink" viewBox="0 0 709.74 238.19"><defs><style>.cls-1{fill:none;}.cls-2{clip-path:url(#clippath);}.cls-3{fill:#0076b7;}.cls-4,.cls-5{fill:#fff;}.cls-6{fill:#231f20;}.cls-7{fill:#09385d;}.cls-8{fill:#9a9da0;}.cls-9{clip-path:url(#clippath-1);}.cls-5{stroke:#231f20;stroke-miterlimit:10;stroke-width:6px;}</style><clipPath id="clippath"><rect class="cls-1" x="216.39" y="174.96" width="123.39" height="39.64"/></clipPath><clipPath id="clippath-1"><rect class="cls-1" x="216.39" y="174.96" width="123.39" height="39.64"/></clipPath></defs><path class="cls-6" d="m254.4,104.47s-4.43-30.77-15.24-30.77-20.65,30.07-20.65,49.2,6.24,38.67,20.79,38.67,17.46-13.86,17.46-39.64h-16.08v13.03h5.27s-.49,17.88-5.13,17.88-8.45-2.91-8.45-29.24,17.74-22.87,22.03-19.12Z"/><path class="cls-6" d="m350.76,105.36c0-15.05-10.51-27.57-24.36-30.13-1.71-.32-3.47-.49-5.27-.49-2.58,0-5.09.34-7.48.98v83.13h12.74v-24.35l.72.84,12.01,23.51h11.63l-13.58-27.77c8.17-5.44,13.58-14.94,13.58-25.73Zm-24.36,16.12v-21.55c5.81,1.61,9.97,5.83,9.97,10.77s-4.15,9.16-9.97,10.77Z"/><polygon class="cls-6" points="386.31 77.84 386.31 101.75 377.22 101.75 377.22 158.86 364.19 158.86 364.19 101.75 355.09 101.75 355.09 77.84 386.31 77.84"/><path class="cls-6" d="m603.76,103.68c-4.17,9.16-19.44,32.69-20.67,34.58h19.2v20.59h-30.15v-20.59h.08l12.6-22.99,5.43-9.9,5.17-9.22c-5.44-.23-12,2.49-13.4,13.45h-13.02c1.31-15.76,9.82-37.25,19.08-36.93,8.94.31,20.17,21.15,15.67,31.01Z"/><polygon class="cls-6" points="548.8 158.86 536.94 158.86 523.64 141.04 523.64 158.86 511.42 158.86 511.42 77.07 523.64 77.07 523.64 114.63 536.58 77.07 548.45 77.07 528.49 128.3 548.8 158.86"/><path class="cls-6" d="m291.15,77.97h-15.67l-17.57,80.89h15.67l2.36-13.57h14.75l2.36,13.57h15.67l-17.57-80.89Zm-13.87,59.57l6.03-34.75,6.03,34.75h-12.06Z"/><polygon class="cls-6" points="439.97 77.58 439.97 158.86 424.31 158.86 424.31 134.43 409.34 134.43 409.34 158.86 393.67 158.86 393.67 77.58 409.34 77.58 409.34 122.35 424.31 122.35 424.31 77.58 439.97 77.58"/><path class="cls-6" d="m475.76,74.22c-15.24,2.69-32.53,37.85-27.56,62.41,4.96,24.57,23.93,23.9,27.56,23.9s22.6.67,27.56-23.9c4.96-24.56-12.33-59.72-27.56-62.41Zm-.04,78.46c-2.62,0-11.95.27-11.95-26.63s11.82-25.11,11.82-25.11l.17-.05.17.05s11.82-1.79,11.82,25.11-9.41,26.63-12.03,26.63Z"/><path class="cls-6" d="m662.67,74.22c-15.24,2.69-32.53,37.85-27.56,62.41,4.96,24.57,23.93,23.9,27.56,23.9s22.6.67,27.56-23.9c4.96-24.56-12.33-59.72-27.56-62.41Zm-.04,78.46c-2.62,0-11.95.27-11.95-26.63s11.82-25.11,11.82-25.11l.17-.05.17.05s11.82-1.79,11.82,25.11-9.41,26.63-12.03,26.63Z"/><path class="cls-6" d="m630.08,153.22c-1.64,5.92-7.9,5.76-9.09,5.76s-7.46.16-9.09-5.76c-1.64-5.92,4.07-14.39,9.09-15.04,5.03.65,10.73,9.12,9.09,15.04Z"/><rect class="cls-5" x="25.01" y="70.12" width="176.88" height="140.55" rx="12.13" ry="12.13"/><rect class="cls-4" x="46.8" y="199.02" width="134.2" height="23.82"/><polygon class="cls-4" points="53.42 51.59 48.92 83.62 173.05 83.62 173.05 35.18 53.42 51.59"/><path d="m191.37,109.77c-.41-2.22-1.54-4.19-2.23-6.31-.02-.06-.08-.1-.13-.15-1.93-.92-2.22-.91-4.15.19-1.29,2.63-2.52,5.27-3.84,7.85-2.99,5.81-6.05,11.58-8.66,17.58-1.55,3.57-3.47,6.98-4.48,10.77,0,.03-.68,1.68-1.55,3.48-.42,1.89-1.37,3.76-2.44,5.16-.9,1.19-3.28.81-3.32-.88-.01-.61.03-1.19.09-1.77,1.35-3.34,1.61-7.03,1.63-10.66.1-.59.2-1.17.27-1.76,0-.05,0-.11,0-.16-.48-5.72-1.94-11.29-6.07-12.84-.6-2.28-2.27-3.82-2.45-6.13-.09-1.19.42-2.04,1.47-2.56.35-.18.7-.36,1.06-.52,1.79-.82,3.13-2.16,4.21-3.77.63-.94,1.02-1.99,1.15-3.13.12-1.05-.09-1.96-.96-2.64-.2-.16-.37-.35-.66-.62,1.02-.52,1.84-1.2,2.91-1.36,1.86-.28,3.06-1.47,3.89-3.03,1.22-2.3,2.01-4.71,1.55-7.42-.18-1.08-.51-2.05-1.15-2.9-.39-.53-.8-1.07-1.3-1.48-1.53-1.28-2.25-3.05-3.04-4.79-.29-.64-.26-1.25,0-1.91.78-2.06,1.84-3.94,3.2-5.67.77-.98,1.48-2.02,2.14-3.08.31-.49.48-1.08.62-1.65.14-.55-.18-1-.72-1.27-.56-.28-1.14-.25-1.73-.18-2.11.23-4.07,1-6,1.83-2.05.88-4.07,1.82-6.08,2.79-1.18.57-2.3,1.26-3.17,2.3-1.5,1.79-2.65,3.76-3.24,6.06-.41,1.6-.96,3.16-1.42,4.75-.27.91-.68,1.76-1.41,2.34-.92.72-1.89,1.4-3.17,1.67-.79-.97-1.44-2.04-1.91-3.19-.3-.75-.69-1.41-1.14-2.06-1.11-1.56-2.21-3.12-3.34-4.66-1.03-1.41-1.75-2.93-1.89-4.71-.07-.87-.34-1.68-.83-2.41-2.42-3.62-4.5-7.45-7.09-10.96-2.08-2.81-3.76-5.89-5.45-8.95-1.18-2.14-2.26-4.32-2.95-6.68-.07-.25-.19-.49-.29-.73-2.23-5.29-4.47-10.57-6.67-15.87-1.17-2.82-2.85-5.35-4.25-8.04-2.46-3.06-4.02-6.62-5.57-10.2-.76-.54-1.58-.5-2.44-.26-.85.24-1.55.68-2.06,1.42-.68.97-1.37,1.94-2.06,2.9-3.52,4.92-6.16,10.28-8.11,16.02-.72,2.12-1.54,4.22-2.36,6.31-.96,2.46-2.02,4.88-2.95,7.35-1.37,3.65-2.34,7.43-3.32,11.21-.26,1.02-.48,2.06-.62,3.11-.77,6.16-1.74,12.29-2.36,18.46-.45,4.47-.88,8.94-1.03,13.43-.01.4-.03.8-.1,1.19-.06.34.17.76-.21,1.04q-2.85-2.92-6.46-3.79c-1.05-.92-1.79-2.12-2.35-3.38-.89-2.01-1.5-4.1-.74-6.32.02-.06-.01-.13-.02-.21-.69-.74-.84-.83-1.42-.84-1.02,0-1.93.32-2.77.88-1.59,1.06-3.07,2.27-4.42,3.62-.55.55-1.06,1.2-1.4,1.9-1.3,2.63-1.81,5.39-.78,8.23.69,1.92,1.5,3.81,3.43,4.89.49.27.6.89.33,1.4-.36.68-.81,1.2-1.7,1.04-.34-.06-.65.08-.69.54.26.15.52.29.79.45-.19.59-.4,1.15-.54,1.72-.44,1.85-.41,3.66.44,5.41,1.14,2.33,3,3.79,5.4,4.61.31.11.63.2.95.24.64.08,1.06.45,1.43.94.72.94,1.42,1.89,2.19,2.79,2.03,2.38,2.04,2.37,2.39,5.43.05.46.09.92.12,1.38.15,2.6-1.05,4.67-2.71,6.55-1.89,2.15-3.78,4.32-4.52,7.17,0,.03-.01.07-.02.1-.8,3.12-.56,6.73-.2,9.91.31,2.79.92,5.56,1.8,8.22.62,1.87,1.57,4.48-.59,5.78-2.91,1.75-5.2-2.67-6.34-4.61-.16-.27-.31-.55-.47-.82-.2-.35-.39-.7-.59-1.05-1.87-3.35-4.24-6.91-5.37-10.6s-2.58-7.44-4.39-10.99c-.5-.99-.75-2.1-1.1-3.17-.55-1.68-1.09-3.37-1.63-5.02-.6-.15-1.09-.29-1.58-.38-1.72-.3-2.68.37-3.15,1.66-.34.93-.68,1.86-.93,2.82-.79,3.01-1.2,6.09-1.59,9.16-.07.52-.16,1.06-.13,1.57.16,2.23.35,4.46.54,6.68.09.99.24,1.97.34,2.96.3,2.95.62,5.9.92,8.84.27,2.61.95,5.18,1.95,7.63.82,2.02,1.75,3.99,2.54,6.02,1.1,2.83,2.08,5.7,3.16,8.53.92,2.4,1.85,4.81,3.15,7.04,2.23,3.82,4.62,7.54,7.48,10.92.47.55.85,1.17,1.28,1.76.42.58.84,1.15,1.25,1.71-.39.74-.71,1.39-1.06,2.03-.58,1.05-.91,2.2-1.12,3.37-.24,1.35-.09,2.65.66,3.81,1.34,2.07,2.86,3.95,5.19,4.98.35.16.68.38.84.47.44,1.03.69,1.95,1.19,2.69,1.47,2.23,3.74,3.24,6.24,3.77,1.52.32,3.06.75,4.64.32.06-.02.13.01.19.02,2.37.2,4.52-.48,6.57-1.61.34-.19.71-.35,1.09-.42,2.08-.37,4.16-.52,6.23.11.62.19,1.26.3,1.77.42.48-.24.82-.41,1.16-.58,1.26.78,2.57,1.08,3.97,1.17,3.14.2,5.98,1.3,8.7,2.86,1.71.98,3.56,1.66,5.49,2.09,1.21.28,2.44.51,3.67.66,1.56.18,3.12.33,4.69.36,1.04.02,2.08-.21,3.13-.33,1.87-.21,3.74-.42,5.61-.62,1.5-.16,3-.27,4.49-.5,1.6-.25,3.03-.98,4.05-2.24.96-1.18,2.08-2.19,3.08-3.33,1.81-2.08,3.14-4.39,2.85-7.33-.01-.11.09-.24.15-.38,1.46-1.14,3.2-1.77,4.93-2.35,1.12-.37,2.31-.47,3.49-.09,2.07.67,4.21.95,6.36,1.19,2.27.25,4.55.55,6.83.75,1.18.11,2.34-.05,3.47-.47,1.53-.57,3.1-1.07,4.64-1.62.43-.15.87-.32,1.25-.57,1.04-.68,2.09-1.37,3.07-2.14.61-.48,1.23-1.05,1.61-1.72,1.72-3,2.62-6.2,1.96-9.69-.25-1.36-.59-2.71-.86-4.06-.16-.78-.3-1.56-.37-2.35-.09-.98.05-2.01-.16-2.96-.21-.95-.73-1.82-1.16-2.84.6-1.2,1.22-2.43,1.84-3.66.54-1.06,1.14-2.09,1.6-3.18,1.06-2.49,2.06-5.01,3.07-7.52,1.92-4.78,3.66-9.63,5.13-14.57,1.35-4.56,2.56-9.15,3.17-13.89.33-2.62.95-5.19,1.32-7.81.57-3.99,1.14-7.98,1.05-12.03-.05-2.17-.2-4.35-.18-6.52.01-1.66-.35-3.25-.65-4.85ZM94.9,21.91c.34-.64.7-1.27,1.06-1.89.4-.68.82-1.35,1.21-2.03.36-.62.69-1.26,1.36-1.94.62,2.06,1.51,3.75,2.08,5.64-2.11,1.08-4.24,1.81-6.59,2.47.03-.98.53-1.58.87-2.24Zm-1.55,3.36c2.53-.9,5.04-1.79,7.65-2.71,1.07,1.9,2.04,3.83,2.94,5.87-.67.55-1.38.79-2.14.99-2.3.58-4.65.74-6.99.93-1.04.08-2.08-.12-3.22-.48.49-1.7.9-3.23,1.77-4.6Zm-8.13,27.14c1.03-.44,2.07-.43,3.11-.46.72-.02,1.45,0,2.14-.14,3.53-.74,6.99-1.67,10.31-3.13,2.29-1.01,4.5-2.13,6.65-3.4.39-.23.75-.51,1.15-.79-.31-.4-.58-.16-.81-.03-4.54,2.55-9.34,4.42-14.34,5.86-2.1.61-4.22.9-6.36,1.18-.52.07-1.06.11-1.49-.54,1.69-6.75,3.94-13.43,5.8-20.33,4.45.57,8.78.5,12.95-1.42,1.14,1.37,2,2.85,2.96,4.24.09.14.04.37.06.63-1.46.75-3,1.26-4.58,1.68-.51.13-1.04.19-1.52.37-1.38.5-2.79.71-4.24.58-1.05-.09-2.05.09-3.03.43,3.1.35,6.12.02,9.09-.89,1.25-.38,2.5-.74,3.68-1.33.32-.16.75-.12,1.09-.17.9,1.14,2.16,3.53,2.96,5.61-2.09,1.01-5.81,1.89-10.98,2.57-3.68.49-7.38.65-11.13.41.13.54.51.5.77.52,2.67.23,5.34.46,8-.05.45-.09.91-.18,1.36-.14,1.99.14,3.89-.34,5.81-.77,1.99-.44,3.92-1.02,5.83-1.72.23-.09.51-.05.82-.07,1.22,1.83,2.09,3.82,2.94,5.81.87,2.06,1.66,4.16,2.48,6.25.05.12.02.26.03.45-1.63,1.06-3.47,1.77-5.28,2.49-3.1,1.24-6.26,2.3-9.52,3.07-1.79.42-3.58.82-5.4,1.02-4.2.46-8.35.24-12.4-1.12-.18-.06-.33-.2-.57-.35.5-2.1.97-4.21,1.65-6.3Zm-3.05,11.72c.28-1.49.58-2.97,1.22-4.46.34.02.66-.03.95.06,4.33,1.37,8.74,1.46,13.2.9.91-.11,1.81-.26,2.72-.39,4.44-.66,8.63-2.1,12.67-4.03,1.12-.54,2.22-1.12,3.34-1.67.22-.11.48-.16.82-.28,1.2,2.91,2.03,5.87,3.08,8.79-1.31.88-2.73,1.21-4.09,1.6-3.78,1.07-7.59,2-11.51,2.42-2.75.29-5.47.29-8.19-.23-1.09-.21-2.2-.36-3.28-.62-2.38-.56-4.8-.44-7.21-.43-1.29,0-2.58.05-3.88.07.05-.58.05-1.16.15-1.73Zm-2.77,17.26c.2-1.76.43-3.52.64-5.14.24-.2.33-.33.44-.36,2.03-.53,4.11-.82,6.2-.97,1.09-.08,2.1.25,2.88,1.02.8.78,1.77,1.11,2.8,1.33,1.21.27,2.44.49,3.65.79,1.67.42,3.38.43,5.07.47,1.96.05,3.94.06,5.88-.15,5.2-.55,9.7-2.59,13.1-6.75.57-.69,1.22-1.34,1.59-2.17-.39-.23-.56.03-.74.19-1.17,1.06-2.3,2.16-3.49,3.2-2.81,2.44-6.07,3.81-9.75,4.31-2.81.38-5.61.46-8.43.29-1.04-.06-2.08-.24-3.11-.41-1.16-.2-2.31-.46-3.47-.67-.79-.14-1.52-.39-2.15-.91-1.53-1.25-3.28-1.61-5.18-1.26-1.09.2-2.16.5-3.25.73-.56.12-1.14.16-1.85.26.04-.55.03-.99.1-1.42.38-2.28.76-4.56,1.18-6.83.07-.37.33-.7.5-1.05.58.53,1.36.34,2.01.4.96.1,1.96.17,2.91.08,2.19-.21,4.3.25,6.42.6,2.06.35,4.08.97,6.19,1.07.26.01.52.11.78.09,2.94-.15,5.89-.23,8.79-.85,3.65-.77,7.29-1.6,10.71-3.18.17-.08.37-.1.6-.16,1.8,3.52,3.59,7.03,5.45,10.68-.77.83-1.61,1.74-2.46,2.64-2.36,2.49-4.93,4.74-7.78,6.65-1.04.69-2.06,1.41-3.06,2.16-1.35,1.02-2.85,1.58-4.5,1.83-2.79.41-5.59.63-8.41.71-.64.02-1.31-.1-1.92-.29-1.25-.38-2.5-.81-3.71-1.31-.72-.29-1.47-.64-2.05-1.15-1.09-.97-2.33-1.7-3.52-2.52-1.78-1.23-3.74-1.89-5.93-1.72-.45.04-.89.14-1.33.23-.5.1-1,.22-1.6.35-.09-.33-.23-.58-.2-.81Zm-1.42,10.34c.34-1.48.51-2.98.61-4.5.09-1.24.3-2.48.46-3.72,2.66-1.63,5.11-1.46,7.52-.16,1.26.69,2.47,1.5,3.6,2.4,1.62,1.28,3.31,2.33,5.34,2.85,1.45.37,2.82,1.08,4.37,1.03.33-.01.66.05.98,0,2.8-.33,5.6-.67,8.4-1,1.41-.17,2.62-.78,3.75-1.62,1.27-.94,2.55-1.86,3.86-2.75,3.01-2.04,5.73-4.4,8.04-7.24.45-.55.96-1.06,1.5-1.64,1.13,1.59,2.15,3.12,3.27,4.58,1.11,1.45,2.32,2.83,3.58,4.37-.56.08-.94.19-1.32.17-1.56-.06-3,.4-4.3,1.19-3.7,2.26-7.34,4.63-10.41,7.77-.6.61-1.19,1.24-1.71,1.91-1.26,1.59-2.89,2.67-4.7,3.5-.24.11-.48.23-.73.28-3.76.87-7.5,1.13-11.22-.29-1.19-.45-2.28-1.03-3.18-1.91-1.72-1.68-3.81-2.8-5.86-3.98-1.2-.69-2.55-1.06-3.92-1.23-1.1-.13-2.22-.2-3.33-.23-1.61-.05-3.09.5-4.53,1.11-.41-.3-.11-.62-.05-.91Zm-14.53,49.71c.19-.63.41-1.26.71-1.84,1.22-2.34,2.47-4.67,4.29-6.62.09-.1.17-.2.25-.3,3.04-3.6,4.16-7.72,3.27-12.38-.12-.65-.15-1.32-.3-1.96-.5-2.09-1.58-3.76-3.56-4.72-.29-.14-.59-.27-.87-.4-.05-.55.47-.6.66-.91.17-.28.42-.51.58-.8.19-.33.31-.69.47-1.07q-.83-.1-2.6.72c-.42-.02-.47-.4-.6-.68-.34-.75-.98-1.23-1.57-1.75-.46-.4-.99-.63-1.62-.57-.32.03-.66.03-.98-.02-2.26-.33-2.97-2.11-2.36-3.91.38-1.11,1.1-2.09,1.66-3.13.34-.63.76-1.24,1.01-1.91.42-1.1.22-2.08-.8-2.8-.27-.19-.63-.37-.73-.63-.45-1.18-1.39-1.89-2.31-2.64-1.09-.89-1.5-2.01-1.43-3.48.1-2.15.79-3.99,2.16-5.6.2-.24.49-.4.85-.7.21.44.47.76.52,1.11.3,1.96,1.33,3.59,2.39,5.17.96,1.43,2.45,2.15,4.1,2.51.44.1.91.1,1.37.15,2.02.22,3.71,1.72,4.1,3.7.17.84.21,1.71.34,2.56.11.76,0,1.53.57,2.23.26.32.13,1.02.1,1.54-.04.71.16,1.3.71,1.75-.77,2.32-2.1,3.68-4.5,4.58-.12.47.23.6.53.55.5-.08,1.05-.21,1.47-.48.66-.42,1.28-.93,1.81-1.5.37-.39.79-.33,1.27-.41.5-.81,1.02-1.64,1.54-2.48.9-1.45,2.2-2.41,3.69-3.17,1.24-.63,2.57-1.03,3.91-1.3,2.05-.42,3.89.11,5.44,1.59,1.66,1.6,3.34,3.17,5,4.77.47.46.98.9,1.36,1.43,1.18,1.63,2.71,2.86,4.34,3.99.81.56,1.67,1.05,2.43,1.67,1.27,1.04,2.71,1.57,4.31,1.76.32.04.65.1,1.14.18.76-.37,1.64-.78,2.51-1.23.41-.21.77-.52,1.19-.7,1.94-.8,3.41-2.17,4.74-3.75,1.95-2.32,3.92-4.62,5.91-6.9.51-.59,1.12-1.12,1.76-1.57,1.47-1.02,3.11-1.72,4.8-2.25,1.89-.59,3.76-.45,5.51.58,1.13.67,2.25,1.35,3.4,1.99.98.54,1.98,1.04,2.98,1.53.27.13.58.17.93.26-.05-.24-.03-.42-.1-.46-2.01-1.25-4.01-2.5-6.05-3.71-.73-.43-1.51-.81-2.31-1.08-1.75-.59-3.5-.4-5.21.21-.92.33-1.82.74-2.71,1.16-1.75.84-3.16,2.09-4.38,3.6-1.99,2.45-4.04,4.86-6.09,7.26-.47.54-1.02,1.05-1.64,1.41-1.7.99-3.45,1.89-5.1,2.77-2.08-.15-3.82-.78-5.35-2.05-1.32-1.09-2.73-2.06-4.08-3.11-.46-.36-.95-.74-1.3-1.2-1.27-1.71-2.93-3.02-4.38-4.55-.86-.91-1.74-1.79-2.66-2.64-.63-.57-1.28-1.17-2.02-1.56-.68-.36-1.48-.62-2.24-.64-2.11-.04-4.15.33-6.07,1.33-1.48.77-2.85,1.63-3.78,3.07-.1.16-.27.28-.47.5-.33-.59.12-1.03.16-1.5.06-.59.25-1.16.39-1.74.12-.51.25-1.03.38-1.54.13-.51.28-1.02.41-1.53.15-.58.27-1.16.42-1.73.13-.51.28-1.01.44-1.57,1.08-.77,2.29-1.3,3.62-1.35,1.76-.07,3.54-.12,5.28.31.7.17,1.43.31,2.07.61,2.13,1.02,4.29,2.08,6.02,3.71,2.55,2.41,5.61,3.23,8.96,3.5,1.93.16,3.79-.11,5.66-.44,2.61-.46,4.87-1.71,6.54-3.75,2.81-3.42,6.25-6.01,9.94-8.31,1.22-.76,2.49-1.45,3.76-2.14,1.14-.61,2.4-.66,3.64-.66.81,0,1.48.36,1.97,1.11,1.37,2.1,2.79,4.17,4.19,6.24.26.38.5.78.78,1.14.44.58.85,1.15.97,1.91.06.38.32.74.82.64.3-.23.08-.46.02-.69-.13-.49-.04-.96.36-1.25.61-.45.95-1.05,1.25-1.73.5-1.13,1.33-1.95,2.51-2.37.12-.04.25-.09.37-.13,2.79-.96,4.04-3.22,4.77-5.87.12-.43.06-.91.06-1.37-.03-3.21,1.06-5.95,3.39-8.14.47-.44,1.04-.82,1.63-1.09,2.07-.99,4.17-1.93,6.26-2.87.17-.07.37-.06.64-.1-.13.68-.56,1.07-.93,1.5-1.84,2.13-3.03,4.62-3.9,7.28-.12.38-.22.76-.32,1.14-.48,1.76.21,3.1,1.54,4.17.46.37.96.69,1.45,1.02.73.5,1.25,1.15,1.53,2.01.4,1.26.85,2.5,1.19,3.77.28,1.05-.05,1.95-.97,2.59-.82.58-1.75.88-2.68,1.2-.93.32-1.85.67-2.74,1.06-1.21.53-1.75,1.54-1.85,2.82-.08,1.01.09,1.97.44,2.92.14.36.26.73.36,1.01-.18.61-.53.85-1.01.94-.09.41-.38.64-.73.83-2.7,1.49-4.16,3.98-5.14,6.76-.7,2-.36,4.09.3,6.04.99,2.93,2.59,5.48,5.12,7.34.11.08.2.18.31.24,1.5.8,2.1,2.07,1.91,3.75-.04.39,0,.79-.03,1.18q-.22,2.31-2.24,3.57c-.5.31-1.02.6-1.52.92-1.35.89-2.83,1.35-4.54,1.4-.46-.36-.96-.79-1.5-1.14-.49-.32-1.02-.58-1.56-.81-.23-.1-.58-.2-.76-.09-1.27.75-2.41-.03-3.59-.25-1.01-.19-1.99-.65-3.05-.46-.11.02-.21.11-.31.17.71.91,2.79,2.78,3.87,3.49-.15-.84-.15-.85-.89-1.52-.44-.39-.89-.76-1.32-1.11.07-.15.08-.22.13-.25.04-.03.12-.03.17-.01,2.4.66,4.79,1.32,7.21,1.99.2.73.1,1.08-.41,1.19-.64.14-1.35.1-1.92.37-1.54.72-3.05,1.53-4.52,2.37-.82.47-1.08,1.8-.4,2.62.33.4.64.81.91,1.14-.11.7-.56.88-1.02.89-.51.01-1.04-.07-1.54-.21-.98-.27-1.93-.23-2.9.06-.88.26-1.77.53-2.67.63-1.89.19-2.9,1.37-3.58,2.98-.28.66-.5,1.35-.69,1.89-.69.45-1.29.33-1.86.23-.89-.17-1.79.19-2.69-.32-.78-.43-1.7-.59-2.57-.86-.63-.2-1.25-.41-1.89-.55-1.41-.3-2.73-.1-3.92.77-.96.71-1.8,1.53-2.42,2.57-.22.37-.57.67-.83.97-.98-.36-1.82-.74-2.69-.97-1.95-.51-3.9-.26-5.85.06-.7.12-1.41.2-2.05.29-2.17-2.35-4.79-3.34-7.81-3.33-1.24,0-2.49.06-3.73.11-1.25.05-2.26.6-3.06,1.56-.51.6-1.01,1.2-1.51,1.79-.41-.13-.29-.4-.22-.62.54-1.79.06-3.35-.96-4.83-.8-1.17-1.85-2.07-3.08-2.71-1.32-.68-2.74-.83-4.19-.35-.36.12-.72.21-1.16.33-.03-.5-.04-.86-.06-1.23-.68.07-.44.73-.75,1.02-.06-.09-.17-.17-.18-.26-.07-1.54-.89-2.62-2.14-3.35-1.39-.81-2.86-1.27-4.5-.85-1.64.42-3.03,1.21-4.01,2.59-.54-.12-.77-.43-.63-.87Zm97.35-58.64c.04.1,0,.24-.02.48-.6-.5-1.14-.91-.66-1.89.26.54.48.97.68,1.41Zm-15.18,57.25c.48.15.98.25,1.73.43-1.24.44-2.14.3-3.01-.24.1-.61.6-.37.89-.52.12.13.23.29.38.34Zm-.34-.38c.74-.67,1.55-.73,2.6-.29-.51.44-.93.09-1.31.13-.43.05-.86.11-1.29.16Zm8.74,37.11c-.27,1.45-.62,2.03-1.99,3.31,0-.99.4-1.65,1.99-3.31Zm2.88-1.6c.37.12.23.4.13.6-.24.47-.48.94-.78,1.36-1.17,1.59-2.27,3.22-3.07,5.04-.05.11-.18.19-.38.39-.2-.44-.34-.74-.47-1.02.6-1.26,2.59-4.02,4.57-6.37Zm-2.88,8.51c.13-.19.3-.38.4-.6.87-1.77,1.69-3.57,2.6-5.31.65-1.25,1.39-2.46,2.39-3.48-.18.52-.34,1.06-.54,1.57-.35.91-.92,1.74-.94,2.78,0,.37-.26.74-.44,1.09-.9,1.68-1.81,3.35-2.73,5.02-.09.17-.26.28-.4.42-.75-.49-.76-.48-1.07-1.74.24.08.44.15.73.25Zm-1.04-40.73c-.55-.15-1.12-.25-1.76-.39.02-.3.04-.53.07-.9.57.25,1.05.42,1.49.66.48.26.85-.06,1.44-.21.59.51,1.13.97,1.66,1.45.08.07.08.22.15.46-.63-.04-1.08-.42-1.58-.6-.48-.17-.97-.34-1.47-.47Zm-3.24-4.36c1.67-.09,2.94.64,4.14,1.55-.05.11-.06.17-.1.2-.04.03-.12.06-.17.04-1.29-.59-2.58-1.19-3.87-1.79Zm-34.2,13.57c1.05-1.47,2.43-1.82,4.01-1.4,1.32.35,2.62.8,4.01,1.24.48,1.02.99,2.08,1.51,3.18-.53,1.61-1.14,3.21-1.57,4.86-.43,1.64-.69,3.32-1.06,5.16-.32-.22-.55-.31-.69-.48-1.63-1.97-3.26-3.95-4.87-5.95-1-1.25-1.58-2.72-2.09-4.22-.13-.39-.39-.85.07-1.35.78.65.94,1.67,1.49,2.44.52.72.96,1.49,2,2.16-.74-2.2-2.38-3.63-2.81-5.63Zm7.51,41.47c.91-1.74,1.78-3.49,2.68-5.27.41.14.29.52.3.78.14,2.64.01,5.26-.57,7.84-.1.45-.31.87-.42,1.31-.3,1.11-1.09,1.6-2.14,1.73-.44.06-.91,0-1.35-.09-.57-.13-1.11-.36-1.4-.92.97-1.8,1.95-3.58,2.89-5.37Zm5.69,3.37c.61-1.67,1.2-3.35,1.79-5.03.24-.68.48-1.37.7-2.06,1.11-3.38,2.22-6.76,3.33-10.14.04-.11.17-.19.31-.35.07.18.17.32.18.47.02,1.91.13,3.82.01,5.72-.13,2.16-.37,4.33-.75,6.47-.37,2.07-.97,4.1-1.5,6.14-.18.69-.41,1.37-1,1.88-.93.79-1.92,1.09-3.08.65-.42-.16-.85-.31-1.3-.48.48-1.21.92-2.24,1.3-3.28Zm9.74-4.66c1.19-2.92,2.41-5.82,3.61-8.73.12.02.25.04.37.06-.02.45.01.9-.06,1.34-.58,3.45-1.3,6.86-2.39,10.19-.45,1.37-1.04,2.7-1.62,4.03-.23.54-.59,1.02-.92,1.51-.31.47-.79.67-1.33.74-.6.07-1.17.03-1.64-.65,1.06-2.91,2.8-5.56,3.99-8.48Zm-3.57-40.04c-1.12-.8-2.31-1.5-3.46-2.26-.27-.18-.51-.39-.77-.6.07-.93.6-1.46,1.26-1.91.67.15,1.09.51,1.34,1.15-.64.5-1.04-.4-1.58-.26-.03.1-.12.27-.09.3.34.3.67.63,1.06.85,2.25,1.25,4.26,2.81,6.1,4.61.07.07.22.07.34.1-.19-1.13-.26-1.22-5.74-6.87.6-.77,1.52-.63,2.31-.78.25-.04.55.19,1.2.44l-1.63.22c0,.22-.06.39,0,.46,1.47,1.76,2.69,3.73,4.31,5.35.23-.17.38-.29.51-.38.23.31.45.63.69.96.4-.26.74-.48,1.08-.7q-.34-1.4-4.67-6.53c.91-.12,1.48.13,1.98.58.79.71,1.48,1.49,1.93,2.47.38.84.78,1.67,1.21,2.49.17.32.35.75.87.63.06-1.55-.54-2.71-2.96-5.72.17-.1.33-.2.51-.29.17-.08.36-.14.65-.25.29.41.63.81.86,1.26.71,1.41,1.4,2.83,2.03,4.28.23.53.4,1.15.36,1.71-.12,1.37-.3,2.75-.93,4.02-.27-.08-.49-.15-.79-.23-.7.89-1.42,1.81-2.21,2.82-.98-3.48-3.03-5.98-5.76-7.95Zm-38.23,3.28c-.38.54-.8,1.21-1.3,1.81-2.31,2.75-4.11,5.79-5.14,9.26-.04.12-.13.22-.21.35-.4-.02-.48-.38-.56-.63-.4-1.25-.76-2.52-1.1-3.79-.24-.89-.41-1.79-.61-2.69-.42-1.88-.12-3.81-.43-5.68.51-.91,1.07-1.44,1.85-2.03.19,1.21.01,2.24-.1,3.24-.12.99.24,1.92-.09,2.99.74-.27.66-.68.69-1.07.16-1.7.32-3.4.51-5.1.03-.25.15-.49.26-.8,1.24-.07,2.46-.15,3.82-.23-.5,1.41-.99,2.69-1.39,4-.38,1.24-.65,2.52-.64,4.04.56-.4.59-.86.7-1.25.12-.44.21-.9.32-1.35.12-.45.26-.88.39-1.33.13-.44.24-.89.39-1.33.15-.44.33-.86.51-1.28.18-.42.38-.83.55-1.21,1.79-.26,3.47.26,4.91,1.5.03.59-.52.69-.84.97-.4.34-.8.68-1.24.97-.36.24-.78.4-1.24.64Zm7.21,45.95c-.65.75-1.45,1.1-2.42.92-.7-.13-1.38-.35-2.05-.52-2.22-5.23-2.43-10.37-.14-15.86.43,1.53.47,2.82.75,4.06.3,1.35.61,2.7.98,4.03.36,1.26.75,2.52,1.23,3.75.47,1.21,1.07,2.38,1.65,3.62Zm1.41-2.8c.17-1.02.72-2.25,1.31-2.93.04.05.11.09.12.15.32,1.51.64,3.03.95,4.5-.54.66-1.15.65-1.88.46-.49-.75-.62-1.43-.5-2.17Zm-3.85-42.77c.34-.64.82-1.12,1.64-1.36.38,1.78.18,3.61,1.03,5.5.24-2.07-.65-3.85-.12-5.64q1.28-.73,3.53-.59c.2,1.23-.75,2.36-.31,3.88.85-1.38.57-2.87,1.29-4.03.83-.24,1.52.15,2.46.23-1.6,2.04-2.74,4-3.55,6.17-.79,2.09-1.23,4.27-1.75,6.9-2.28-3.69-3.97-7.07-4.22-11.07Zm14.8,37.35c.49,1.79,1,3.57,1.44,5.37.12.51-.1,1.04-.61,1.33-.28.16-.56.34-.86.45-.24.09-.51.08-.82.12-.39-.39-.8-.79-1.35-1.33,1.3-1.82,1.58-3.9,2.19-5.94Zm-38.11-36.98c.99-3.01,1.31-6.16,3.41-8.7,1.59,1.08,2.65,2.27,2.33,4.27-.08.51-.03,1.04-.04,1.53-.71.65-1.4,1.25-2.05,1.9-.65.65-1.28,1.32-1.87,2.03-.59.71-1.11,1.47-1.67,2.21-.54.72-.97,1.54-1.71,2.39-.13-.46-.23-.68-.25-.91-.18-2.29-.44-4.59-.47-6.88-.03-1.92.49-3.78.99-5.63.27-1,.96-1.56,1.79-1.96.79-.38,1.52,0,2.4.5-1.51,2.15-2.55,4.35-2.88,6.82-.1.74-.52,1.53.02,2.44Zm-13.08-9.64c0-.74.07-1.46.55-2.06.2-.25.44-.21.69.03-.14.52-.29,1.07-.44,1.62.65-.4.92-1.09,1.29-1.7.26-.44.54-.86.94-1.48.17.82-.29,1.2-.42,1.67-.15.51-.36.99-.53,1.49-.15.44-.29.88-.41,1.32-.12.49-.45.94-.27,1.64.6-.66.72-1.43,1-2.12.32-.8.65-1.59.96-2.39.29-.73.52-1.5,1.14-2.13.92-.19,1.72.26,2.54.58.06,1.95-1.17,3.69-.61,5.96.9-1.96.61-3.89,1.47-5.61.68.96,1.01,1.87.23,2.91-.19.25-.26.59-.41.92.26.55.52,1.08.81,1.69-.18.23-.35.5-.57.73-2.57,2.63-4.5,5.65-5.7,9.15-.06.18-.16.35-.31.65-.2-.22-.42-.37-.51-.57-.65-1.45-1.09-2.97-1.4-4.52-.22-1.1-.3-2.23-.51-3.33-.29-1.54-.12-3.01.45-4.45Zm10.76,35.57c-.17,0-.31.05-.39,0-.67-.45-1.3-.96-1.79-1.65.79.21,1.51.54,2.09,1.12.1.1.06.35.08.53Zm-35.79-31.15c-.27-2.36-.52-4.73-.57-7.1-.06-2.7.11-5.4.21-8.1.04-1.15.17-2.3.27-3.56.82,1.03.83,2.21,1.21,3.25,1.49,4.16,3.19,8.24,5.14,12.2,2.25,4.56,4.75,8.99,7.77,13.07,2.46,3.33,5.16,6.5,7.92,9.58,1.83,2.05,3.8,4.01,6.03,5.66.56.42,1.01.95,1.39,1.61.48.83,1.28,1.49,1.99,2.15,1.68,1.57,3.4,3.1,5.1,4.65.08.07.07.23.13.47-.2-.05-.39-.04-.5-.12-1.85-1.47-3.69-2.96-5.54-4.44-1.48-1.19-2.96-2.4-4.45-3.58-.18-.14-.41-.21-.92-.45.51,1.04,1.23,1.39,1.78,1.91.53.5,1.06.98,1.61,1.46.6.52,1.22,1.01,1.81,1.52.54.48,1.06.99,1.61,1.46.6.52,1.21,1.02,1.82,1.52.56.46,1.13.9,1.68,1.36.6.51,1.19,1.03,1.69,1.48.5,1.11.22,2.04-.07,2.9-.37.29-.59.08-.77-.09-1.41-1.28-2.81-2.57-4.19-3.89-.27-.25-.42-.63-.62-.95-.99-.4-1.67-1.2-2.45-1.87-1.35-1.15-2.67-2.33-4.01-3.49-.05-.04-.1-.12-.15-.12-1.38-.01-1.87-1.26-2.71-2-.14-.12-.33-.18-.59-.31,0,.25-.09.47,0,.57.31.42.68.8,1.01,1.21.24.29.52.54.48,1.02-.02.25.28.56.49.78,1.97,2.02,3.96,4.02,5.93,6.04,1.93,1.97,3.84,3.96,5.75,5.95.26.28.44.64.71,1.03-.87,1.49-1.61,3.03-2.73,4.39-.61-.09-1.04-.61-1.04-1.01-.02-.78-.5-1.19-.92-1.66-.78-.89-1.59-1.75-2.42-2.59-1.93-1.98-3.67-4.12-5.35-6.32-.36-.47-.72-.94-1.11-1.38-.14-.16-.38-.24-.9-.56.26.57.34.8.47,1,.44.71,1.14,1.26,1.23,2.21.03.34.4.66.65.96,2.76,3.26,5.31,6.7,8.33,9.74.13.13.22.32.32.48-.27.59-.76.91-1.27,1.19-.41-.65-.77-1.34-1.23-1.95-1.21-1.63-2.49-3.21-3.77-4.78-2.03-2.5-3.98-5.07-5.96-7.61-.08-.1-.13-.24-.22-.33-2.47-2.34-4-5.37-5.72-8.24-1.59-2.65-2.94-5.44-4.42-8.16-.26-.48-.45-1.08-1.25-1.34.39,1.49,1.16,2.63,1.74,3.85.6,1.25,1.26,2.46,1.93,3.67.66,1.2,1.36,2.38,2.09,3.65-.82.05-.69-.8-1.28-.96-.03.17-.13.35-.07.46.33.64.64,1.31,1.05,1.89,2.67,3.77,4.88,7.82,7.22,11.79.33.56.66,1.14.97,1.71.02.03-.06.11-.13.26-.3-.37-.6-.71-.85-1.06-1.86-2.63-3.63-5.33-5.23-8.14-.39-.69-.81-1.36-1.3-1.98-.16-.21-.55-.23-.93-.37-.8-1.18-1.13-2.77-2.34-4.27.05.7.07,1.05.1,1.44-.09-.03-.22-.04-.24-.1-1.81-3.58-3.67-7.14-5.4-10.77-1.24-2.61-2.29-5.32-3.43-7.98-.13-.3-.26-.6-.37-.86-.57-.08-.54.27-.57.57-.5-.26-.41-.78-.47-1.2-.41-2.81-.82-5.62-1.14-8.45Zm36.79,40.13c-.18.6-.32,1.03-.44,1.44-.19,0-.38.03-.42-.03-.36-.55-.76-1.04-1.21-1.52-2.47-2.63-4.89-5.31-7.32-7.97-.17-.19-.31-.39-.47-.59.09-.08.13-.16.17-.15.06,0,.13.04.17.09,3.14,2.88,6.28,5.75,9.53,8.73Zm-11.61,10.25c-1.16-1.16-2.27-2.35-3.06-3.83-.87-1.62-1.85-3.18-2.77-4.78-.15-.27-.25-.57-.37-.85,2.86,3.62,5.53,7.28,8.84,10.4-1.23,1.06-1.65,1.18-3.91,1.04-.6-.81-1.26-1.69-1.9-2.6-.18-.25-.05-.5.3-.71,1.04.91,1.87,2.1,3.04,2.94.35-.22.61-.39.96-.61-.44-.38-.8-.66-1.12-.98Zm-4.13-3.06q-.86-.61-1.24-1.61c.28.29.46.45.6.64.18.24.34.51.64.97Zm3.97-.5c.29-.15.45-.24.72-.38.75.76,1.51,1.54,2.25,2.3.38-.29.24-.51.1-.72-.57-.85-1.2-1.66-1.49-2.71.28.32.55.64.83.95.79.87,1.57,1.75,2.39,2.59.36.37.8.62,1.35.46-.47.92-1.32,1.35-2.21,1.85-1.59-1.22-2.66-2.84-3.96-4.34Zm-17.59-18.37c-.92-2.12-1.81-4.24-2.52-6.45-.28-.88-.74-1.7-1.01-2.58-.59-1.95-1.13-3.93-1.67-5.9-.26-.95-.48-1.92-.67-2.89-.06-.29.04-.61.07-.92.12.14.28.26.34.42,1.99,5.32,4.3,10.5,6.83,15.58.18.35.31.73.45,1.08-.19.37-.41.65-.21,1.11.51,1.14.93,2.33,1.42,3.48.88,2.06,1.58,4.2,2.71,6.15,2.8,4.85,5.51,9.77,9.24,14,.08.09.11.21.17.33-.5.27-.93.06-1.22-.3-.92-1.11-1.82-2.24-2.66-3.41-4.45-6.16-8.26-12.7-11.29-19.69Zm124.52,18.78c.37,2.14-.53,3.72-1.91,5.16-.55.57-1.09,1.15-1.68,1.67-.74.66-1.54,1.19-2.54,1.45-1.14.29-2.22.93-3.36,1.03-1.28.11-2.61-.14-3.9-.37-2.77-.48-5.53-1.04-8.29-1.59-.36-.07-.69-.28-1.23-.5,1.83-.81,3.64-.2,5.43-.81-.67-.85-1.44-1.11-2.3-1.13-1.98-.05-3.93.27-5.79.91-2.6.89-5.15,1.94-7.72,2.93-.18.07-.37.25-.54.23-1.03-.14-1.52.56-2.04,1.24-.71.95-1.47,1.87-2.12,2.86-.5.77-.99,1.58-1.26,2.45-.64,2.09-2.08,3.48-3.74,4.7-.68.51-1.44.91-2.23,1.41-.87-.59-1.84-.47-2.78-.31-3.41.6-6.81,1.29-10.22,1.87-2.33.4-4.63.37-6.94-.47-2.21-.81-4.35-1.84-6.66-2.38-.9-.21-1.78-.46-2.71-.32-.61.09-1.16-.08-1.69-.39-1.53-.89-3.1-1.72-4.6-2.66-.65-.41-1.17-1.05-1.73-1.6-.23-.22-.41-.49-.58-.69-.67,0-.8.42-.62.79.32.64.77,1.21,1.16,1.82q-.52.3-1.03-.36c-.95,0-1.99-.05-3.03,0-3.02.16-5.99.66-8.88,1.59-.31.1-.62.21-.91.36-1.92.99-4.01,1.3-6.1,1.34-2.21.04-4.1-.78-5.06-3.01.11-.35.21-.67.33-1.04-.34-.75-.76-1.49-1.4-2.08-.92-.85-1.86-1.66-3.04-2.15-.42-.17-.85-.39-1.18-.69-1.03-.94-1.59-2.07-1.31-3.53.18-.96.33-1.93,1.07-2.81.52.37,1.03.66,1.45,1.05,2.44,2.25,5.21,2.15,8.11,1.19,3.51-1.16,5.76-3.74,7.67-6.77,1.81-2.88,2.59-6.03,2.87-9.37.03-.38.16-.75.28-1.26-.55-.68-.94-1.57-.67-2.53-.43-.77-1.2-1.21-1.19-2.12.38-.28.61.06.83.21.75.53,1.46,1.12,2.2,1.67.7.51,1.35,1.03,1.26,2.04-.01.14.22.31.34.46.12-.09.23-.16.35-.24.08.06.18.12.25.2.46.54,1.01,1.04,1.34,1.65.31.56.37,1.26.58,1.89,1.27,3.91,3.02,7.59,5.13,11.11.33.56.62,1.17.78,1.79.16.63.5,1.07.94,1.46,1.47,1.3,3.82,1.52,5.29.41.5-.38.92-.94,1.23-1.51.29-.53.2-1.15-.2-1.78-.21.16-.42.28-.58.45-.18.19-.33.41-.47.63-1,1.52-2.34,2.05-4.13,1.4-2.24-4.28-4.47-8.62-5.91-13.3-.63-2.06-1.29-4.15-1.12-6.39.07-.97-.11-1.97-.18-2.92.44-.16.53.1.62.34.62,1.74,1.27,3.47,1.85,5.22.54,1.64,1.29,3.18,2.14,4.67.49.86.98,1.72,1.51,2.55,1.25,1.95,2.82,3.64,4.41,5.3,1.41,1.47,3.27,2.17,5.13,2.82,1.87.65,2.39.42,3.67-1.24.65-.3,1.28,0,1.92.08.96.12,1.8-.11,2.58-.67,1.26-.9,2.61-1.12,4.04-.47.9.41,1.8.72,2.81.8,1.06.09,1.94-.33,2.77-.81.39-.23.55-.84.83-1.31.86.4,1.76.9,2.73,1.24,1.08.38,2.02-.29,2.98-.69.6.39,1.13.76,1.69,1.1.34.21.7.37,1.05.54,1.86.94,3.64,1.06,5.27-.65.59.32,1.15.64,1.73.93.76.38,1.47.35,2.22-.14,1.09-.7,1.88-1.63,2.51-2.74,1.37-2.43,2.37-5.01,3.14-7.69.46-1.59.84-3.19,1.25-4.79.57-2.25.7-4.56.84-6.97.94.89,1.32,2.32,2.73,2.8.65-2-.86-3.25-1.4-4.74.04-.74.27-1.31.88-1.59.41,1.01.79,1.99,1.21,2.95.75,1.69,1.52,3.37,2.3,5.04.25.54.55,1.05.86,1.56.18.29.29.56.19.92-.22.83.25,1.4.84,1.86,1.09.87,2.31,1.49,3.6,2,2.95,1.15,6,1.9,9.06,2.62.31.07.62.17,1.14.31-.73.52-1.36.72-2.03.85-2.05.42-4.1.89-6.21.84-3.72-.1-7.1-1.15-9.77-3.93-1.17-1.22-1.81-2.74-2.2-4.36-.09-.38-.14-.78-.21-1.17-.25-1.6-.23-1.72.52-3.15-.6-.18-1.01-.12-1.1.26-.18.7-.4,1.42-.38,2.12.1,3.29,1.04,6.26,3.6,8.48.79.68,1.68,1.29,2.61,1.74,3.26,1.57,6.66,2.32,10.3,1.73,2.23-.36,4.09-1.33,5.64-3.11,1.12.04,2.38.5,3.53-.44-.62-.93-1.47-1.4-2.43-1.63-1.02-.25-2.05-.47-3.08-.59-2.61-.3-5.17-.86-7.7-1.54-1.19-.32-2.34-.81-3.44-1.38.17-.42.44-.31.66-.26,2.11.47,4.23.91,6.33,1.43,2.64.65,5.31.71,8.08.39.31.25.63.58,1.02.81.33.19.72.26,1.06.37.3,1.46.66,2.87.84,4.3.11.91-.21,1.87-.06,2.77Zm-11.93-11.01c-.65-.04-1.25-.19-1.82-.63.38-.3.72-.56,1.05-.82.34-.27.68-.55,1.25-1.02-.2,1.02-.34,1.75-.48,2.48Zm1.37-1.8c1-1.77,1.95-3.56,2.95-5.33.28-.5.63-.97.99-1.51.07.23.18.37.14.45-.84,1.7-1.64,3.43-2.56,5.09-.59,1.09-1.32,2.1-2.04,3.12-.21.3-.55.27-.83,0,.75-.37.97-1.16,1.34-1.81Zm26.61-66.8c-.05,2.63-.14,5.27-.47,7.89-.29,2.29-.46,4.6-.84,6.88-.82,4.88-1.64,9.77-3.01,14.54-.99,3.43-1.97,6.86-3.12,10.23-1.56,4.56-3.23,9.09-4.96,13.59-1.66,4.33-3.8,8.42-6.24,12.35-.27.44-.66.82-.99,1.22-.37.45-.74.91-1.1,1.34.43.64.73.75,1.03.41.59-.7,1.16-1.43,1.75-2.14.15-.18.32-.34.7-.73-.23,1.64-.91,2.76-1.44,4.01-1.35.47-2.69.78-4.16.16,1.24-2.74,2.64-5.27,4.26-7.68,1.11-1.65,2.04-3.39,2.81-5.22.3-.73.7-1.42,1.01-2.15.2-.47.43-.96.09-1.51-.25-.39.05-.76.2-1.11,1.16-2.73,2.35-5.46,3.5-8.19.26-.6.45-1.24.62-1.87.03-.1-.18-.28-.38-.56-.34.71-.63,1.28-.89,1.87-1.69,3.8-3.36,7.61-5.06,11.4-.83,1.87-1.71,3.71-2.56,5.57-.8,1.74-1.73,3.4-2.76,5.02-.89,1.41-2,2.61-3.05,3.87-.3.36-.69.3-1.07-.15,6.08-9.55,10.54-19.92,14.67-30.61-.49.02-.72.03-.95.04,0-.36.02-.72.03-1.05-.41-.15-.58.07-.7.3-.77,1.53-1.53,3.07-2.3,4.61-1.35,2.72-2.69,5.45-4.04,8.16-.08.16-.25.28-.47.51-.19-.99.58-1.68.47-2.53-.35-.19-.45.1-.56.33-.94,2.03-1.87,4.08-2.82,6.11-1.48,3.17-2.86,6.38-4.75,9.34-1.21,1.89-1.17,1.93-3.23,3.52-.5-.16-1.06-.32-1.62-.51-.16-.06-.3-.19-.61-.39l1.5-.21c1.51-1.8,2.41-4.02,3.97-6.15-.03.67-.05,1.03-.07,1.42.71-.52.71-.52.87-.88.79-1.81,1.6-3.62,2.39-5.44,3.23-7.45,6.45-14.9,9.67-22.36.16-.36.32-.73.41-1.11.04-.14-.11-.33-.24-.67-.32.49-.62.83-.81,1.23-.97,2.1-1.92,4.2-2.85,6.31-1.12,2.53-2.2,5.09-3.36,7.61-.63,1.37-1.4,2.68-2.1,4.02-.45-.23-.24-.47-.15-.67.76-1.68,1.54-3.36,2.29-5.05.23-.53.54-1.04.27-1.7-.09-.23.11-.62.24-.9,1.59-3.34,3.2-6.67,4.79-10,.71-1.49,1.4-2.99,2.09-4.49.21-.47.37-.96.54-1.42-.39-.25-.57-.03-.69.2-.54,1.06-1.06,2.13-1.59,3.19-2.77,5.55-5.54,11.1-8.32,16.65-.17.34-.47.61-.71.91.03.83-.49,1.47-.81,2.16-.9,1.98-1.89,3.93-2.85,5.88-.01-.61-.06-1.21.25-1.8.92-1.78,1.77-3.59,2.68-5.38.17-.33.47-.59.71-.89.06-.44.12-.89.18-1.36q-1.14.54-1.69,1.45c-.69,1.13-1.37,2.25-2.06,3.37-.31.49-.64.97-.97,1.47-.39-.38-.14-.61-.04-.82,3.77-7.48,7.55-14.97,11.34-22.44.63-1.23,1.34-2.42,1.98-3.65.32-.62.92-1.17.57-1.99.29-.59.56-1.19.88-1.76,1.02-1.78,2.03-3.55,3.09-5.3,1.46-2.44,2.56-5.06,3.67-7.67,1.08-2.55,2.18-5.1,3.21-7.67,1.11-2.75,2.15-5.54,3.21-8.31.07-.18.13-.37.34-.96.35,1.75.59,2.96.78,4.19.22,1.37.43,2.74.4,4.11Zm-18.3,50.72c1.34-3.15,2.77-6.12,4.25-9.11.35.34.15.58.06.8-1.04,2.41-2.09,4.83-3.16,7.23-.2.44-.34.99-1.15,1.08Z"/><path d="m175.22,95.34c-.25-.14-.34-.36-.2-.52.25-.28.53-.5.83-.7,2.3-1.56,4.61-3.1,6.91-4.66,3.08-2.1,6.15-4.21,9.22-6.32,1.11-.76,2.22-1.52,3.33-2.28.18-.12.37-.22.56-.33.26.38.01.54-.12.67-.78.72-1.57,1.42-2.36,2.11-3.36,2.92-6.97,5.35-10.65,7.62-2.5,1.54-5.04,2.97-7.53,4.43Z"/><path d="m31.64,105.11c.11-.17.17-.35.23-.34.48.05.96.08,1.44.22,2.52.73,5.04,1.45,7.56,2.24,2.15.68,4.3,1.7,6.44,2.8.14.07.27.21.4.32-.04.5-.2.45-.32.42-1.36-.38-2.72-.72-4.08-1.17-2.83-.94-5.66-1.96-8.49-2.93-.65-.22-1.3-.37-1.95-.59-.31-.11-.62-.28-.93-.47-.1-.06-.18-.29-.3-.49Z"/><path d="m146.53,52.2c.28,2.23-.26,3.97-1.76,5.4-1.45,1.39-3.04,2.52-5.09,2.74-1.65.18-2.88-.65-3.83-1.93-.09-.13.04-.5.17-.68.08-.11.41-.16.54-.09.39.23.71.58,1.1.8.8.45,1.62.44,2.43-.01,1.35-.76,2.42-1.82,3.16-3.17.44-.82.67-1.71.19-2.64-.3-.58-.55-1.19-.85-1.77-.38-.75-.17-1.26.63-1.49,1.29-.37,2.17,0,2.78,1.17.12.23.24.47.31.72.11.38.17.77.2.96Z"/><path d="m32.88,116.14c.84-.34,1.6.18,2.35.21.73.03,1.46.06,2.2.09.76.03,1.52.08,2.28.09.73.01,1.46.01,2.19,0,.76-.02,1.51-.09,2.27-.09.73,0,1.46.05,2.2.05.75,0,1.5-.03,2.24-.05.08.44,0,.59-.11.62-.47.11-.93.32-1.41.27-.97-.11-1.9.26-2.85.36-1.26.14-2.51.24-3.78.17-.79-.04-1.58-.03-2.36-.05-.2,0-.39,0-.59-.04-1.16-.21-2.32-.42-3.47-.65-.28-.06-.56-.19-.84-.35-.08-.05-.16-.3-.31-.61Z"/><path d="m48.87,103.26c-.18.29-.37.05-.56-.06-1.26-.76-2.5-1.81-3.71-3.06-1.8-1.86-3.52-4.18-5.24-6.48-.23-.31-.45-.69-.65-1.07-.08-.15-.12-.4-.17-.58.12-.38.27-.39.41-.26.3.28.6.58.88.95,2.83,3.74,5.76,6.93,8.72,9.95.1.11.2.27.3.41.02.03.02.12.03.21Z"/><path d="m178.17,99.75c.65-.77,1.21-.85,1.74-.97,2.08-.47,4.17-.94,6.26-1.38,1.19-.25,2.4-.46,3.6-.67,1-.18,2-.36,3.01-.5.34-.05.69-.01,1.05-.02-.05.49-.34.49-.56.56-1.75.55-3.5,1.13-5.27,1.6-2.07.55-4.17.93-6.3,1.14-.81.08-1.59.32-2.4.44-.27.04-.56-.09-1.13-.2Z"/><path d="m173.36,90.77c-.35-.13-.5-.34-.38-.57.26-.5.54-1,.87-1.43,2.14-2.74,4.29-5.45,6.43-8.17.75-.95,1.49-1.9,2.25-2.85.14-.17.3-.32.53-.15-.74,1.79-4.18,6.71-6.33,9.34-1.1,1.34-2.03,2.91-3.37,3.84Z"/><path d="m150.9,58.54c-.62.04-1.07.03-1.51.11-1.15.22-1.95,1.13-2.09,2.31-.1.8.26,1.41,1,1.73.62.27,1.26.29,1.92.18.9-.15,1.8-.25,2.65.06.18.55-.15.82-.42,1.06-.49.44-1.05.79-1.73.86-1.21.14-2.33-.09-3.35-.79-1.68-1.17-2.01-2.64-.98-4.43.88-1.53,2.5-2.13,4.19-1.56.09.03.14.2.31.47Z"/><path d="m56.01,62.24c.29-.06.66-.16,1.03-.22.91-.14,1.56-.63,1.98-1.45.18-.35.37-.7.51-1.07.45-1.14.38-1.38-.53-2.22-.29-.27-.6-.52-.82-.84-.13-.19-.18-.53-.1-.73.08-.19.37-.4.58-.41,1.65-.13,3.15,1.48,2.99,3.14-.16,1.67-.99,3-2.14,4.12-.85.84-1.98.97-3.12.7-.38-.09-.68-.4-.4-1.02Z"/><path d="m138.51,65.66c.16-1.14.52-1.53,1.77-1.89,2.05-.59,3.98-.57,5.47,1.17q0,1.98-.81,3.3c-.99-.01-1.44-.7-1.7-1.54-.13-.42-.13-.89-.2-1.35-1.54-.87-2.94-.23-4.53.31Z"/><path d="m67.93,59.46c-.8-.1-1.3-.21-1.79-.2-1.36.02-2.04,1.24-1.48,2.5.42.93,1.12,1.42,2.18,1.66.64-.26,1.36-.54,2.06-.82.32.15.34.41.25.67-.7,2.04-2.36,1.98-3.64,1.4-1.2-.55-1.94-1.56-2.28-2.83-.42-1.57.77-3.22,2.41-3.4.79-.09,1.58-.11,2.28,1.02Z"/><path d="m62.35,66.45c-1.9-.53-3.24.65-4.68,1.17-.44-.27-.23-.56-.08-.71,1.16-1.15,2.55-1.84,4.18-1.94,1.82-.11,2.99,1.55,2.4,3.36-.05.16-.24.38-.38.39-.23.01-.52-.06-.68-.21-.18-.16-.28-.43-.36-.68-.08-.25-.07-.52-.13-.78-.05-.19-.14-.36-.25-.61Z"/><path d="m110.73,122.62c.19-.92.66-1.71,1.19-2.47,1.9-2.69,3.82-5.37,5.75-8.03.38-.53.87-.99,1.27-1.51.54-.71,1.18-1.18,2.09-1.35.43-.08.8-.42,1.22-.61,1.11-.5,2.24-.76,3.42.06.46,1.46-.49,2.6-.99,3.91.06.27.13.59.22.96.77-.11,1.48-.21,2.19-.3,1.65-.21,3.27,0,4.83.55,2.82,1,3.41,3.4,3.3,5.27-.09,1.54-.58,2.98-1.34,4.31-.43.75-.98,1.4-1.68,1.91-2.27,1.65-4.81,2.36-7.58,2.2-2.78-.16-4.31-.34-7.77-3.51-.3.15-.65.29-.96.5-.38.26-.7.6-1.08.85-.53.35-1.1.37-1.67.05-1.12-.64-1.95-1.54-2.4-2.8Zm13.51-6.91c-1.87,2.73-4.34,4.73-6.29,7.19.17.25.25.44.39.56,1.49,1.3,3.24,1.91,5.21,2.01,2.23.11,4.29-.38,6.15-1.61,1.98-1.3,2.85-3.2,2.62-5.59-.09-.9-.55-1.46-1.41-1.68-.63-.15-1.27-.31-1.92-.4-1.29-.19-2.59-.34-3.89-.49-.25-.03-.51,0-.85,0Z"/><path d="m89.67,113.45c.19-.65.73-.8.9-1.37.24-.81,1.55-.98,2.38-.43.38.25.71.58,1,.93.92,1.11,1.84,2.23,2.71,3.39,2.21,2.95,4.39,5.91,6.57,8.88.35.48.65.99.98,1.48.38.57.52,1.21.54,1.87.01.4.06.83-.33,1.07-.49.31-.9,0-1.22-.32-.56-.54-1.08-1.13-1.58-1.74-.45-.55-.86-1.13-1.37-1.8-.26.29-.47.44-.57.65-1.32,2.92-3.86,4.04-6.76,4.4-2.23.27-4.42-.1-6.44-1.26-2.73-1.57-3.46-4.19-2.33-6.73,1.21-2.72,3.23-4.61,6.17-5.35.42-.11.84-.25,1.36-.4-.4-1.34-1.64-2.02-2.02-3.26Zm8.4,11.1c-1.68-2.36-2.96-4.89-5.31-6.72-.25.01-.59-.02-.89.06-.63.18-1.26.37-1.84.65-2.22,1.06-3.88,2.64-4.61,5.09-.39,1.29-.04,2.34.94,3.19.34.3.73.57,1.14.76,1.76.83,3.56.98,5.5.57,2.13-.46,3.65-1.62,5.07-3.6Z"/><path d="m112.47,139.33c.47,1.03.6,2.13-.02,3.18-.71,1.21-1.55,2.35-2.93,2.81-2.28.76-4.59,1.03-6.91.04-.79-.34-1.5-.78-2.11-1.41-1.15-1.19-1.51-2.58-1.11-4.18.1-.38.18-.77.26-1.15-.22-.46-.66-.33-1.03-.43-1.23-.32-1.73-1.16-1.37-2.38.14-.49.38-1.02.73-1.36,1.04-1.02,2.21-1.86,3.64-2.26.46-.13.91-.14,1.28.37-.55.87-1.73.83-2.37,1.59-.57.67-1.46,1.08-1.82,2.16.37.04.61.12.83.08.77-.15,1.53-.35,2.3-.5.38-.07.77-.09,1.16-.08.63.01,1.14.27,1.45.85.09.17.21.34.31.51.3.51.76.71,1.33.66.72-.07,1.44-.12,2.14-.26,1.36-.28,2.71-.47,3.95.06,1.09-.31,1.88-.79,2.14-1.97-.32-.04-.57-.11-.83-.11-1.58,0-2.3-1.08-2.85-2.33-.28-.64-.18-1.28.36-1.84,1.15.3,1.25,1.64,2.2,2.26.51-.02,1.09-.08,1.67-.07.68.01,1.07.4,1.16,1.1.18,1.37-.35,2.48-1.37,3.32-.64.53-1.42.88-2.19,1.34Zm-8.53-.62c-.41.54-.79.98-1.1,1.48-.53.84-.33,2,.52,2.41,1.51.74,3.09,1.1,4.7.23,1.78-.96,1.97-2.22.8-3.49-.13-.14-.29-.26-.48-.42-1.46.1-2.96.49-4.45-.22Zm-.41-.8c-.87-.4-1.35-.39-1.79.13-.83.98-1.35,2.1-1.03,3.43.08.32.17.74.76.76-.49-2,.73-3.19,2.06-4.33Zm7.28,1.96c-.04.45-.08.84-.1,1.22-.02.41-.34.8-.07,1.46.3-.56.54-.94.71-1.34.25-.58-.03-.97-.54-1.35Z"/><path d="m123.51,133.06c-1.16-.88-2.26-1.47-3.11-2.35.14-.45.41-.34.61-.22.51.3.98.65,1.49.95,1.8,1.07,3.72,1.86,5.94,2.32-.44.45-.88.46-1.27.43-1.69-.15-3.37-.31-5.05-.51-1.49-.18-3.55-.99-5.07-1.93.23-.38.54-.23.84-.14,1.56.47,3.12.95,4.68,1.4.23.07.49.03.94.04Z"/><path d="m74.85,110.34c-.04.49-.06.74-.08,1.06,1.52-.08,2.07-1.17,2.49-2.36.6.23.82.64.76,1.13-.13,1.09-.79,1.8-1.79,2.16-.99.36-1.94.41-2.61-.64q.36-.72,1.23-1.35Z"/><path d="m82.09,112.77c-.38,1.08-.98,1.81-2.04,1.97-1.32.21-2.13-.52-2.07-1.88.04-.93.89-1.72,1.92-1.76.04,0,.08.08.19.19-.3.32-.65.61-.88.97-.16.24-.26.61-.2.88.08.4.66.56,1.15.38.42-.16.83-.37,1.25-.54.22-.09.46-.15.7-.22Z"/><path d="m145.53,100.32c2.69,1.67,5.55,2.88,8.71,3.28.46.06.66.38.89.69l.02-.03c-1.29-.2-2.59-.35-3.86-.6-1.82-.36-3.48-1.12-5.01-2.16-.38-.26-.76-.53-.87-1.02l.12-.15Z"/><path d="m131.08,107.74q1.92-.52,2.83-2.71c.51.01.62.46.65.79.14,1.69-1.51,2.89-3.15,2.33-.1-.03-.16-.19-.32-.41Z"/><path d="m137.51,106.19c-.02.5-.03,1-.05,1.47.35.76,1.13.78,1.74.97-.09.52-.39.67-.72.69-.59.03-1.18-.07-1.59-.56-.16-.19-.35-.45-.35-.67,0-.51.06-1.03.17-1.52.05-.21.29-.36.45-.55.11.06.22.12.34.18Z"/><path d="m145.65,93.75c.73.54.9,1.43,1.4,2.08.48.62.92,1.27,1.37,1.9-.17.33-.42.22-.64.09-1.39-.84-1.92-2.24-2.35-3.7-.02-.08.11-.2.21-.38Z"/><path d="m76.07,117.35c-.5-.53.05-1.78-1.43-1.68.29-.47.39-.79.61-.96.36-.29.74-.11,1.07.13.55.39.65.98.55,1.58-.07.44-.16.94-.81.93Z"/><path d="m151.89,91.65c.32.16.48.18.53.27.62,1.12,1.21,2.25,1.86,3.46-.92-.28-1.15-.38-1.46-.87-.51-.81-1.03-1.64-.94-2.86Z"/><path d="m133.27,109.19c.46-.53.96-.58,1.44-.44.29.08.62.28.76.52.17.31.22.73.21,1.1,0,.2-.23.4-.43.7-.34-.46-.57-.85-.88-1.15-.31-.29-.71-.47-1.1-.73Z"/><path d="m62.81,105.07c-.17-.55-.31-.77-.29-.98.12-1.07.63-2.1,1.71-3.55.1.16.28.34.24.43-.27.67-.6,1.31-.87,1.97-.25.59-.45,1.2-.79,2.13Z"/><path d="m95.89,135.42c-.97.94-2.05,1.75-3.19,2.33-.49-.13-.44-.4-.22-.57,1.01-.8,2.17-1.34,3.42-1.76Z"/><path d="m148.62,92.89c.8.73,1.43,1.95,1.7,3.3-1.02-.54-1.6-1.66-1.7-3.3Z"/><path d="m65.23,105.18c-.24-1.26.19-2.53,1.28-3.82.17.84-.01,1.4-1.28,3.82Z"/><path d="m68.65,102.55c-.33,1.15-.49,2.4-1.05,3.53-.47-.1-.27-.37-.23-.57.19-.97.38-1.94.62-2.9.06-.25.34-.38.66-.06Z"/><path d="m125.99,131.78c-.74-.29-1.3-.74-1.74-1.43,1.33-.13,1.94.37,1.74,1.43Z"/><path d="m145.41,100.47q-1.26-.91-1.98-2.41c.79.38.83.43,2.1,2.26l-.12.15Z"/><path d="m90.09,138.63c-.47.93-1.15.91-2.07.85.63-.66,1.18-.97,2.07-.85Z"/><path d="m93.63,134.96c.03.21.06.29.04.33-.24.47-.59.75-1.15.66-.04,0-.1-.09-.09-.13.09-.62.57-.72,1.2-.86Z"/><path d="m75.03,211.35c.6-.42.84-.63,1.11-.77,2.67-1.42,4.44-3.64,5.52-6.42.47-1.22.7-2.53,1.04-3.8.12-.44.24-.87.37-1.3.01-.05.11-.07.24-.15.4,1.64.58,3.23.03,4.86-1.08,3.22-3.22,5.52-6.04,7.25-.57.35-1.17.55-2.27.33Z"/><path d="m81.23,214.18q2.77-2.82,5.91-7.56s.11-.07.23-.13c.09.14.28.3.25.41-.77,2.97-2.22,5.49-4.78,7.25-.32.22-.69.37-1.06.46-.26.06-.5-.11-.54-.43Z"/><path d="m157.2,201.61c-.39.17-.57.31-.74.31-3.1-.12-6.09-.74-8.8-2.33-1.08-.63-2.07-1.39-2.76-2.47-.25-.38-.51-.78-.25-1.33.16.1.36.15.43.28,1.1,1.87,2.85,2.83,4.8,3.53,1.6.58,3.21,1.11,4.89,1.4.75.13,1.49.37,2.43.62Z"/><path d="m161.29,200.46c.96-.43,1.98-.21,2.91-.46.93-.25,1.85-.52,3.02-.85-.19.44-.24.7-.38.85-.92.97-2.07,1.39-3.37,1.22-.73-.1-1.6.11-2.18-.76Z"/><path d="m73.88,195.59c-.68-.62-1.3-1.1-1.82-1.68-1.55-1.69-3.12-3.36-4.76-4.97-2.87-2.81-5.33-5.98-7.72-9.21-1.49-2.01-2.93-4.04-4.39-6.08-.21-.3-.34-.66-.49-.97.43-.32.57,0,.7.17,1.05,1.35,2.08,2.71,3.11,4.08.87,1.15,1.74,2.31,2.61,3.46.16.21.3.45.5.61,2.22,1.68,3.71,4.06,5.65,6.01,1.25,1.25,2.42,2.58,3.63,3.87.84.91,1.67,1.84,2.52,2.74.4.42.37,1.07.84,1.45,0,0-.14.19-.37.52Z"/><path d="m71.56,185.15c-.28-.35-.53-.74-.85-1.05-2.81-2.77-5.63-5.52-8.44-8.28-.17-.16-.27-.4-.39-.58.12-.12.17-.21.2-.2.12.03.26.07.36.15.25.21.47.45.71.68.75.74,1.49,1.49,2.24,2.22.47.46.97.89,1.44,1.34.24.22.46.47.7.69,2.87,2.61,5.73,5.22,8.6,7.84.03.03.02.12.03.19-.28.24-.48,0-.67-.13-1-.75-1.97-1.53-2.97-2.28-.31-.23-.66-.4-.99-.6l.04.03Z"/><path d="m121.19,157.39c-1.03-1.91-1.69-3.79-2.48-5.8.29.08.53.07.58.17.64,1.28,1.29,2.55,1.87,3.86.21.48.41,1.05.04,1.77Z"/><path d="m68.58,150.25c-.12-.4-.24-.57-.22-.73.3-1.96.91-3.82,1.79-5.6.13-.26.37-.48.67-.86.31.85-.2,1.3-.35,1.82-.18.63-.46,1.23-.67,1.85-.19.56-.36,1.12-.55,1.68-.19.55-.39,1.09-.67,1.84Z"/><path d="m129.13,119.51c-.45.53-.89.59-1.31.32-.32-.2-.61-.48-.85-.77-.26-.3-.4-.68-.2-1.08.22-.46.79-.76,1.28-.7.44.05.89.42.96.84.07.44.08.89.13,1.39Z"/><path d="m89.2,122.05c-.02.32-.01.38-.03.45-.13.45-.28.91-.82.98-.5.07-1.08-.44-1.22-1.08-.05-.22.03-.55.18-.71.15-.16.48-.3.68-.24.42.13.8.39,1.21.61Z"/><path class="cls-4" d="m141.28,155.69l2.05-1.85.51-1.8-2.33-4.54s-1.33-2.73-9.74.05l-.66,1.25s.09.45.22.62,8.42,6.43,8.42,6.43l1.53-.16Z"/><path class="cls-4" d="m119.19,151.12s-1.72.16-1.8.17-2.13.1-2.62,2.39l2.99,5.04s1.6-.06,1.81-.06,2.66-1.34,2.83-1.47.12-1.91.02-2.19-3.23-3.88-3.23-3.88Z"/><path class="cls-4" d="m109.18,154.45l-.48-.61s-4.77-1.42-6.83,1.94l2.17,6.7,1.82-1.2,1.45-2.14,1.88-4.69Z"/><path class="cls-4" d="m99.48,153.25s-6.84-4.67-10.54-.71l-.46,6.71s.3,1.01.36,1.08,3.1-.21,3.26-.26,1.6-1.46,1.68-1.61,1.04-2.03,1.5-2.58,4.19-2.63,4.19-2.63Z"/><path class="cls-4" d="m82.88,151.03s-.06-4.02-2.81-4.18c-2.75-.16-2.43,4.76-2.44,4.87s-.68,2.52-.75,2.94.23,1.27.27,1.58,1.32.66,1.4.67.64-.25,1.01-.63,1.01-1.46,1.33-2.02,2-3.25,2-3.25Z"/><path class="cls-4" d="m71.84,149.12l1.75-.06s1.81-3.32-.64-5.52c-2.44-2.2-7.03-1.33-7.7,1.68-.66,3.01.98,8.02.98,8.02,0,0,2.07-.53,2.15-.51s3.45-3.61,3.45-3.61Z"/><path class="cls-4" d="m137.37,138.92l9.2-1.4s5.21-.75,6.7-3.39-9.39-4.7-9.39-4.7l-9.19,2.08s-.43,2.73-.29,3.2,2.98,4.21,2.98,4.21Z"/><path d="m153.77,137.55l-4.3.59s-3.17.32-3.29.33-3.19,1.05-3.17,1.17.35,1.98.82,2.52,5.59,2.11,6.05,2.24,2.21.34,2.65.57,3,.19,3.6-.09,1.31-.71,1.5-1.95-3.86-5.38-3.86-5.38Z"/><path class="cls-4" d="m150.84,138.99c-.18-.3-5.02-.33-6.94,3.66,0,0,.91,2.51,2.54,3.37s4.46,3.63,7.51,6.24c0,0,1.09-6.09-3.11-13.27Z"/><g id="Berwick_Logo_BIG"><g class="cls-2"><rect class="cls-7" x="307.21" y="175.31" width="3.54" height="17.64"/><g class="cls-9"><path class="cls-7" d="m320.95,181.23c0-2.57-.51-3.67-2.11-3.67-1.79,0-2.2,1.79-2.2,6.8,0,5.33.73,6.29,2.25,6.29,1.29,0,2.2-.69,2.2-4.46h3.54c0,3.81-.92,7.07-5.6,7.07-5.33,0-6.02-3.81-6.02-9.19s.73-9.14,6.06-9.14,5.47,3.72,5.47,6.29h-3.58Z"/><path class="cls-7" d="m320.95,181.23c0-2.57-.51-3.67-2.11-3.67-1.79,0-2.2,1.79-2.2,6.8,0,5.33.73,6.29,2.25,6.29,1.29,0,2.2-.69,2.2-4.46h3.54c0,3.81-.92,7.07-5.6,7.07-5.33,0-6.02-3.81-6.02-9.19s.73-9.14,6.06-9.14,5.47,3.72,5.47,6.29h-3.58Z"/><polygon class="cls-7" points="330.27 175.31 330.27 182.33 330.32 182.33 334.77 175.31 338.63 175.31 333.85 182.84 339.18 192.9 335.19 192.9 331.56 185.69 330.27 187.66 330.27 192.9 326.69 192.9 326.69 175.31 330.27 175.31"/><rect class="cls-3" x="249.16" y="195.56" width="1.7" height="8.4"/><polygon class="cls-3" points="254.31 195.56 256.33 201.3 256.37 201.3 256.37 195.56 257.93 195.56 257.93 203.96 256 203.96 253.94 198.09 253.89 198.09 253.89 203.96 252.33 203.96 252.33 195.56 254.31 195.56"/><path class="cls-3" d="m260.69,201.35v.23c0,.78.23,1.29,1.1,1.29.51,0,1.01-.32,1.01-1.06,0-.78-.37-1.06-1.52-1.42-1.47-.51-2.16-1.1-2.16-2.53,0-1.65,1.01-2.48,2.62-2.48,1.52,0,2.57.64,2.57,2.25v.28h-1.61c0-.78-.28-1.24-.92-1.24-.78,0-.96.46-.96.96s.14.83.87,1.15l1.29.55c1.29.55,1.61,1.19,1.61,2.2,0,1.79-1.1,2.57-2.89,2.57-1.93,0-2.66-.87-2.66-2.43v-.32h1.65Z"/><path class="cls-3" d="m267.26,195.56v5.83c0,.83.18,1.47.96,1.47s.96-.64.96-1.47v-5.83h1.7v5.83c0,2.16-1.29,2.71-2.66,2.71s-2.66-.46-2.66-2.71v-5.83h1.7Z"/><path class="cls-3" d="m272.22,195.56h3.12c1.38,0,2.25.73,2.25,2.16,0,1.1-.46,1.88-1.38,2.07v.05c1.15.14,1.33.78,1.33,2.57,0,.87.05,1.33.37,1.52v.09h-1.84c-.18-.23-.18-.55-.23-.87l-.05-1.61c-.05-.64-.32-1.06-1.01-1.06h-.92v3.54h-1.7v-8.45h.05Zm1.7,3.67h.69c.83,0,1.29-.37,1.29-1.24,0-.78-.41-1.15-1.19-1.15h-.78v2.39Z"/><path class="cls-3" d="m280.58,195.56h2.11l2.2,8.4h-1.75l-.37-1.79h-2.25l-.37,1.79h-1.75l2.16-8.4Zm.23,5.24h1.65l-.83-3.77-.83,3.77Z"/><polygon class="cls-3" points="287.7 195.56 289.72 201.3 289.76 201.3 289.76 195.56 291.28 195.56 291.28 203.96 289.35 203.96 287.28 198.09 287.28 203.96 285.72 203.96 285.72 195.56 287.7 195.56"/><path class="cls-3" d="m296.28,198.41c0-1.24-.23-1.75-1.01-1.75-.87,0-1.06.87-1.06,3.21,0,2.53.37,2.99,1.1,2.99.6,0,1.06-.32,1.06-2.11h1.7c0,1.79-.46,3.35-2.66,3.35-2.53,0-2.85-1.79-2.85-4.36s.32-4.36,2.85-4.36,2.57,1.79,2.57,2.99h-1.7v.05Z"/><polygon class="cls-3" points="303.91 195.56 303.91 196.94 300.92 196.94 300.92 198.91 303.77 198.91 303.77 200.34 300.92 200.34 300.92 202.59 304.05 202.59 304.05 203.96 299.22 203.96 299.22 195.56 303.91 195.56"/><path class="cls-3" d="m311.44,198.04c0-.64-.28-1.42-.96-1.42-.83,0-1.15.83-1.15,2.94s.18,3.31,1.15,3.31c.41,0,1.06-.41,1.06-1.33v-.87h-1.1v-1.24h2.76v4.5h-1.24v-.78h-.05c-.41.64-.96.92-1.75.92-2.07,0-2.48-1.56-2.48-4.46s.64-4.27,2.8-4.27c1.84,0,2.62.96,2.62,2.66h-1.65v.05Z"/><path class="cls-3" d="m314.47,195.56h3.12c1.38,0,2.25.73,2.25,2.16,0,1.1-.46,1.88-1.38,2.07v.05c1.15.14,1.33.78,1.33,2.57,0,.87.05,1.33.37,1.52v.09h-1.84c-.18-.23-.18-.55-.23-.87l-.05-1.61c-.05-.64-.32-1.06-1.01-1.06h-.92v3.54h-1.7v-8.45h.05Zm1.7,3.67h.69c.83,0,1.29-.37,1.29-1.24,0-.78-.41-1.15-1.19-1.15h-.78v2.39Z"/><path class="cls-3" d="m323.89,195.42c2.53,0,2.85,1.79,2.85,4.36s-.32,4.36-2.85,4.36-2.85-1.79-2.85-4.36.32-4.36,2.85-4.36m0,7.44c1.01,0,1.15-.87,1.15-3.12s-.18-3.12-1.15-3.12-1.15.87-1.15,3.12.18,3.12,1.15,3.12"/><path class="cls-3" d="m329.58,195.56v5.83c0,.83.18,1.47.96,1.47s.96-.64.96-1.47v-5.83h1.7v5.83c0,2.16-1.29,2.71-2.66,2.71s-2.66-.46-2.66-2.71v-5.83h1.7Z"/><path class="cls-3" d="m334.54,195.56h2.94c1.7,0,2.3,1.24,2.3,2.53,0,1.75-1.06,2.53-2.66,2.53h-.92v3.35h-1.7v-8.41h.05Zm1.7,3.81h.73c.69,0,1.15-.41,1.15-1.24s-.32-1.29-1.19-1.29h-.69v2.53Z"/><path class="cls-7" d="m249.34,175.3h5.97c2.89,0,5.01,1.1,5.01,4.46,0,1.88-.92,3.35-2.66,3.86v.05c1.93.28,3.22,1.75,3.22,4.09,0,2.76-1.38,5.14-5.51,5.14h-6.02v-17.59Zm3.54,7.21h1.01c1.93,0,2.85-.69,2.85-2.34s-.83-2.3-2.57-2.3h-1.29v4.64m0,7.76h1.38c1.7,0,2.85-.6,2.85-2.66s-1.15-2.66-2.71-2.66h-1.52v5.33"/><path class="cls-7" d="m249.34,175.3h5.97c2.89,0,5.01,1.1,5.01,4.46,0,1.88-.92,3.35-2.66,3.86v.05c1.93.28,3.22,1.75,3.22,4.09,0,2.76-1.38,5.14-5.51,5.14h-6.02v-17.59Zm3.54,7.21h1.01c1.93,0,2.85-.69,2.85-2.34s-.83-2.3-2.57-2.3h-1.29v4.64m0,7.76h1.38c1.7,0,2.85-.6,2.85-2.66s-1.15-2.66-2.71-2.66h-1.52v5.33"/><polygon class="cls-7" points="272.63 175.31 272.63 178.2 266.29 178.2 266.29 182.33 272.26 182.33 272.26 185.27 266.29 185.27 266.29 190 272.86 190 272.86 192.9 262.76 192.9 262.76 175.31 272.63 175.31"/><path class="cls-7" d="m274.65,175.31h6.57c2.89,0,4.68,1.52,4.68,4.55,0,2.34-.92,3.95-2.94,4.36v.05c2.43.32,2.8,1.65,2.85,5.37.05,1.84.14,2.8.78,3.17v.14h-3.86c-.37-.51-.41-1.15-.46-1.84l-.09-3.4c-.05-1.38-.69-2.2-2.11-2.2h-1.88v7.44h-3.54v-17.64Zm3.54,7.67h1.47c1.7,0,2.66-.73,2.66-2.66,0-1.61-.87-2.43-2.48-2.43h-1.7v5.1h.05Z"/><polygon class="cls-7" points="287.24 175.31 290.68 175.31 292.61 188.3 292.66 188.3 294.72 175.31 298.17 175.31 300.23 188.3 300.28 188.3 302.21 175.31 305.65 175.31 302.44 192.9 298.44 192.9 296.47 180.13 296.42 180.13 294.45 192.9 290.45 192.9 287.24 175.31"/><rect class="cls-7" x="307.21" y="175.31" width="3.54" height="17.64"/><rect class="cls-7" x="307.21" y="175.31" width="3.54" height="17.64"/><path class="cls-7" d="m228.31,192.99c-.69-.51-2.07-.78-4.04-.78h-2.76v6.38h2.8c1.79,0,3.12-.23,3.9-.69.78-.46,1.15-1.29,1.15-2.48-.05-1.06-.37-1.88-1.06-2.43"/><path class="cls-7" d="m227.94,185.5c.55-.55.83-1.24.83-2.16,0-.78-.28-1.42-.78-2.07-.51-.6-1.93-.92-4.23-.92h-2.3v5.92h2.76c1.88.05,3.12-.23,3.72-.78"/><path class="cls-7" d="m244.29,175.31h-6.11c.64.41,1.19.92,1.7,1.47,1.19,1.38,1.79,3.03,1.79,4.91s-.55,3.31-1.7,4.36c-1.15,1.1-2.57,1.88-4.23,2.34,2.3.69,4.04,1.75,5.28,3.17,1.24,1.47,1.88,3.12,1.88,4.91,0,2.16-.69,4.04-2.11,5.56-.64.69-1.33,1.24-2.16,1.7h5.7v-28.43h-.05Z"/><path class="cls-8" d="m272.45,211.5h-.96l-.23.64v.09s0,.05.05.09c.05,0,.09.05.18.05.05,0,.05.05.05.09v.09h-.96v-.09s0-.09.05-.09c.09,0,.18-.05.18-.05.05,0,.09-.05.09-.09l1.1-2.62s.05-.09.09-.09h.09l1.1,2.71s.05.09.09.09c.05.05.09.05.18.05.05,0,.05.05.05.09v.09h-1.19v-.14l.05-.05c.09,0,.14-.05.18-.05s.05-.05.05-.09v-.05l-.23-.69Zm-.09-.23l-.37-1.01-.41,1.01h.78Z"/><path class="cls-8" d="m276.72,211.5v-1.61s0-.09-.05-.14c-.05-.05-.14-.05-.23-.05-.05,0-.05-.05-.05-.09v-.09h.96v.09s0,.09-.05.09c-.09,0-.18.05-.18.05,0,0-.05.09-.05.14v2.66h-.14s-.05-.05-.09-.05l-1.79-2.25v1.97s0,.05.05.05c0,0,.05.05.09.05s.09,0,.14.05h.05v.14h-.92v-.14h.05c.09,0,.18-.05.23-.05.05-.05.05-.09.05-.14v-2.3s0-.09-.05-.09c-.05-.05-.09-.05-.23-.05-.05,0-.05-.05-.05-.09v-.09h.83s.05,0,.09.05l1.33,1.88Z"/><path class="cls-8" d="m280.39,212.14v.09s0,.05.05.05c0,0,.05.05.09.05s.09,0,.14.05c.05,0,.05.05.05.09v.09h-1.19v-.09s0-.09.05-.09.09,0,.14-.05c.05,0,.05-.05.09-.05l.05-.05v-2.48s0-.05-.05-.05c0,0-.05-.05-.09-.05s-.09,0-.14-.05c-.05,0-.05-.05-.05-.09v-.09h1.19v.09s0,.09-.05.09-.09,0-.14.05c-.05,0-.05.05-.09.05l-.05.05v2.39Z"/><path class="cls-8" d="m283.93,211.5v-1.61s-.05-.09-.09-.14c-.05-.05-.14-.05-.23-.05-.05,0-.05-.05-.05-.09v-.09h.96v.09s0,.09-.05.09c-.09,0-.18.05-.18.05-.05.05-.05.09-.05.14v2.66h-.14s-.05-.05-.09-.05l-1.79-2.25v1.97s0,.05.05.05c0,0,.05.05.09.05s.09,0,.14.05h.05v.14h-.92v-.14h.05c.09,0,.18-.05.23-.05.05-.05.05-.09.05-.14v-2.3s0-.09-.05-.09c-.05-.05-.09-.05-.23-.05-.05,0-.05-.05-.05-.09v-.09h.83s.05,0,.09.05l1.38,1.88Z"/><path class="cls-8" d="m286.91,209.75v2.48s0,.05.05.05c0,0,.05.05.09.05s.09,0,.14.05c.05,0,.05.05.05.09v.09h-1.19v-.14l.05-.05c.09,0,.18-.05.23-.05.05-.05.05-.09.05-.14v-2.39h-.41c-.09,0-.14,0-.23.05-.05,0-.09.05-.14.09-.05.05-.09.09-.14.14-.05.05-.09.14-.09.18s-.05.05-.05.05h-.09c0-.09.05-.14.05-.18s.05-.09.05-.18,0-.14.05-.18v-.14s.05-.05.09-.05h2.48s.05,0,.09.05v.14s0,.14.05.18c0,.05,0,.09.05.18,0,.05.05.14.05.18h-.09s-.05,0-.09-.05c-.05-.09-.09-.14-.09-.18-.05-.05-.09-.09-.14-.14-.05-.05-.09-.05-.14-.09-.05,0-.14-.05-.23-.05h-.46v-.05Z"/><path class="cls-8" d="m289.72,209.75v1.1h.64s.09-.05.14-.09c0-.05.05-.14.05-.23t.05-.05h.14v.87h-.09s-.09,0-.09-.05c0-.09-.05-.18-.05-.23t-.09-.05h-.64v1.01s.05.09.14.14c.09,0,.23.05.41.05h.18c.09,0,.18,0,.23-.05.05-.05.14-.05.18-.09.05-.05.09-.09.14-.14.05-.05.09-.14.09-.18l.05-.05h.05s.05,0,.05.05v.09s-.05.09-.05.09c0,.05,0,.09-.05.09v.18s0,.05-.05.09v.05s-.05.05-.09.05h-2.2v-.09s0-.09.05-.09c.09,0,.18-.05.23-.09.05-.05.09-.05.09-.14v-2.34l-.05-.05s-.05-.05-.09-.05-.09,0-.14-.05c-.05,0-.05-.05-.05-.09v-.09h2.11s.05,0,.09.05c0,.05,0,.09.05.14,0,.05,0,.14.05.18,0,.05,0,.09.05.14,0,.05.05.09.05.18h-.09s-.05,0-.09-.05c-.05-.09-.09-.14-.09-.18-.05-.05-.09-.09-.14-.14-.05-.05-.09-.05-.14-.09h-1.01v.18Z"/><path class="cls-8" d="m294.45,212.46c-.09,0-.14.05-.18.05s-.14,0-.18.05h-.51c-.28,0-.51-.05-.69-.09-.18-.09-.37-.18-.51-.32s-.23-.28-.28-.51c-.05-.18-.09-.41-.09-.64,0-.18.05-.37.09-.55.05-.18.14-.37.28-.51.14-.14.28-.28.46-.37.18-.09.41-.14.64-.14.18,0,.37,0,.55.05.18.05.37.05.51.09,0,.09,0,.18.05.32,0,.14.05.23.09.37h-.14s-.05,0-.05-.05c-.05-.23-.18-.37-.32-.41-.14-.09-.32-.14-.55-.14-.18,0-.32.05-.41.09-.14.05-.23.14-.32.23-.09.09-.14.23-.18.37-.05.14-.05.32-.05.51s.05.37.09.55c.05.18.14.32.23.46s.23.23.37.28c.14.05.28.09.46.09h.18s.09,0,.14-.05v-.64c0-.09,0-.14-.05-.18-.05-.05-.14-.05-.23-.09t-.05-.05v-.14h1.29v.14l-.05.05c-.09,0-.18.05-.18.05-.05.05-.05.09-.05.14v.78s0,.05-.05.05c-.18.18-.23.18-.32.18"/><path class="cls-8" d="m296.79,211.18h-.18v.96c0,.09.05.14.09.14.05.05.14.05.32.09.05,0,.05.05.05.09v.09h-1.33v-.09s0-.09.05-.09.14,0,.14-.05c.05,0,.09,0,.09-.05l.05-.05v-2.34s0-.09-.05-.14c-.05-.05-.14-.05-.28-.05,0,0-.05,0-.05-.05v-.14h1.24c.14,0,.32,0,.41.05.14.05.23.09.32.18.09.09.14.14.18.28.05.09.09.23.09.32,0,.14-.05.32-.14.46-.09.14-.23.23-.41.28l.73,1.06c.05.09.14.14.18.18.09.05.14.05.18.05h.05v.14h-.64s-.14-.05-.18-.09c-.05-.05-.14-.14-.18-.23l-.73-1.01Zm-.09-.23c.09,0,.18,0,.28-.05.09,0,.14-.05.18-.09.05-.05.09-.09.14-.18.05-.09.05-.18.05-.28,0-.18-.05-.32-.14-.46-.09-.09-.23-.18-.46-.18h-.14v1.19h.09v.05Z"/><path class="cls-8" d="m300.14,212.14v.09s0,.05.05.05c0,0,.05.05.09.05s.09,0,.14.05c.05,0,.05.05.05.09v.09h-1.19v-.09s0-.09.05-.09.09,0,.14-.05c.05,0,.05-.05.09-.05l.05-.05v-2.48s0-.05-.05-.05c0,0-.05-.05-.09-.05s-.09,0-.14-.05c-.05,0-.05-.05-.05-.09v-.09h1.19v.09s0,.09-.05.09-.09,0-.14.05c-.05,0-.05.05-.09.05l-.05.05v2.39Z"/><path class="cls-8" d="m302.9,209.75v2.48s0,.05.05.05c0,0,.05.05.09.05s.09,0,.14.05c.05,0,.05.05.05.09v.09h-1.19v-.14l.05-.05c.09,0,.18-.05.23-.05.05-.05.05-.09.05-.14v-2.39h-.41c-.09,0-.14,0-.23.05-.05,0-.09.05-.14.09-.05.05-.09.09-.14.14-.05.05-.09.14-.09.18s-.05.05-.05.05h-.09c0-.09.05-.14.05-.18s.05-.09.05-.18,0-.14.05-.18c0-.05,0-.09.05-.14,0-.05.05-.05.09-.05h2.48s.05,0,.09.05v.14s0,.14.05.18c0,.05,0,.09.05.18,0,.05.05.14.05.18h-.09s-.05,0-.09-.05c-.05-.09-.09-.14-.09-.18-.05-.05-.09-.09-.14-.14-.05-.05-.09-.05-.14-.09-.05,0-.14-.05-.23-.05h-.51v-.05Z"/><path class="cls-8" d="m305.7,211.27l-.73-1.38s-.09-.09-.14-.14c-.05-.05-.09-.05-.18-.05-.05,0-.05-.05-.05-.09v-.09h1.24v.09s0,.09-.05.09c-.09,0-.14,0-.18.05-.05,0-.05.05-.05.05t.05.09l.55,1.06.51-.96s.05-.09.05-.14,0-.05-.05-.09c-.05,0-.09-.05-.18-.05-.05,0-.05-.05-.05-.09v-.09h.92v.09s0,.09-.05.09c-.09,0-.18.05-.23.05-.05.05-.09.05-.09.09l-.73,1.38v1.01l.05.05s.05.05.09.05.09,0,.18.05h.05v.14h-1.33v-.14h.05s.14,0,.14-.05c.05,0,.09-.05.09-.05.05,0,.05-.05.05-.05v-.96h.09Z"/><path class="cls-8" d="m316.58,212.55c-.28,0-.46-.05-.69-.14-.18-.09-.37-.18-.46-.32-.14-.14-.23-.32-.28-.51-.05-.18-.09-.37-.09-.6,0-.18.05-.37.09-.55.05-.18.14-.37.28-.51.14-.14.28-.28.51-.37.18-.09.46-.14.73-.14.14,0,.28,0,.41.05.14,0,.28.05.46.09,0,.09,0,.18.05.32,0,.14.05.23.09.37h-.14l-.05-.05c-.05-.09-.09-.18-.09-.23-.05-.09-.09-.14-.14-.18-.05-.05-.14-.09-.23-.09s-.18-.05-.28-.05c-.18,0-.32.05-.41.09-.14.05-.23.14-.32.23-.09.09-.14.23-.18.37-.05.14-.05.32-.05.51s.05.37.09.55c.05.18.14.32.23.46.09.14.18.23.32.28.14.09.28.09.41.09s.23,0,.32-.05c.09,0,.14-.05.23-.09.05-.05.09-.09.14-.18.05-.09.09-.14.14-.28,0-.05.05-.05.05-.05h.14s-.05.09-.05.18c0,.05-.05.14-.05.18s-.05.14-.05.18c0,.09-.05.14-.05.18-.14.05-.32.05-.46.05-.28.18-.46.18-.64.18"/><path class="cls-8" d="m318.47,211.04c0-.23.05-.41.14-.6.09-.18.18-.37.32-.51.14-.14.32-.23.51-.32.18-.09.37-.14.6-.14s.41.05.6.09c.18.09.37.18.51.32.14.14.23.28.32.51.09.18.14.41.14.6,0,.23-.05.41-.14.6-.09.18-.18.37-.32.51-.14.14-.32.23-.51.32-.18.09-.37.14-.6.14s-.41-.05-.6-.09c-.18-.09-.37-.18-.51-.32-.14-.14-.23-.28-.32-.51-.14-.18-.14-.37-.14-.6m1.56,1.29c.14,0,.23-.05.37-.09.09-.05.18-.14.28-.23.09-.09.14-.23.18-.32.05-.14.05-.28.05-.41,0-.23,0-.41-.05-.6-.05-.18-.09-.32-.18-.46-.09-.14-.18-.23-.32-.32-.14-.09-.28-.14-.46-.14-.09,0-.23.05-.32.09-.09.05-.18.09-.28.18-.09.09-.14.18-.18.32-.05.14-.05.28-.05.41,0,.23,0,.41.05.64.05.18.09.37.18.51.09.14.18.23.32.32.14.05.28.09.41.09"/><path class="cls-8" d="m325.13,209.61s.05-.05.05-.05h.73v.09s0,.09-.05.09-.09,0-.14.05t-.09.05l-.05.05v.64c0,.18,0,.32.05.51,0,.18,0,.37.05.55v.78s0,.05.05.05c0,0,.05.05.09.05s.09,0,.14.05c.05,0,.05.05.05.09v.09h-1.15v-.14h.05c.14,0,.18-.05.23-.09.05-.05.05-.09.05-.14v-.87c0-.14,0-.28-.05-.41v-.55l-.92,2.16s-.05.05-.05.05h-.14l-1.06-2.53v2.2s0,.05.05.05c0,0,.05.05.09.05s.09,0,.14.05c.05,0,.05.05.05.09v.09h-.92v-.14h.05c.09,0,.18-.05.18-.09t.09-.14v-.23c0-.14,0-.28.05-.41,0-.18,0-.37.05-.55,0-.18,0-.37.05-.51v-.6s0-.09-.05-.09c-.05-.05-.09-.05-.23-.05-.05,0-.05-.05-.05-.09v-.09h.96s.05,0,.05.05v.05l.83,2.02.78-2.2Z"/><path class="cls-8" d="m327.84,211.27v.87c0,.09.05.14.09.14.05.05.14.05.32.09.05,0,.05.05.05.09v.09h-1.33v-.09s0-.09.05-.09.09-.05.14-.05.09,0,.09-.05l.05-.05v-2.34s0-.09-.05-.14c-.05-.05-.14-.05-.23-.05,0,0-.05,0-.05-.05v-.14h1.24c.32,0,.6.09.78.23.18.14.28.37.28.6,0,.14-.05.23-.05.32-.05.09-.09.18-.18.28-.09.09-.18.14-.32.18-.14.05-.28.09-.41.09h-.46v.05Zm.14-.23c.18,0,.32-.05.46-.14.09-.09.18-.28.18-.46s-.05-.37-.14-.46c-.09-.09-.23-.18-.51-.18h-.14v1.24h.14"/><path class="cls-8" d="m331.19,211.5h-.96l-.23.64v.09s0,.05.05.09c.05,0,.09.05.18.05.05,0,.05.05.05.09v.09h-.96v-.09s0-.09.05-.09c.09,0,.14-.05.18-.05s.09-.05.09-.09l1.1-2.62s.05-.09.09-.09h.09l1.1,2.71s.05.09.09.09c.05.05.09.05.18.05.05,0,.05.05.05.09v.09h-1.19v-.14l.05-.05c.09,0,.14-.05.18-.05s.05-.05.05-.09v-.05l-.23-.69Zm-.05-.23l-.37-1.01-.41,1.01h.78Z"/><path class="cls-8" d="m335.46,211.5v-1.61s0-.09-.05-.14c-.05-.05-.14-.05-.23-.05-.05,0-.05-.05-.05-.09v-.09h.96v.09s0,.09-.05.09c-.09,0-.18.05-.18.05,0,0-.05.09-.05.14v2.66h-.14s-.05-.05-.09-.05l-1.79-2.25v1.97s0,.05.05.05c0,0,.05.05.09.05s.09,0,.14.05h.05v.14h-.96v-.14h.05c.09,0,.18-.05.23-.05.05-.05.05-.09.05-.14v-2.3s0-.09-.05-.09c-.05-.05-.09-.05-.23-.05-.05,0-.05-.05-.05-.09v-.09h.83s.05,0,.09.05l1.38,1.88Z"/><path class="cls-8" d="m337.8,211.27l-.73-1.38s-.09-.09-.14-.14c-.05-.05-.09-.05-.18-.05-.05,0-.05-.05-.05-.09v-.09h1.24v.09s0,.09-.05.09c-.09,0-.14,0-.18.05-.05,0-.05.05-.05.05t.05.09l.55,1.06.51-.96s.05-.09.05-.14,0-.05-.05-.09c-.05,0-.09-.05-.18-.05-.05,0-.05-.05-.05-.09v-.09h.92v.09s0,.09-.05.09c-.09,0-.18.05-.23.05-.05.05-.09.05-.09.09l-.73,1.38v1.01l.05.05s.05.05.09.05.09,0,.14.05h.05v.14h-1.38v-.14h.05s.14,0,.14-.05c.05,0,.09-.05.09-.05.05,0,.05-.05.05-.05v-.96h.18Z"/><path class="cls-8" d="m311.21,207.27v7.21c-.55,0-1.42.05-2.62.09v-.14c.6-.09,1.01-.28,1.29-.6.23-.32.37-.83.37-1.65v-3.08c0-.6-.14-1.01-.37-1.29-.23-.28-.64-.46-1.24-.55v-.14c.92.09,1.79.14,2.57.14m.46,7.21v-7.21c.96,0,1.84-.05,2.62-.09v.14c-.46.05-.87.18-1.15.46-.32.23-.46.78-.46,1.56v3.26c0,.69.18,1.19.51,1.42.32.23.73.41,1.15.46v.14c-.83-.09-1.65-.14-2.66-.14"/><rect class="cls-8" x="220.96" y="211.45" width="47.9" height=".23"/></g></g></g></svg>